<svg width="369" height="421" viewBox="0 0 369 421" fill="none" xmlns="http://www.w3.org/2000/svg">
<rect width="369" height="421" rx="20" fill="white" fill-opacity="0.6"/>
<path d="M150.964 210.75C150.964 208.347 151.501 206.2 152.574 204.31C153.671 202.397 155.153 200.915 157.019 199.865C158.909 198.792 161.021 198.255 163.354 198.255C166.084 198.255 168.476 198.955 170.529 200.355C172.583 201.755 174.018 203.692 174.834 206.165H169.199C168.639 204.998 167.846 204.123 166.819 203.54C165.816 202.957 164.649 202.665 163.319 202.665C161.896 202.665 160.624 203.003 159.504 203.68C158.408 204.333 157.544 205.267 156.914 206.48C156.308 207.693 156.004 209.117 156.004 210.75C156.004 212.36 156.308 213.783 156.914 215.02C157.544 216.233 158.408 217.178 159.504 217.855C160.624 218.508 161.896 218.835 163.319 218.835C164.649 218.835 165.816 218.543 166.819 217.96C167.846 217.353 168.639 216.467 169.199 215.3H174.834C174.018 217.797 172.583 219.745 170.529 221.145C168.499 222.522 166.108 223.21 163.354 223.21C161.021 223.21 158.909 222.685 157.019 221.635C155.153 220.562 153.671 219.08 152.574 217.19C151.501 215.3 150.964 213.153 150.964 210.75ZM187.454 223.245C185.751 223.245 184.211 222.953 182.834 222.37C181.481 221.787 180.408 220.947 179.614 219.85C178.821 218.753 178.413 217.458 178.389 215.965H183.639C183.709 216.968 184.059 217.762 184.689 218.345C185.343 218.928 186.229 219.22 187.349 219.22C188.493 219.22 189.391 218.952 190.044 218.415C190.698 217.855 191.024 217.132 191.024 216.245C191.024 215.522 190.803 214.927 190.359 214.46C189.916 213.993 189.356 213.632 188.679 213.375C188.026 213.095 187.116 212.792 185.949 212.465C184.363 211.998 183.068 211.543 182.064 211.1C181.084 210.633 180.233 209.945 179.509 209.035C178.809 208.102 178.459 206.865 178.459 205.325C178.459 203.878 178.821 202.618 179.544 201.545C180.268 200.472 181.283 199.655 182.589 199.095C183.896 198.512 185.389 198.22 187.069 198.22C189.589 198.22 191.631 198.838 193.194 200.075C194.781 201.288 195.656 202.992 195.819 205.185H190.429C190.383 204.345 190.021 203.657 189.344 203.12C188.691 202.56 187.816 202.28 186.719 202.28C185.763 202.28 184.993 202.525 184.409 203.015C183.849 203.505 183.569 204.217 183.569 205.15C183.569 205.803 183.779 206.352 184.199 206.795C184.643 207.215 185.179 207.565 185.809 207.845C186.463 208.102 187.373 208.405 188.539 208.755C190.126 209.222 191.421 209.688 192.424 210.155C193.428 210.622 194.291 211.322 195.014 212.255C195.738 213.188 196.099 214.413 196.099 215.93C196.099 217.237 195.761 218.45 195.084 219.57C194.408 220.69 193.416 221.588 192.109 222.265C190.803 222.918 189.251 223.245 187.454 223.245ZM208.783 223.245C207.079 223.245 205.539 222.953 204.163 222.37C202.809 221.787 201.736 220.947 200.943 219.85C200.149 218.753 199.741 217.458 199.718 215.965H204.968C205.038 216.968 205.388 217.762 206.018 218.345C206.671 218.928 207.558 219.22 208.678 219.22C209.821 219.22 210.719 218.952 211.373 218.415C212.026 217.855 212.353 217.132 212.353 216.245C212.353 215.522 212.131 214.927 211.688 214.46C211.244 213.993 210.684 213.632 210.008 213.375C209.354 213.095 208.444 212.792 207.278 212.465C205.691 211.998 204.396 211.543 203.393 211.1C202.413 210.633 201.561 209.945 200.838 209.035C200.138 208.102 199.788 206.865 199.788 205.325C199.788 203.878 200.149 202.618 200.873 201.545C201.596 200.472 202.611 199.655 203.918 199.095C205.224 198.512 206.718 198.22 208.398 198.22C210.918 198.22 212.959 198.838 214.523 200.075C216.109 201.288 216.984 202.992 217.148 205.185H211.758C211.711 204.345 211.349 203.657 210.673 203.12C210.019 202.56 209.144 202.28 208.048 202.28C207.091 202.28 206.321 202.525 205.738 203.015C205.178 203.505 204.898 204.217 204.898 205.15C204.898 205.803 205.108 206.352 205.528 206.795C205.971 207.215 206.508 207.565 207.138 207.845C207.791 208.102 208.701 208.405 209.868 208.755C211.454 209.222 212.749 209.688 213.753 210.155C214.756 210.622 215.619 211.322 216.343 212.255C217.066 213.188 217.428 214.413 217.428 215.93C217.428 217.237 217.089 218.45 216.413 219.57C215.736 220.69 214.744 221.588 213.438 222.265C212.131 222.918 210.579 223.245 208.783 223.245Z" fill="#5D18B0"/>
<path d="M49.8433 280.126C49.8433 281.17 49.4833 282.04 48.7633 282.736C48.0553 283.42 46.9693 283.762 45.5053 283.762H43.0933V289H41.4553V276.454H45.5053C46.9213 276.454 47.9953 276.796 48.7273 277.48C49.4713 278.164 49.8433 279.046 49.8433 280.126ZM45.5053 282.412C46.4173 282.412 47.0893 282.214 47.5213 281.818C47.9533 281.422 48.1693 280.858 48.1693 280.126C48.1693 278.578 47.2813 277.804 45.5053 277.804H43.0933V282.412H45.5053ZM53.5172 280.738C53.8052 280.174 54.2132 279.736 54.7412 279.424C55.2812 279.112 55.9352 278.956 56.7032 278.956V280.648H56.2712C54.4352 280.648 53.5172 281.644 53.5172 283.636V289H51.8792V279.136H53.5172V280.738ZM62.896 289.162C61.972 289.162 61.132 288.952 60.376 288.532C59.632 288.112 59.044 287.518 58.612 286.75C58.192 285.97 57.982 285.07 57.982 284.05C57.982 283.042 58.198 282.154 58.63 281.386C59.074 280.606 59.674 280.012 60.43 279.604C61.186 279.184 62.032 278.974 62.968 278.974C63.904 278.974 64.75 279.184 65.506 279.604C66.262 280.012 66.856 280.6 67.288 281.368C67.732 282.136 67.954 283.03 67.954 284.05C67.954 285.07 67.726 285.97 67.27 286.75C66.826 287.518 66.22 288.112 65.452 288.532C64.684 288.952 63.832 289.162 62.896 289.162ZM62.896 287.722C63.484 287.722 64.036 287.584 64.552 287.308C65.068 287.032 65.482 286.618 65.794 286.066C66.118 285.514 66.28 284.842 66.28 284.05C66.28 283.258 66.124 282.586 65.812 282.034C65.5 281.482 65.092 281.074 64.588 280.81C64.084 280.534 63.538 280.396 62.95 280.396C62.35 280.396 61.798 280.534 61.294 280.81C60.802 281.074 60.406 281.482 60.106 282.034C59.806 282.586 59.656 283.258 59.656 284.05C59.656 284.854 59.8 285.532 60.088 286.084C60.388 286.636 60.784 287.05 61.276 287.326C61.768 287.59 62.308 287.722 62.896 287.722ZM74.1217 280.486H72.0517V289H70.4137V280.486H69.1357V279.136H70.4137V278.434C70.4137 277.33 70.6957 276.526 71.2597 276.022C71.8357 275.506 72.7537 275.248 74.0137 275.248V276.616C73.2937 276.616 72.7837 276.76 72.4837 277.048C72.1957 277.324 72.0517 277.786 72.0517 278.434V279.136H74.1217V280.486ZM76.8775 277.534C76.5655 277.534 76.3015 277.426 76.0855 277.21C75.8695 276.994 75.7615 276.73 75.7615 276.418C75.7615 276.106 75.8695 275.842 76.0855 275.626C76.3015 275.41 76.5655 275.302 76.8775 275.302C77.1775 275.302 77.4295 275.41 77.6335 275.626C77.8495 275.842 77.9575 276.106 77.9575 276.418C77.9575 276.73 77.8495 276.994 77.6335 277.21C77.4295 277.426 77.1775 277.534 76.8775 277.534ZM77.6695 279.136V289H76.0315V279.136H77.6695ZM79.8492 284.05C79.8492 283.03 80.0532 282.142 80.4612 281.386C80.8692 280.618 81.4332 280.024 82.1532 279.604C82.8852 279.184 83.7192 278.974 84.6552 278.974C85.8672 278.974 86.8632 279.268 87.6432 279.856C88.4352 280.444 88.9572 281.26 89.2092 282.304H87.4452C87.2772 281.704 86.9472 281.23 86.4552 280.882C85.9752 280.534 85.3752 280.36 84.6552 280.36C83.7192 280.36 82.9632 280.684 82.3872 281.332C81.8112 281.968 81.5232 282.874 81.5232 284.05C81.5232 285.238 81.8112 286.156 82.3872 286.804C82.9632 287.452 83.7192 287.776 84.6552 287.776C85.3752 287.776 85.9752 287.608 86.4552 287.272C86.9352 286.936 87.2652 286.456 87.4452 285.832H89.2092C88.9452 286.84 88.4172 287.65 87.6252 288.262C86.8332 288.862 85.8432 289.162 84.6552 289.162C83.7192 289.162 82.8852 288.952 82.1532 288.532C81.4332 288.112 80.8692 287.518 80.4612 286.75C80.0532 285.982 79.8492 285.082 79.8492 284.05ZM92.2408 277.534C91.9288 277.534 91.6648 277.426 91.4488 277.21C91.2328 276.994 91.1248 276.73 91.1248 276.418C91.1248 276.106 91.2328 275.842 91.4488 275.626C91.6648 275.41 91.9288 275.302 92.2408 275.302C92.5408 275.302 92.7928 275.41 92.9968 275.626C93.2128 275.842 93.3208 276.106 93.3208 276.418C93.3208 276.73 93.2128 276.994 92.9968 277.21C92.7928 277.426 92.5408 277.534 92.2408 277.534ZM93.0328 279.136V289H91.3948V279.136H93.0328ZM104.824 283.69C104.824 284.002 104.806 284.332 104.77 284.68H96.8865C96.9465 285.652 97.2765 286.414 97.8765 286.966C98.4885 287.506 99.2265 287.776 100.09 287.776C100.798 287.776 101.386 287.614 101.854 287.29C102.334 286.954 102.67 286.51 102.862 285.958H104.626C104.362 286.906 103.834 287.68 103.042 288.28C102.25 288.868 101.266 289.162 100.09 289.162C99.1545 289.162 98.3145 288.952 97.5705 288.532C96.8385 288.112 96.2625 287.518 95.8425 286.75C95.4225 285.97 95.2125 285.07 95.2125 284.05C95.2125 283.03 95.4165 282.136 95.8245 281.368C96.2325 280.6 96.8025 280.012 97.5345 279.604C98.2785 279.184 99.1305 278.974 100.09 278.974C101.026 278.974 101.854 279.178 102.574 279.586C103.294 279.994 103.846 280.558 104.23 281.278C104.626 281.986 104.824 282.79 104.824 283.69ZM103.132 283.348C103.132 282.724 102.994 282.19 102.718 281.746C102.442 281.29 102.064 280.948 101.584 280.72C101.116 280.48 100.594 280.36 100.018 280.36C99.1905 280.36 98.4825 280.624 97.8945 281.152C97.3185 281.68 96.9885 282.412 96.9045 283.348H103.132ZM111.793 278.956C112.993 278.956 113.965 279.322 114.709 280.054C115.453 280.774 115.825 281.818 115.825 283.186V289H114.205V283.42C114.205 282.436 113.959 281.686 113.467 281.17C112.975 280.642 112.303 280.378 111.451 280.378C110.587 280.378 109.897 280.648 109.381 281.188C108.877 281.728 108.625 282.514 108.625 283.546V289H106.987V279.136H108.625V280.54C108.949 280.036 109.387 279.646 109.939 279.37C110.503 279.094 111.121 278.956 111.793 278.956ZM120.498 280.486V286.3C120.498 286.78 120.6 287.122 120.804 287.326C121.008 287.518 121.362 287.614 121.866 287.614H123.072V289H121.596C120.684 289 120 288.79 119.544 288.37C119.088 287.95 118.86 287.26 118.86 286.3V280.486H117.582V279.136H118.86V276.652H120.498V279.136H123.072V280.486H120.498ZM130.702 277.534C130.39 277.534 130.126 277.426 129.91 277.21C129.694 276.994 129.586 276.73 129.586 276.418C129.586 276.106 129.694 275.842 129.91 275.626C130.126 275.41 130.39 275.302 130.702 275.302C131.002 275.302 131.254 275.41 131.458 275.626C131.674 275.842 131.782 276.106 131.782 276.418C131.782 276.73 131.674 276.994 131.458 277.21C131.254 277.426 131.002 277.534 130.702 277.534ZM131.494 279.136V289H129.856V279.136H131.494ZM139.091 278.956C140.291 278.956 141.263 279.322 142.007 280.054C142.751 280.774 143.123 281.818 143.123 283.186V289H141.503V283.42C141.503 282.436 141.257 281.686 140.765 281.17C140.273 280.642 139.601 280.378 138.749 280.378C137.885 280.378 137.195 280.648 136.679 281.188C136.175 281.728 135.923 282.514 135.923 283.546V289H134.285V279.136H135.923V280.54C136.247 280.036 136.685 279.646 137.237 279.37C137.801 279.094 138.419 278.956 139.091 278.956ZM149.986 282.718C149.986 281.494 150.262 280.396 150.814 279.424C151.366 278.44 152.116 277.672 153.064 277.12C154.024 276.568 155.086 276.292 156.25 276.292C157.618 276.292 158.812 276.622 159.832 277.282C160.852 277.942 161.596 278.878 162.064 280.09H160.102C159.754 279.334 159.25 278.752 158.59 278.344C157.942 277.936 157.162 277.732 156.25 277.732C155.374 277.732 154.588 277.936 153.892 278.344C153.196 278.752 152.65 279.334 152.254 280.09C151.858 280.834 151.66 281.71 151.66 282.718C151.66 283.714 151.858 284.59 152.254 285.346C152.65 286.09 153.196 286.666 153.892 287.074C154.588 287.482 155.374 287.686 156.25 287.686C157.162 287.686 157.942 287.488 158.59 287.092C159.25 286.684 159.754 286.102 160.102 285.346H162.064C161.596 286.546 160.852 287.476 159.832 288.136C158.812 288.784 157.618 289.108 156.25 289.108C155.086 289.108 154.024 288.838 153.064 288.298C152.116 287.746 151.366 286.984 150.814 286.012C150.262 285.04 149.986 283.942 149.986 282.718ZM168.48 289.126C167.652 289.126 166.908 288.982 166.248 288.694C165.6 288.394 165.09 287.986 164.718 287.47C164.346 286.942 164.154 286.336 164.142 285.652H165.888C165.948 286.24 166.188 286.738 166.608 287.146C167.04 287.542 167.664 287.74 168.48 287.74C169.26 287.74 169.872 287.548 170.316 287.164C170.772 286.768 171 286.264 171 285.652C171 285.172 170.868 284.782 170.604 284.482C170.34 284.182 170.01 283.954 169.614 283.798C169.218 283.642 168.684 283.474 168.012 283.294C167.184 283.078 166.518 282.862 166.014 282.646C165.522 282.43 165.096 282.094 164.736 281.638C164.388 281.17 164.214 280.546 164.214 279.766C164.214 279.082 164.388 278.476 164.736 277.948C165.084 277.42 165.57 277.012 166.194 276.724C166.83 276.436 167.556 276.292 168.372 276.292C169.548 276.292 170.508 276.586 171.252 277.174C172.008 277.762 172.434 278.542 172.53 279.514H170.73C170.67 279.034 170.418 278.614 169.974 278.254C169.53 277.882 168.942 277.696 168.21 277.696C167.526 277.696 166.968 277.876 166.536 278.236C166.104 278.584 165.888 279.076 165.888 279.712C165.888 280.168 166.014 280.54 166.266 280.828C166.53 281.116 166.848 281.338 167.22 281.494C167.604 281.638 168.138 281.806 168.822 281.998C169.65 282.226 170.316 282.454 170.82 282.682C171.324 282.898 171.756 283.24 172.116 283.708C172.476 284.164 172.656 284.788 172.656 285.58C172.656 286.192 172.494 286.768 172.17 287.308C171.846 287.848 171.366 288.286 170.73 288.622C170.094 288.958 169.344 289.126 168.48 289.126ZM179.045 289.126C178.217 289.126 177.473 288.982 176.813 288.694C176.165 288.394 175.655 287.986 175.283 287.47C174.911 286.942 174.719 286.336 174.707 285.652H176.453C176.513 286.24 176.753 286.738 177.173 287.146C177.605 287.542 178.229 287.74 179.045 287.74C179.825 287.74 180.437 287.548 180.881 287.164C181.337 286.768 181.565 286.264 181.565 285.652C181.565 285.172 181.433 284.782 181.169 284.482C180.905 284.182 180.575 283.954 180.179 283.798C179.783 283.642 179.249 283.474 178.577 283.294C177.749 283.078 177.083 282.862 176.579 282.646C176.087 282.43 175.661 282.094 175.301 281.638C174.953 281.17 174.779 280.546 174.779 279.766C174.779 279.082 174.953 278.476 175.301 277.948C175.649 277.42 176.135 277.012 176.759 276.724C177.395 276.436 178.121 276.292 178.937 276.292C180.113 276.292 181.073 276.586 181.817 277.174C182.573 277.762 182.999 278.542 183.095 279.514H181.295C181.235 279.034 180.983 278.614 180.539 278.254C180.095 277.882 179.507 277.696 178.775 277.696C178.091 277.696 177.533 277.876 177.101 278.236C176.669 278.584 176.453 279.076 176.453 279.712C176.453 280.168 176.579 280.54 176.831 280.828C177.095 281.116 177.413 281.338 177.785 281.494C178.169 281.638 178.703 281.806 179.387 281.998C180.215 282.226 180.881 282.454 181.385 282.682C181.889 282.898 182.321 283.24 182.681 283.708C183.041 284.164 183.221 284.788 183.221 285.58C183.221 286.192 183.059 286.768 182.735 287.308C182.411 287.848 181.931 288.286 181.295 288.622C180.659 288.958 179.909 289.126 179.045 289.126ZM187.323 286.732L185.307 291.574H184.209L185.523 286.732H187.323ZM193.386 284.05C193.386 283.03 193.59 282.142 193.998 281.386C194.406 280.618 194.97 280.024 195.69 279.604C196.422 279.184 197.256 278.974 198.192 278.974C199.404 278.974 200.4 279.268 201.18 279.856C201.972 280.444 202.494 281.26 202.746 282.304H200.982C200.814 281.704 200.484 281.23 199.992 280.882C199.512 280.534 198.912 280.36 198.192 280.36C197.256 280.36 196.5 280.684 195.924 281.332C195.348 281.968 195.06 282.874 195.06 284.05C195.06 285.238 195.348 286.156 195.924 286.804C196.5 287.452 197.256 287.776 198.192 287.776C198.912 287.776 199.512 287.608 199.992 287.272C200.472 286.936 200.802 286.456 200.982 285.832H202.746C202.482 286.84 201.954 287.65 201.162 288.262C200.37 288.862 199.38 289.162 198.192 289.162C197.256 289.162 196.422 288.952 195.69 288.532C194.97 288.112 194.406 287.518 193.998 286.75C193.59 285.982 193.386 285.082 193.386 284.05ZM206.57 280.738C206.858 280.174 207.266 279.736 207.794 279.424C208.334 279.112 208.988 278.956 209.756 278.956V280.648H209.324C207.488 280.648 206.57 281.644 206.57 283.636V289H204.932V279.136H206.57V280.738ZM220.647 283.69C220.647 284.002 220.629 284.332 220.593 284.68H212.709C212.769 285.652 213.099 286.414 213.699 286.966C214.311 287.506 215.049 287.776 215.913 287.776C216.621 287.776 217.209 287.614 217.677 287.29C218.157 286.954 218.493 286.51 218.685 285.958H220.449C220.185 286.906 219.657 287.68 218.865 288.28C218.073 288.868 217.089 289.162 215.913 289.162C214.977 289.162 214.137 288.952 213.393 288.532C212.661 288.112 212.085 287.518 211.665 286.75C211.245 285.97 211.035 285.07 211.035 284.05C211.035 283.03 211.239 282.136 211.647 281.368C212.055 280.6 212.625 280.012 213.357 279.604C214.101 279.184 214.953 278.974 215.913 278.974C216.849 278.974 217.677 279.178 218.397 279.586C219.117 279.994 219.669 280.558 220.053 281.278C220.449 281.986 220.647 282.79 220.647 283.69ZM218.955 283.348C218.955 282.724 218.817 282.19 218.541 281.746C218.265 281.29 217.887 280.948 217.407 280.72C216.939 280.48 216.417 280.36 215.841 280.36C215.013 280.36 214.305 280.624 213.717 281.152C213.141 281.68 212.811 282.412 212.727 283.348H218.955ZM222.197 284.032C222.197 283.024 222.401 282.142 222.809 281.386C223.217 280.618 223.775 280.024 224.483 279.604C225.203 279.184 226.001 278.974 226.877 278.974C227.741 278.974 228.491 279.16 229.127 279.532C229.763 279.904 230.237 280.372 230.549 280.936V279.136H232.205V289H230.549V287.164C230.225 287.74 229.739 288.22 229.091 288.604C228.455 288.976 227.711 289.162 226.859 289.162C225.983 289.162 225.191 288.946 224.483 288.514C223.775 288.082 223.217 287.476 222.809 286.696C222.401 285.916 222.197 285.028 222.197 284.032ZM230.549 284.05C230.549 283.306 230.399 282.658 230.099 282.106C229.799 281.554 229.391 281.134 228.875 280.846C228.371 280.546 227.813 280.396 227.201 280.396C226.589 280.396 226.031 280.54 225.527 280.828C225.023 281.116 224.621 281.536 224.321 282.088C224.021 282.64 223.871 283.288 223.871 284.032C223.871 284.788 224.021 285.448 224.321 286.012C224.621 286.564 225.023 286.99 225.527 287.29C226.031 287.578 226.589 287.722 227.201 287.722C227.813 287.722 228.371 287.578 228.875 287.29C229.391 286.99 229.799 286.564 230.099 286.012C230.399 285.448 230.549 284.794 230.549 284.05ZM236.971 280.486V286.3C236.971 286.78 237.073 287.122 237.277 287.326C237.481 287.518 237.835 287.614 238.339 287.614H239.545V289H238.069C237.157 289 236.473 288.79 236.017 288.37C235.561 287.95 235.333 287.26 235.333 286.3V280.486H234.055V279.136H235.333V276.652H236.971V279.136H239.545V280.486H236.971ZM242.376 277.534C242.064 277.534 241.8 277.426 241.584 277.21C241.368 276.994 241.26 276.73 241.26 276.418C241.26 276.106 241.368 275.842 241.584 275.626C241.8 275.41 242.064 275.302 242.376 275.302C242.676 275.302 242.928 275.41 243.132 275.626C243.348 275.842 243.456 276.106 243.456 276.418C243.456 276.73 243.348 276.994 243.132 277.21C242.928 277.426 242.676 277.534 242.376 277.534ZM243.168 279.136V289H241.53V279.136H243.168ZM250.765 278.956C251.965 278.956 252.937 279.322 253.681 280.054C254.425 280.774 254.797 281.818 254.797 283.186V289H253.177V283.42C253.177 282.436 252.931 281.686 252.439 281.17C251.947 280.642 251.275 280.378 250.423 280.378C249.559 280.378 248.869 280.648 248.353 281.188C247.849 281.728 247.597 282.514 247.597 283.546V289H245.959V279.136H247.597V280.54C247.921 280.036 248.359 279.646 248.911 279.37C249.475 279.094 250.093 278.956 250.765 278.956ZM261.541 278.974C262.393 278.974 263.137 279.16 263.773 279.532C264.421 279.904 264.901 280.372 265.213 280.936V279.136H266.869V289.216C266.869 290.116 266.677 290.914 266.293 291.61C265.909 292.318 265.357 292.87 264.637 293.266C263.929 293.662 263.101 293.86 262.153 293.86C260.857 293.86 259.777 293.554 258.913 292.942C258.049 292.33 257.539 291.496 257.383 290.44H259.003C259.183 291.04 259.555 291.52 260.119 291.88C260.683 292.252 261.361 292.438 262.153 292.438C263.053 292.438 263.785 292.156 264.349 291.592C264.925 291.028 265.213 290.236 265.213 289.216V287.146C264.889 287.722 264.409 288.202 263.773 288.586C263.137 288.97 262.393 289.162 261.541 289.162C260.665 289.162 259.867 288.946 259.147 288.514C258.439 288.082 257.881 287.476 257.473 286.696C257.065 285.916 256.861 285.028 256.861 284.032C256.861 283.024 257.065 282.142 257.473 281.386C257.881 280.618 258.439 280.024 259.147 279.604C259.867 279.184 260.665 278.974 261.541 278.974ZM265.213 284.05C265.213 283.306 265.063 282.658 264.763 282.106C264.463 281.554 264.055 281.134 263.539 280.846C263.035 280.546 262.477 280.396 261.865 280.396C261.253 280.396 260.695 280.54 260.191 280.828C259.687 281.116 259.285 281.536 258.985 282.088C258.685 282.64 258.535 283.288 258.535 284.032C258.535 284.788 258.685 285.448 258.985 286.012C259.285 286.564 259.687 286.99 260.191 287.29C260.695 287.578 261.253 287.722 261.865 287.722C262.477 287.722 263.035 287.578 263.539 287.29C264.055 286.99 264.463 286.564 264.763 286.012C265.063 285.448 265.213 284.794 265.213 284.05ZM277.928 289.162C277.172 289.162 276.494 289.036 275.894 288.784C275.294 288.52 274.82 288.16 274.472 287.704C274.124 287.236 273.932 286.702 273.896 286.102H275.588C275.636 286.594 275.864 286.996 276.272 287.308C276.692 287.62 277.238 287.776 277.91 287.776C278.534 287.776 279.026 287.638 279.386 287.362C279.746 287.086 279.926 286.738 279.926 286.318C279.926 285.886 279.734 285.568 279.35 285.364C278.966 285.148 278.372 284.938 277.568 284.734C276.836 284.542 276.236 284.35 275.768 284.158C275.312 283.954 274.916 283.66 274.58 283.276C274.256 282.88 274.094 282.364 274.094 281.728C274.094 281.224 274.244 280.762 274.544 280.342C274.844 279.922 275.27 279.592 275.822 279.352C276.374 279.1 277.004 278.974 277.712 278.974C278.804 278.974 279.686 279.25 280.358 279.802C281.03 280.354 281.39 281.11 281.438 282.07H279.8C279.764 281.554 279.554 281.14 279.17 280.828C278.798 280.516 278.294 280.36 277.658 280.36C277.07 280.36 276.602 280.486 276.254 280.738C275.906 280.99 275.732 281.32 275.732 281.728C275.732 282.052 275.834 282.322 276.038 282.538C276.254 282.742 276.518 282.91 276.83 283.042C277.154 283.162 277.598 283.3 278.162 283.456C278.87 283.648 279.446 283.84 279.89 284.032C280.334 284.212 280.712 284.488 281.024 284.86C281.348 285.232 281.516 285.718 281.528 286.318C281.528 286.858 281.378 287.344 281.078 287.776C280.778 288.208 280.352 288.55 279.8 288.802C279.26 289.042 278.636 289.162 277.928 289.162ZM285.838 280.486V286.3C285.838 286.78 285.94 287.122 286.144 287.326C286.348 287.518 286.702 287.614 287.206 287.614H288.412V289H286.936C286.024 289 285.34 288.79 284.884 288.37C284.428 287.95 284.2 287.26 284.2 286.3V280.486H282.922V279.136H284.2V276.652H285.838V279.136H288.412V280.486H285.838ZM298.893 279.136L292.953 293.644H291.261L293.205 288.892L289.227 279.136H291.045L294.141 287.128L297.201 279.136H298.893ZM302.177 275.68V289H300.539V275.68H302.177ZM305.815 277.534C305.503 277.534 305.239 277.426 305.023 277.21C304.807 276.994 304.699 276.73 304.699 276.418C304.699 276.106 304.807 275.842 305.023 275.626C305.239 275.41 305.503 275.302 305.815 275.302C306.115 275.302 306.367 275.41 306.571 275.626C306.787 275.842 306.895 276.106 306.895 276.418C306.895 276.73 306.787 276.994 306.571 277.21C306.367 277.426 306.115 277.534 305.815 277.534ZM306.607 279.136V289H304.969V279.136H306.607ZM312.891 289.162C312.135 289.162 311.457 289.036 310.857 288.784C310.257 288.52 309.783 288.16 309.435 287.704C309.087 287.236 308.895 286.702 308.859 286.102H310.551C310.599 286.594 310.827 286.996 311.235 287.308C311.655 287.62 312.201 287.776 312.873 287.776C313.497 287.776 313.989 287.638 314.349 287.362C314.709 287.086 314.889 286.738 314.889 286.318C314.889 285.886 314.697 285.568 314.313 285.364C313.929 285.148 313.335 284.938 312.531 284.734C311.799 284.542 311.199 284.35 310.731 284.158C310.275 283.954 309.879 283.66 309.543 283.276C309.219 282.88 309.057 282.364 309.057 281.728C309.057 281.224 309.207 280.762 309.507 280.342C309.807 279.922 310.233 279.592 310.785 279.352C311.337 279.1 311.967 278.974 312.675 278.974C313.767 278.974 314.649 279.25 315.321 279.802C315.993 280.354 316.353 281.11 316.401 282.07H314.763C314.727 281.554 314.517 281.14 314.133 280.828C313.761 280.516 313.257 280.36 312.621 280.36C312.033 280.36 311.565 280.486 311.217 280.738C310.869 280.99 310.695 281.32 310.695 281.728C310.695 282.052 310.797 282.322 311.001 282.538C311.217 282.742 311.481 282.91 311.793 283.042C312.117 283.162 312.561 283.3 313.125 283.456C313.833 283.648 314.409 283.84 314.853 284.032C315.297 284.212 315.675 284.488 315.987 284.86C316.311 285.232 316.479 285.718 316.491 286.318C316.491 286.858 316.341 287.344 316.041 287.776C315.741 288.208 315.315 288.55 314.763 288.802C314.223 289.042 313.599 289.162 312.891 289.162ZM323.699 278.956C324.443 278.956 325.115 279.118 325.715 279.442C326.315 279.754 326.783 280.228 327.119 280.864C327.467 281.5 327.641 282.274 327.641 283.186V289H326.021V283.42C326.021 282.436 325.775 281.686 325.283 281.17C324.791 280.642 324.119 280.378 323.267 280.378C322.403 280.378 321.713 280.648 321.197 281.188C320.693 281.728 320.441 282.514 320.441 283.546V289H318.803V275.68H320.441V280.54C320.765 280.036 321.209 279.646 321.773 279.37C322.349 279.094 322.991 278.956 323.699 278.956ZM67.2193 308.032C67.2193 307.024 67.4233 306.142 67.8313 305.386C68.2393 304.618 68.7973 304.024 69.5053 303.604C70.2253 303.184 71.0233 302.974 71.8993 302.974C72.7633 302.974 73.5133 303.16 74.1493 303.532C74.7853 303.904 75.2593 304.372 75.5713 304.936V303.136H77.2273V313H75.5713V311.164C75.2473 311.74 74.7613 312.22 74.1133 312.604C73.4773 312.976 72.7333 313.162 71.8813 313.162C71.0053 313.162 70.2133 312.946 69.5053 312.514C68.7973 312.082 68.2393 311.476 67.8313 310.696C67.4233 309.916 67.2193 309.028 67.2193 308.032ZM75.5713 308.05C75.5713 307.306 75.4213 306.658 75.1213 306.106C74.8213 305.554 74.4133 305.134 73.8973 304.846C73.3933 304.546 72.8353 304.396 72.2233 304.396C71.6113 304.396 71.0533 304.54 70.5493 304.828C70.0453 305.116 69.6433 305.536 69.3433 306.088C69.0433 306.64 68.8933 307.288 68.8933 308.032C68.8933 308.788 69.0433 309.448 69.3433 310.012C69.6433 310.564 70.0453 310.99 70.5493 311.29C71.0533 311.578 71.6113 311.722 72.2233 311.722C72.8353 311.722 73.3933 311.578 73.8973 311.29C74.4133 310.99 74.8213 310.564 75.1213 310.012C75.4213 309.448 75.5713 308.794 75.5713 308.05ZM84.8014 302.956C86.0014 302.956 86.9734 303.322 87.7174 304.054C88.4614 304.774 88.8334 305.818 88.8334 307.186V313H87.2134V307.42C87.2134 306.436 86.9674 305.686 86.4754 305.17C85.9834 304.642 85.3114 304.378 84.4594 304.378C83.5954 304.378 82.9054 304.648 82.3894 305.188C81.8854 305.728 81.6334 306.514 81.6334 307.546V313H79.9954V303.136H81.6334V304.54C81.9574 304.036 82.3954 303.646 82.9474 303.37C83.5114 303.094 84.1294 302.956 84.8014 302.956ZM90.897 308.032C90.897 307.024 91.101 306.142 91.509 305.386C91.917 304.618 92.475 304.024 93.183 303.604C93.903 303.184 94.707 302.974 95.595 302.974C96.363 302.974 97.077 303.154 97.737 303.514C98.397 303.862 98.901 304.324 99.249 304.9V299.68H100.905V313H99.249V311.146C98.925 311.734 98.445 312.22 97.809 312.604C97.173 312.976 96.429 313.162 95.577 313.162C94.701 313.162 93.903 312.946 93.183 312.514C92.475 312.082 91.917 311.476 91.509 310.696C91.101 309.916 90.897 309.028 90.897 308.032ZM99.249 308.05C99.249 307.306 99.099 306.658 98.799 306.106C98.499 305.554 98.091 305.134 97.575 304.846C97.071 304.546 96.513 304.396 95.901 304.396C95.289 304.396 94.731 304.54 94.227 304.828C93.723 305.116 93.321 305.536 93.021 306.088C92.721 306.64 92.571 307.288 92.571 308.032C92.571 308.788 92.721 309.448 93.021 310.012C93.321 310.564 93.723 310.99 94.227 311.29C94.731 311.578 95.289 311.722 95.901 311.722C96.513 311.722 97.071 311.578 97.575 311.29C98.091 310.99 98.499 310.564 98.799 310.012C99.099 309.448 99.249 308.794 99.249 308.05ZM110.11 304.738C110.398 304.174 110.806 303.736 111.334 303.424C111.874 303.112 112.528 302.956 113.296 302.956V304.648H112.864C111.028 304.648 110.11 305.644 110.11 307.636V313H108.472V303.136H110.11V304.738ZM124.187 307.69C124.187 308.002 124.169 308.332 124.133 308.68H116.249C116.309 309.652 116.639 310.414 117.239 310.966C117.851 311.506 118.589 311.776 119.453 311.776C120.161 311.776 120.749 311.614 121.217 311.29C121.697 310.954 122.033 310.51 122.225 309.958H123.989C123.725 310.906 123.197 311.68 122.405 312.28C121.613 312.868 120.629 313.162 119.453 313.162C118.517 313.162 117.677 312.952 116.933 312.532C116.201 312.112 115.625 311.518 115.205 310.75C114.785 309.97 114.575 309.07 114.575 308.05C114.575 307.03 114.779 306.136 115.187 305.368C115.595 304.6 116.165 304.012 116.897 303.604C117.641 303.184 118.493 302.974 119.453 302.974C120.389 302.974 121.217 303.178 121.937 303.586C122.657 303.994 123.209 304.558 123.593 305.278C123.989 305.986 124.187 306.79 124.187 307.69ZM122.495 307.348C122.495 306.724 122.357 306.19 122.081 305.746C121.805 305.29 121.427 304.948 120.947 304.72C120.479 304.48 119.957 304.36 119.381 304.36C118.553 304.36 117.845 304.624 117.257 305.152C116.681 305.68 116.351 306.412 116.267 307.348H122.495ZM129.841 313.162C129.085 313.162 128.407 313.036 127.807 312.784C127.207 312.52 126.733 312.16 126.385 311.704C126.037 311.236 125.845 310.702 125.809 310.102H127.501C127.549 310.594 127.777 310.996 128.185 311.308C128.605 311.62 129.151 311.776 129.823 311.776C130.447 311.776 130.939 311.638 131.299 311.362C131.659 311.086 131.839 310.738 131.839 310.318C131.839 309.886 131.647 309.568 131.263 309.364C130.879 309.148 130.285 308.938 129.481 308.734C128.749 308.542 128.149 308.35 127.681 308.158C127.225 307.954 126.829 307.66 126.493 307.276C126.169 306.88 126.007 306.364 126.007 305.728C126.007 305.224 126.157 304.762 126.457 304.342C126.757 303.922 127.183 303.592 127.735 303.352C128.287 303.1 128.917 302.974 129.625 302.974C130.717 302.974 131.599 303.25 132.271 303.802C132.943 304.354 133.303 305.11 133.351 306.07H131.713C131.677 305.554 131.467 305.14 131.083 304.828C130.711 304.516 130.207 304.36 129.571 304.36C128.983 304.36 128.515 304.486 128.167 304.738C127.819 304.99 127.645 305.32 127.645 305.728C127.645 306.052 127.747 306.322 127.951 306.538C128.167 306.742 128.431 306.91 128.743 307.042C129.067 307.162 129.511 307.3 130.075 307.456C130.783 307.648 131.359 307.84 131.803 308.032C132.247 308.212 132.625 308.488 132.937 308.86C133.261 309.232 133.429 309.718 133.441 310.318C133.441 310.858 133.291 311.344 132.991 311.776C132.691 312.208 132.265 312.55 131.713 312.802C131.173 313.042 130.549 313.162 129.841 313.162ZM137.391 304.954C137.715 304.39 138.195 303.922 138.831 303.55C139.479 303.166 140.229 302.974 141.081 302.974C141.957 302.974 142.749 303.184 143.457 303.604C144.177 304.024 144.741 304.618 145.149 305.386C145.557 306.142 145.761 307.024 145.761 308.032C145.761 309.028 145.557 309.916 145.149 310.696C144.741 311.476 144.177 312.082 143.457 312.514C142.749 312.946 141.957 313.162 141.081 313.162C140.241 313.162 139.497 312.976 138.849 312.604C138.213 312.22 137.727 311.746 137.391 311.182V317.68H135.753V303.136H137.391V304.954ZM144.087 308.032C144.087 307.288 143.937 306.64 143.637 306.088C143.337 305.536 142.929 305.116 142.413 304.828C141.909 304.54 141.351 304.396 140.739 304.396C140.139 304.396 139.581 304.546 139.065 304.846C138.561 305.134 138.153 305.56 137.841 306.124C137.541 306.676 137.391 307.318 137.391 308.05C137.391 308.794 137.541 309.448 137.841 310.012C138.153 310.564 138.561 310.99 139.065 311.29C139.581 311.578 140.139 311.722 140.739 311.722C141.351 311.722 141.909 311.578 142.413 311.29C142.929 310.99 143.337 310.564 143.637 310.012C143.937 309.448 144.087 308.788 144.087 308.032ZM152.219 313.162C151.295 313.162 150.455 312.952 149.699 312.532C148.955 312.112 148.367 311.518 147.935 310.75C147.515 309.97 147.305 309.07 147.305 308.05C147.305 307.042 147.521 306.154 147.953 305.386C148.397 304.606 148.997 304.012 149.753 303.604C150.509 303.184 151.355 302.974 152.291 302.974C153.227 302.974 154.073 303.184 154.829 303.604C155.585 304.012 156.179 304.6 156.611 305.368C157.055 306.136 157.277 307.03 157.277 308.05C157.277 309.07 157.049 309.97 156.593 310.75C156.149 311.518 155.543 312.112 154.775 312.532C154.007 312.952 153.155 313.162 152.219 313.162ZM152.219 311.722C152.807 311.722 153.359 311.584 153.875 311.308C154.391 311.032 154.805 310.618 155.117 310.066C155.441 309.514 155.603 308.842 155.603 308.05C155.603 307.258 155.447 306.586 155.135 306.034C154.823 305.482 154.415 305.074 153.911 304.81C153.407 304.534 152.861 304.396 152.273 304.396C151.673 304.396 151.121 304.534 150.617 304.81C150.125 305.074 149.729 305.482 149.429 306.034C149.129 306.586 148.979 307.258 148.979 308.05C148.979 308.854 149.123 309.532 149.411 310.084C149.711 310.636 150.107 311.05 150.599 311.326C151.091 311.59 151.631 311.722 152.219 311.722ZM164.237 302.956C165.437 302.956 166.409 303.322 167.153 304.054C167.897 304.774 168.269 305.818 168.269 307.186V313H166.649V307.42C166.649 306.436 166.403 305.686 165.911 305.17C165.419 304.642 164.747 304.378 163.895 304.378C163.031 304.378 162.341 304.648 161.825 305.188C161.321 305.728 161.069 306.514 161.069 307.546V313H159.431V303.136H161.069V304.54C161.393 304.036 161.831 303.646 162.383 303.37C162.947 303.094 163.565 302.956 164.237 302.956ZM174.437 313.162C173.681 313.162 173.003 313.036 172.403 312.784C171.803 312.52 171.329 312.16 170.981 311.704C170.633 311.236 170.441 310.702 170.405 310.102H172.097C172.145 310.594 172.373 310.996 172.781 311.308C173.201 311.62 173.747 311.776 174.419 311.776C175.043 311.776 175.535 311.638 175.895 311.362C176.255 311.086 176.435 310.738 176.435 310.318C176.435 309.886 176.243 309.568 175.859 309.364C175.475 309.148 174.881 308.938 174.077 308.734C173.345 308.542 172.745 308.35 172.277 308.158C171.821 307.954 171.425 307.66 171.089 307.276C170.765 306.88 170.603 306.364 170.603 305.728C170.603 305.224 170.753 304.762 171.053 304.342C171.353 303.922 171.779 303.592 172.331 303.352C172.883 303.1 173.513 302.974 174.221 302.974C175.313 302.974 176.195 303.25 176.867 303.802C177.539 304.354 177.899 305.11 177.947 306.07H176.309C176.273 305.554 176.063 305.14 175.679 304.828C175.307 304.516 174.803 304.36 174.167 304.36C173.579 304.36 173.111 304.486 172.763 304.738C172.415 304.99 172.241 305.32 172.241 305.728C172.241 306.052 172.343 306.322 172.547 306.538C172.763 306.742 173.027 306.91 173.339 307.042C173.663 307.162 174.107 307.3 174.671 307.456C175.379 307.648 175.955 307.84 176.399 308.032C176.843 308.212 177.221 308.488 177.533 308.86C177.857 309.232 178.025 309.718 178.037 310.318C178.037 310.858 177.887 311.344 177.587 311.776C177.287 312.208 176.861 312.55 176.309 312.802C175.769 313.042 175.145 313.162 174.437 313.162ZM181.195 301.534C180.883 301.534 180.619 301.426 180.403 301.21C180.187 300.994 180.079 300.73 180.079 300.418C180.079 300.106 180.187 299.842 180.403 299.626C180.619 299.41 180.883 299.302 181.195 299.302C181.495 299.302 181.747 299.41 181.951 299.626C182.167 299.842 182.275 300.106 182.275 300.418C182.275 300.73 182.167 300.994 181.951 301.21C181.747 301.426 181.495 301.534 181.195 301.534ZM181.987 303.136V313H180.349V303.136H181.987ZM188.451 311.488L191.511 303.136H193.257L189.387 313H187.479L183.609 303.136H185.373L188.451 311.488ZM203.868 307.69C203.868 308.002 203.85 308.332 203.814 308.68H195.93C195.99 309.652 196.32 310.414 196.92 310.966C197.532 311.506 198.27 311.776 199.134 311.776C199.842 311.776 200.43 311.614 200.898 311.29C201.378 310.954 201.714 310.51 201.906 309.958H203.67C203.406 310.906 202.878 311.68 202.086 312.28C201.294 312.868 200.31 313.162 199.134 313.162C198.198 313.162 197.358 312.952 196.614 312.532C195.882 312.112 195.306 311.518 194.886 310.75C194.466 309.97 194.256 309.07 194.256 308.05C194.256 307.03 194.46 306.136 194.868 305.368C195.276 304.6 195.846 304.012 196.578 303.604C197.322 303.184 198.174 302.974 199.134 302.974C200.07 302.974 200.898 303.178 201.618 303.586C202.338 303.994 202.89 304.558 203.274 305.278C203.67 305.986 203.868 306.79 203.868 307.69ZM202.176 307.348C202.176 306.724 202.038 306.19 201.762 305.746C201.486 305.29 201.108 304.948 200.628 304.72C200.16 304.48 199.638 304.36 199.062 304.36C198.234 304.36 197.526 304.624 196.938 305.152C196.362 305.68 196.032 306.412 195.948 307.348H202.176ZM210.217 308.032C210.217 307.024 210.421 306.142 210.829 305.386C211.237 304.618 211.795 304.024 212.503 303.604C213.223 303.184 214.027 302.974 214.915 302.974C215.683 302.974 216.397 303.154 217.057 303.514C217.717 303.862 218.221 304.324 218.569 304.9V299.68H220.225V313H218.569V311.146C218.245 311.734 217.765 312.22 217.129 312.604C216.493 312.976 215.749 313.162 214.897 313.162C214.021 313.162 213.223 312.946 212.503 312.514C211.795 312.082 211.237 311.476 210.829 310.696C210.421 309.916 210.217 309.028 210.217 308.032ZM218.569 308.05C218.569 307.306 218.419 306.658 218.119 306.106C217.819 305.554 217.411 305.134 216.895 304.846C216.391 304.546 215.833 304.396 215.221 304.396C214.609 304.396 214.051 304.54 213.547 304.828C213.043 305.116 212.641 305.536 212.341 306.088C212.041 306.64 211.891 307.288 211.891 308.032C211.891 308.788 212.041 309.448 212.341 310.012C212.641 310.564 213.043 310.99 213.547 311.29C214.051 311.578 214.609 311.722 215.221 311.722C215.833 311.722 216.391 311.578 216.895 311.29C217.411 310.99 217.819 310.564 218.119 310.012C218.419 309.448 218.569 308.794 218.569 308.05ZM231.993 307.69C231.993 308.002 231.975 308.332 231.939 308.68H224.055C224.115 309.652 224.445 310.414 225.045 310.966C225.657 311.506 226.395 311.776 227.259 311.776C227.967 311.776 228.555 311.614 229.023 311.29C229.503 310.954 229.839 310.51 230.031 309.958H231.795C231.531 310.906 231.003 311.68 230.211 312.28C229.419 312.868 228.435 313.162 227.259 313.162C226.323 313.162 225.483 312.952 224.739 312.532C224.007 312.112 223.431 311.518 223.011 310.75C222.591 309.97 222.381 309.07 222.381 308.05C222.381 307.03 222.585 306.136 222.993 305.368C223.401 304.6 223.971 304.012 224.703 303.604C225.447 303.184 226.299 302.974 227.259 302.974C228.195 302.974 229.023 303.178 229.743 303.586C230.463 303.994 231.015 304.558 231.399 305.278C231.795 305.986 231.993 306.79 231.993 307.69ZM230.301 307.348C230.301 306.724 230.163 306.19 229.887 305.746C229.611 305.29 229.233 304.948 228.753 304.72C228.285 304.48 227.763 304.36 227.187 304.36C226.359 304.36 225.651 304.624 225.063 305.152C224.487 305.68 224.157 306.412 224.073 307.348H230.301ZM237.648 313.162C236.892 313.162 236.214 313.036 235.614 312.784C235.014 312.52 234.54 312.16 234.192 311.704C233.844 311.236 233.652 310.702 233.616 310.102H235.308C235.356 310.594 235.584 310.996 235.992 311.308C236.412 311.62 236.958 311.776 237.63 311.776C238.254 311.776 238.746 311.638 239.106 311.362C239.466 311.086 239.646 310.738 239.646 310.318C239.646 309.886 239.454 309.568 239.07 309.364C238.686 309.148 238.092 308.938 237.288 308.734C236.556 308.542 235.956 308.35 235.488 308.158C235.032 307.954 234.636 307.66 234.3 307.276C233.976 306.88 233.814 306.364 233.814 305.728C233.814 305.224 233.964 304.762 234.264 304.342C234.564 303.922 234.99 303.592 235.542 303.352C236.094 303.1 236.724 302.974 237.432 302.974C238.524 302.974 239.406 303.25 240.078 303.802C240.75 304.354 241.11 305.11 241.158 306.07H239.52C239.484 305.554 239.274 305.14 238.89 304.828C238.518 304.516 238.014 304.36 237.378 304.36C236.79 304.36 236.322 304.486 235.974 304.738C235.626 304.99 235.452 305.32 235.452 305.728C235.452 306.052 235.554 306.322 235.758 306.538C235.974 306.742 236.238 306.91 236.55 307.042C236.874 307.162 237.318 307.3 237.882 307.456C238.59 307.648 239.166 307.84 239.61 308.032C240.054 308.212 240.432 308.488 240.744 308.86C241.068 309.232 241.236 309.718 241.248 310.318C241.248 310.858 241.098 311.344 240.798 311.776C240.498 312.208 240.072 312.55 239.52 312.802C238.98 313.042 238.356 313.162 237.648 313.162ZM244.406 301.534C244.094 301.534 243.83 301.426 243.614 301.21C243.398 300.994 243.29 300.73 243.29 300.418C243.29 300.106 243.398 299.842 243.614 299.626C243.83 299.41 244.094 299.302 244.406 299.302C244.706 299.302 244.958 299.41 245.162 299.626C245.378 299.842 245.486 300.106 245.486 300.418C245.486 300.73 245.378 300.994 245.162 301.21C244.958 301.426 244.706 301.534 244.406 301.534ZM245.198 303.136V313H243.56V303.136H245.198ZM252.058 302.974C252.91 302.974 253.654 303.16 254.29 303.532C254.938 303.904 255.418 304.372 255.73 304.936V303.136H257.386V313.216C257.386 314.116 257.194 314.914 256.81 315.61C256.426 316.318 255.874 316.87 255.154 317.266C254.446 317.662 253.618 317.86 252.67 317.86C251.374 317.86 250.294 317.554 249.43 316.942C248.566 316.33 248.056 315.496 247.9 314.44H249.52C249.7 315.04 250.072 315.52 250.636 315.88C251.2 316.252 251.878 316.438 252.67 316.438C253.57 316.438 254.302 316.156 254.866 315.592C255.442 315.028 255.73 314.236 255.73 313.216V311.146C255.406 311.722 254.926 312.202 254.29 312.586C253.654 312.97 252.91 313.162 252.058 313.162C251.182 313.162 250.384 312.946 249.664 312.514C248.956 312.082 248.398 311.476 247.99 310.696C247.582 309.916 247.378 309.028 247.378 308.032C247.378 307.024 247.582 306.142 247.99 305.386C248.398 304.618 248.956 304.024 249.664 303.604C250.384 303.184 251.182 302.974 252.058 302.974ZM255.73 308.05C255.73 307.306 255.58 306.658 255.28 306.106C254.98 305.554 254.572 305.134 254.056 304.846C253.552 304.546 252.994 304.396 252.382 304.396C251.77 304.396 251.212 304.54 250.708 304.828C250.204 305.116 249.802 305.536 249.502 306.088C249.202 306.64 249.052 307.288 249.052 308.032C249.052 308.788 249.202 309.448 249.502 310.012C249.802 310.564 250.204 310.99 250.708 311.29C251.212 311.578 251.77 311.722 252.382 311.722C252.994 311.722 253.552 311.578 254.056 311.29C254.572 310.99 254.98 310.564 255.28 310.012C255.58 309.448 255.73 308.794 255.73 308.05ZM264.96 302.956C266.16 302.956 267.132 303.322 267.876 304.054C268.62 304.774 268.992 305.818 268.992 307.186V313H267.372V307.42C267.372 306.436 267.126 305.686 266.634 305.17C266.142 304.642 265.47 304.378 264.618 304.378C263.754 304.378 263.064 304.648 262.548 305.188C262.044 305.728 261.792 306.514 261.792 307.546V313H260.154V303.136H261.792V304.54C262.116 304.036 262.554 303.646 263.106 303.37C263.67 303.094 264.288 302.956 264.96 302.956ZM275.159 313.162C274.403 313.162 273.725 313.036 273.125 312.784C272.525 312.52 272.051 312.16 271.703 311.704C271.355 311.236 271.163 310.702 271.127 310.102H272.819C272.867 310.594 273.095 310.996 273.503 311.308C273.923 311.62 274.469 311.776 275.141 311.776C275.765 311.776 276.257 311.638 276.617 311.362C276.977 311.086 277.157 310.738 277.157 310.318C277.157 309.886 276.965 309.568 276.581 309.364C276.197 309.148 275.603 308.938 274.799 308.734C274.067 308.542 273.467 308.35 272.999 308.158C272.543 307.954 272.147 307.66 271.811 307.276C271.487 306.88 271.325 306.364 271.325 305.728C271.325 305.224 271.475 304.762 271.775 304.342C272.075 303.922 272.501 303.592 273.053 303.352C273.605 303.1 274.235 302.974 274.943 302.974C276.035 302.974 276.917 303.25 277.589 303.802C278.261 304.354 278.621 305.11 278.669 306.07H277.031C276.995 305.554 276.785 305.14 276.401 304.828C276.029 304.516 275.525 304.36 274.889 304.36C274.301 304.36 273.833 304.486 273.485 304.738C273.137 304.99 272.963 305.32 272.963 305.728C272.963 306.052 273.065 306.322 273.269 306.538C273.485 306.742 273.749 306.91 274.061 307.042C274.385 307.162 274.829 307.3 275.393 307.456C276.101 307.648 276.677 307.84 277.121 308.032C277.565 308.212 277.943 308.488 278.255 308.86C278.579 309.232 278.747 309.718 278.759 310.318C278.759 310.858 278.609 311.344 278.309 311.776C278.009 312.208 277.583 312.55 277.031 312.802C276.491 313.042 275.867 313.162 275.159 313.162ZM287.868 304.486V310.3C287.868 310.78 287.97 311.122 288.174 311.326C288.378 311.518 288.732 311.614 289.236 311.614H290.442V313H288.966C288.054 313 287.37 312.79 286.914 312.37C286.458 311.95 286.23 311.26 286.23 310.3V304.486H284.952V303.136H286.23V300.652H287.868V303.136H290.442V304.486H287.868ZM296.729 313.162C295.805 313.162 294.965 312.952 294.209 312.532C293.465 312.112 292.877 311.518 292.445 310.75C292.025 309.97 291.815 309.07 291.815 308.05C291.815 307.042 292.031 306.154 292.463 305.386C292.907 304.606 293.507 304.012 294.263 303.604C295.019 303.184 295.865 302.974 296.801 302.974C297.737 302.974 298.583 303.184 299.339 303.604C300.095 304.012 300.689 304.6 301.121 305.368C301.565 306.136 301.787 307.03 301.787 308.05C301.787 309.07 301.559 309.97 301.103 310.75C300.659 311.518 300.053 312.112 299.285 312.532C298.517 312.952 297.665 313.162 296.729 313.162ZM296.729 311.722C297.317 311.722 297.869 311.584 298.385 311.308C298.901 311.032 299.315 310.618 299.627 310.066C299.951 309.514 300.113 308.842 300.113 308.05C300.113 307.258 299.957 306.586 299.645 306.034C299.333 305.482 298.925 305.074 298.421 304.81C297.917 304.534 297.371 304.396 296.783 304.396C296.183 304.396 295.631 304.534 295.127 304.81C294.635 305.074 294.239 305.482 293.939 306.034C293.639 306.586 293.489 307.258 293.489 308.05C293.489 308.854 293.633 309.532 293.921 310.084C294.221 310.636 294.617 311.05 295.109 311.326C295.601 311.59 296.141 311.722 296.729 311.722ZM44.7073 331.69C44.7073 332.002 44.6893 332.332 44.6533 332.68H36.7693C36.8293 333.652 37.1593 334.414 37.7593 334.966C38.3713 335.506 39.1093 335.776 39.9733 335.776C40.6813 335.776 41.2693 335.614 41.7373 335.29C42.2173 334.954 42.5533 334.51 42.7453 333.958H44.5093C44.2453 334.906 43.7173 335.68 42.9253 336.28C42.1333 336.868 41.1493 337.162 39.9733 337.162C39.0373 337.162 38.1973 336.952 37.4533 336.532C36.7213 336.112 36.1453 335.518 35.7253 334.75C35.3053 333.97 35.0953 333.07 35.0953 332.05C35.0953 331.03 35.2993 330.136 35.7073 329.368C36.1153 328.6 36.6853 328.012 37.4173 327.604C38.1613 327.184 39.0133 326.974 39.9733 326.974C40.9093 326.974 41.7373 327.178 42.4573 327.586C43.1773 327.994 43.7293 328.558 44.1133 329.278C44.5093 329.986 44.7073 330.79 44.7073 331.69ZM43.0153 331.348C43.0153 330.724 42.8773 330.19 42.6013 329.746C42.3253 329.29 41.9473 328.948 41.4673 328.72C40.9993 328.48 40.4773 328.36 39.9013 328.36C39.0733 328.36 38.3653 328.624 37.7773 329.152C37.2013 329.68 36.8713 330.412 36.7873 331.348H43.0153ZM51.6754 326.956C52.8754 326.956 53.8474 327.322 54.5914 328.054C55.3354 328.774 55.7074 329.818 55.7074 331.186V337H54.0874V331.42C54.0874 330.436 53.8414 329.686 53.3494 329.17C52.8574 328.642 52.1854 328.378 51.3334 328.378C50.4694 328.378 49.7794 328.648 49.2634 329.188C48.7594 329.728 48.5074 330.514 48.5074 331.546V337H46.8694V327.136H48.5074V328.54C48.8314 328.036 49.2694 327.646 49.8214 327.37C50.3854 327.094 51.0034 326.956 51.6754 326.956ZM63.2791 326.956C64.0231 326.956 64.6951 327.118 65.2951 327.442C65.8951 327.754 66.3631 328.228 66.6991 328.864C67.0471 329.5 67.2211 330.274 67.2211 331.186V337H65.6011V331.42C65.6011 330.436 65.3551 329.686 64.8631 329.17C64.3711 328.642 63.6991 328.378 62.8471 328.378C61.9831 328.378 61.2931 328.648 60.7771 329.188C60.2731 329.728 60.0211 330.514 60.0211 331.546V337H58.3831V323.68H60.0211V328.54C60.3451 328.036 60.7891 327.646 61.3531 327.37C61.9291 327.094 62.5711 326.956 63.2791 326.956ZM69.2847 332.032C69.2847 331.024 69.4887 330.142 69.8967 329.386C70.3047 328.618 70.8627 328.024 71.5707 327.604C72.2907 327.184 73.0887 326.974 73.9647 326.974C74.8287 326.974 75.5787 327.16 76.2147 327.532C76.8507 327.904 77.3247 328.372 77.6367 328.936V327.136H79.2927V337H77.6367V335.164C77.3127 335.74 76.8267 336.22 76.1787 336.604C75.5427 336.976 74.7987 337.162 73.9467 337.162C73.0707 337.162 72.2787 336.946 71.5707 336.514C70.8627 336.082 70.3047 335.476 69.8967 334.696C69.4887 333.916 69.2847 333.028 69.2847 332.032ZM77.6367 332.05C77.6367 331.306 77.4867 330.658 77.1867 330.106C76.8867 329.554 76.4787 329.134 75.9627 328.846C75.4587 328.546 74.9007 328.396 74.2887 328.396C73.6767 328.396 73.1187 328.54 72.6147 328.828C72.1107 329.116 71.7087 329.536 71.4087 330.088C71.1087 330.64 70.9587 331.288 70.9587 332.032C70.9587 332.788 71.1087 333.448 71.4087 334.012C71.7087 334.564 72.1107 334.99 72.6147 335.29C73.1187 335.578 73.6767 335.722 74.2887 335.722C74.9007 335.722 75.4587 335.578 75.9627 335.29C76.4787 334.99 76.8867 334.564 77.1867 334.012C77.4867 333.448 77.6367 332.794 77.6367 332.05ZM86.8668 326.956C88.0668 326.956 89.0388 327.322 89.7828 328.054C90.5268 328.774 90.8988 329.818 90.8988 331.186V337H89.2788V331.42C89.2788 330.436 89.0328 329.686 88.5408 329.17C88.0488 328.642 87.3768 328.378 86.5248 328.378C85.6608 328.378 84.9708 328.648 84.4548 329.188C83.9508 329.728 83.6988 330.514 83.6988 331.546V337H82.0608V327.136H83.6988V328.54C84.0228 328.036 84.4608 327.646 85.0128 327.37C85.5768 327.094 86.1948 326.956 86.8668 326.956ZM92.9625 332.05C92.9625 331.03 93.1665 330.142 93.5745 329.386C93.9825 328.618 94.5465 328.024 95.2665 327.604C95.9985 327.184 96.8325 326.974 97.7685 326.974C98.9805 326.974 99.9765 327.268 100.756 327.856C101.548 328.444 102.07 329.26 102.322 330.304H100.558C100.39 329.704 100.06 329.23 99.5685 328.882C99.0885 328.534 98.4885 328.36 97.7685 328.36C96.8325 328.36 96.0765 328.684 95.5005 329.332C94.9245 329.968 94.6365 330.874 94.6365 332.05C94.6365 333.238 94.9245 334.156 95.5005 334.804C96.0765 335.452 96.8325 335.776 97.7685 335.776C98.4885 335.776 99.0885 335.608 99.5685 335.272C100.048 334.936 100.378 334.456 100.558 333.832H102.322C102.058 334.84 101.53 335.65 100.738 336.262C99.9465 336.862 98.9565 337.162 97.7685 337.162C96.8325 337.162 95.9985 336.952 95.2665 336.532C94.5465 336.112 93.9825 335.518 93.5745 334.75C93.1665 333.982 92.9625 333.082 92.9625 332.05ZM113.508 331.69C113.508 332.002 113.49 332.332 113.454 332.68H105.57C105.63 333.652 105.96 334.414 106.56 334.966C107.172 335.506 107.91 335.776 108.774 335.776C109.482 335.776 110.07 335.614 110.538 335.29C111.018 334.954 111.354 334.51 111.546 333.958H113.31C113.046 334.906 112.518 335.68 111.726 336.28C110.934 336.868 109.95 337.162 108.774 337.162C107.838 337.162 106.998 336.952 106.254 336.532C105.522 336.112 104.946 335.518 104.526 334.75C104.106 333.97 103.896 333.07 103.896 332.05C103.896 331.03 104.1 330.136 104.508 329.368C104.916 328.6 105.486 328.012 106.218 327.604C106.962 327.184 107.814 326.974 108.774 326.974C109.71 326.974 110.538 327.178 111.258 327.586C111.978 327.994 112.53 328.558 112.914 329.278C113.31 329.986 113.508 330.79 113.508 331.69ZM111.816 331.348C111.816 330.724 111.678 330.19 111.402 329.746C111.126 329.29 110.748 328.948 110.268 328.72C109.8 328.48 109.278 328.36 108.702 328.36C107.874 328.36 107.166 328.624 106.578 329.152C106.002 329.68 105.672 330.412 105.588 331.348H111.816ZM133.609 327.136L130.531 337H128.839L126.463 329.17L124.087 337H122.395L119.299 327.136H120.973L123.241 335.416L125.689 327.136H127.363L129.757 335.434L131.989 327.136H133.609ZM144.235 331.69C144.235 332.002 144.217 332.332 144.181 332.68H136.297C136.357 333.652 136.687 334.414 137.287 334.966C137.899 335.506 138.637 335.776 139.501 335.776C140.209 335.776 140.797 335.614 141.265 335.29C141.745 334.954 142.081 334.51 142.273 333.958H144.037C143.773 334.906 143.245 335.68 142.453 336.28C141.661 336.868 140.677 337.162 139.501 337.162C138.565 337.162 137.725 336.952 136.981 336.532C136.249 336.112 135.673 335.518 135.253 334.75C134.833 333.97 134.623 333.07 134.623 332.05C134.623 331.03 134.827 330.136 135.235 329.368C135.643 328.6 136.213 328.012 136.945 327.604C137.689 327.184 138.541 326.974 139.501 326.974C140.437 326.974 141.265 327.178 141.985 327.586C142.705 327.994 143.257 328.558 143.641 329.278C144.037 329.986 144.235 330.79 144.235 331.69ZM142.543 331.348C142.543 330.724 142.405 330.19 142.129 329.746C141.853 329.29 141.475 328.948 140.995 328.72C140.527 328.48 140.005 328.36 139.429 328.36C138.601 328.36 137.893 328.624 137.305 329.152C136.729 329.68 136.399 330.412 136.315 331.348H142.543ZM148.035 328.972C148.371 328.384 148.863 327.904 149.511 327.532C150.159 327.16 150.897 326.974 151.725 326.974C152.613 326.974 153.411 327.184 154.119 327.604C154.827 328.024 155.385 328.618 155.793 329.386C156.201 330.142 156.405 331.024 156.405 332.032C156.405 333.028 156.201 333.916 155.793 334.696C155.385 335.476 154.821 336.082 154.101 336.514C153.393 336.946 152.601 337.162 151.725 337.162C150.873 337.162 150.123 336.976 149.475 336.604C148.839 336.232 148.359 335.758 148.035 335.182V337H146.397V323.68H148.035V328.972ZM154.731 332.032C154.731 331.288 154.581 330.64 154.281 330.088C153.981 329.536 153.573 329.116 153.057 328.828C152.553 328.54 151.995 328.396 151.383 328.396C150.783 328.396 150.225 328.546 149.709 328.846C149.205 329.134 148.797 329.56 148.485 330.124C148.185 330.676 148.035 331.318 148.035 332.05C148.035 332.794 148.185 333.448 148.485 334.012C148.797 334.564 149.205 334.99 149.709 335.29C150.225 335.578 150.783 335.722 151.383 335.722C151.995 335.722 152.553 335.578 153.057 335.29C153.573 334.99 153.981 334.564 154.281 334.012C154.581 333.448 154.731 332.788 154.731 332.032ZM172.108 327.136V337H170.47V335.542C170.158 336.046 169.72 336.442 169.156 336.73C168.604 337.006 167.992 337.144 167.32 337.144C166.552 337.144 165.862 336.988 165.25 336.676C164.638 336.352 164.152 335.872 163.792 335.236C163.444 334.6 163.27 333.826 163.27 332.914V327.136H164.89V332.698C164.89 333.67 165.136 334.42 165.628 334.948C166.12 335.464 166.792 335.722 167.644 335.722C168.52 335.722 169.21 335.452 169.714 334.912C170.218 334.372 170.47 333.586 170.47 332.554V327.136H172.108ZM178.365 337.162C177.609 337.162 176.931 337.036 176.331 336.784C175.731 336.52 175.257 336.16 174.909 335.704C174.561 335.236 174.369 334.702 174.333 334.102H176.025C176.073 334.594 176.301 334.996 176.709 335.308C177.129 335.62 177.675 335.776 178.347 335.776C178.971 335.776 179.463 335.638 179.823 335.362C180.183 335.086 180.363 334.738 180.363 334.318C180.363 333.886 180.171 333.568 179.787 333.364C179.403 333.148 178.809 332.938 178.005 332.734C177.273 332.542 176.673 332.35 176.205 332.158C175.749 331.954 175.353 331.66 175.017 331.276C174.693 330.88 174.531 330.364 174.531 329.728C174.531 329.224 174.681 328.762 174.981 328.342C175.281 327.922 175.707 327.592 176.259 327.352C176.811 327.1 177.441 326.974 178.149 326.974C179.241 326.974 180.123 327.25 180.795 327.802C181.467 328.354 181.827 329.11 181.875 330.07H180.237C180.201 329.554 179.991 329.14 179.607 328.828C179.235 328.516 178.731 328.36 178.095 328.36C177.507 328.36 177.039 328.486 176.691 328.738C176.343 328.99 176.169 329.32 176.169 329.728C176.169 330.052 176.271 330.322 176.475 330.538C176.691 330.742 176.955 330.91 177.267 331.042C177.591 331.162 178.035 331.3 178.599 331.456C179.307 331.648 179.883 331.84 180.327 332.032C180.771 332.212 181.149 332.488 181.461 332.86C181.785 333.232 181.953 333.718 181.965 334.318C181.965 334.858 181.815 335.344 181.515 335.776C181.215 336.208 180.789 336.55 180.237 336.802C179.697 337.042 179.073 337.162 178.365 337.162ZM183.666 332.032C183.666 331.024 183.87 330.142 184.278 329.386C184.686 328.618 185.244 328.024 185.952 327.604C186.672 327.184 187.47 326.974 188.346 326.974C189.21 326.974 189.96 327.16 190.596 327.532C191.232 327.904 191.706 328.372 192.018 328.936V327.136H193.674V337H192.018V335.164C191.694 335.74 191.208 336.22 190.56 336.604C189.924 336.976 189.18 337.162 188.328 337.162C187.452 337.162 186.66 336.946 185.952 336.514C185.244 336.082 184.686 335.476 184.278 334.696C183.87 333.916 183.666 333.028 183.666 332.032ZM192.018 332.05C192.018 331.306 191.868 330.658 191.568 330.106C191.268 329.554 190.86 329.134 190.344 328.846C189.84 328.546 189.282 328.396 188.67 328.396C188.058 328.396 187.5 328.54 186.996 328.828C186.492 329.116 186.09 329.536 185.79 330.088C185.49 330.64 185.34 331.288 185.34 332.032C185.34 332.788 185.49 333.448 185.79 334.012C186.09 334.564 186.492 334.99 186.996 335.29C187.5 335.578 188.058 335.722 188.67 335.722C189.282 335.722 189.84 335.578 190.344 335.29C190.86 334.99 191.268 334.564 191.568 334.012C191.868 333.448 192.018 332.794 192.018 332.05ZM198.08 328.972C198.416 328.384 198.908 327.904 199.556 327.532C200.204 327.16 200.942 326.974 201.77 326.974C202.658 326.974 203.456 327.184 204.164 327.604C204.872 328.024 205.43 328.618 205.838 329.386C206.246 330.142 206.45 331.024 206.45 332.032C206.45 333.028 206.246 333.916 205.838 334.696C205.43 335.476 204.866 336.082 204.146 336.514C203.438 336.946 202.646 337.162 201.77 337.162C200.918 337.162 200.168 336.976 199.52 336.604C198.884 336.232 198.404 335.758 198.08 335.182V337H196.442V323.68H198.08V328.972ZM204.776 332.032C204.776 331.288 204.626 330.64 204.326 330.088C204.026 329.536 203.618 329.116 203.102 328.828C202.598 328.54 202.04 328.396 201.428 328.396C200.828 328.396 200.27 328.546 199.754 328.846C199.25 329.134 198.842 329.56 198.53 330.124C198.23 330.676 198.08 331.318 198.08 332.05C198.08 332.794 198.23 333.448 198.53 334.012C198.842 334.564 199.25 334.99 199.754 335.29C200.27 335.578 200.828 335.722 201.428 335.722C202.04 335.722 202.598 335.578 203.102 335.29C203.618 334.99 204.026 334.564 204.326 334.012C204.626 333.448 204.776 332.788 204.776 332.032ZM209.452 325.534C209.14 325.534 208.876 325.426 208.66 325.21C208.444 324.994 208.336 324.73 208.336 324.418C208.336 324.106 208.444 323.842 208.66 323.626C208.876 323.41 209.14 323.302 209.452 323.302C209.752 323.302 210.004 323.41 210.208 323.626C210.424 323.842 210.532 324.106 210.532 324.418C210.532 324.73 210.424 324.994 210.208 325.21C210.004 325.426 209.752 325.534 209.452 325.534ZM210.244 327.136V337H208.606V327.136H210.244ZM214.673 323.68V337H213.035V323.68H214.673ZM218.311 325.534C217.999 325.534 217.735 325.426 217.519 325.21C217.303 324.994 217.195 324.73 217.195 324.418C217.195 324.106 217.303 323.842 217.519 323.626C217.735 323.41 217.999 323.302 218.311 323.302C218.611 323.302 218.863 323.41 219.067 323.626C219.283 323.842 219.391 324.106 219.391 324.418C219.391 324.73 219.283 324.994 219.067 325.21C218.863 325.426 218.611 325.534 218.311 325.534ZM219.103 327.136V337H217.465V327.136H219.103ZM223.893 328.486V334.3C223.893 334.78 223.995 335.122 224.199 335.326C224.403 335.518 224.757 335.614 225.261 335.614H226.467V337H224.991C224.079 337 223.395 336.79 222.939 336.37C222.483 335.95 222.255 335.26 222.255 334.3V328.486H220.977V327.136H222.255V324.652H223.893V327.136H226.467V328.486H223.893ZM236.947 327.136L231.007 341.644H229.315L231.259 336.892L227.281 327.136H229.099L232.195 335.128L235.255 327.136H236.947ZM242.781 332.032C242.781 331.024 242.985 330.142 243.393 329.386C243.801 328.618 244.359 328.024 245.067 327.604C245.787 327.184 246.585 326.974 247.461 326.974C248.325 326.974 249.075 327.16 249.711 327.532C250.347 327.904 250.821 328.372 251.133 328.936V327.136H252.789V337H251.133V335.164C250.809 335.74 250.323 336.22 249.675 336.604C249.039 336.976 248.295 337.162 247.443 337.162C246.567 337.162 245.775 336.946 245.067 336.514C244.359 336.082 243.801 335.476 243.393 334.696C242.985 333.916 242.781 333.028 242.781 332.032ZM251.133 332.05C251.133 331.306 250.983 330.658 250.683 330.106C250.383 329.554 249.975 329.134 249.459 328.846C248.955 328.546 248.397 328.396 247.785 328.396C247.173 328.396 246.615 328.54 246.111 328.828C245.607 329.116 245.205 329.536 244.905 330.088C244.605 330.64 244.455 331.288 244.455 332.032C244.455 332.788 244.605 333.448 244.905 334.012C245.205 334.564 245.607 334.99 246.111 335.29C246.615 335.578 247.173 335.722 247.785 335.722C248.397 335.722 248.955 335.578 249.459 335.29C249.975 334.99 250.383 334.564 250.683 334.012C250.983 333.448 251.133 332.794 251.133 332.05ZM260.363 326.956C261.563 326.956 262.535 327.322 263.279 328.054C264.023 328.774 264.395 329.818 264.395 331.186V337H262.775V331.42C262.775 330.436 262.529 329.686 262.037 329.17C261.545 328.642 260.873 328.378 260.021 328.378C259.157 328.378 258.467 328.648 257.951 329.188C257.447 329.728 257.195 330.514 257.195 331.546V337H255.557V327.136H257.195V328.54C257.519 328.036 257.957 327.646 258.509 327.37C259.073 327.094 259.691 326.956 260.363 326.956ZM266.459 332.032C266.459 331.024 266.663 330.142 267.071 329.386C267.479 328.618 268.037 328.024 268.745 327.604C269.465 327.184 270.269 326.974 271.157 326.974C271.925 326.974 272.639 327.154 273.299 327.514C273.959 327.862 274.463 328.324 274.811 328.9V323.68H276.467V337H274.811V335.146C274.487 335.734 274.007 336.22 273.371 336.604C272.735 336.976 271.991 337.162 271.139 337.162C270.263 337.162 269.465 336.946 268.745 336.514C268.037 336.082 267.479 335.476 267.071 334.696C266.663 333.916 266.459 333.028 266.459 332.032ZM274.811 332.05C274.811 331.306 274.661 330.658 274.361 330.106C274.061 329.554 273.653 329.134 273.137 328.846C272.633 328.546 272.075 328.396 271.463 328.396C270.851 328.396 270.293 328.54 269.789 328.828C269.285 329.116 268.883 329.536 268.583 330.088C268.283 330.64 268.133 331.288 268.133 332.032C268.133 332.788 268.283 333.448 268.583 334.012C268.883 334.564 269.285 334.99 269.789 335.29C270.293 335.578 270.851 335.722 271.463 335.722C272.075 335.722 272.633 335.578 273.137 335.29C273.653 334.99 274.061 334.564 274.361 334.012C274.661 333.448 274.811 332.794 274.811 332.05ZM287.705 335.488L290.765 327.136H292.511L288.641 337H286.733L282.863 327.136H284.627L287.705 335.488ZM294.969 325.534C294.657 325.534 294.393 325.426 294.177 325.21C293.961 324.994 293.853 324.73 293.853 324.418C293.853 324.106 293.961 323.842 294.177 323.626C294.393 323.41 294.657 323.302 294.969 323.302C295.269 323.302 295.521 323.41 295.725 323.626C295.941 323.842 296.049 324.106 296.049 324.418C296.049 324.73 295.941 324.994 295.725 325.21C295.521 325.426 295.269 325.534 294.969 325.534ZM295.761 327.136V337H294.123V327.136H295.761ZM302.045 337.162C301.289 337.162 300.611 337.036 300.011 336.784C299.411 336.52 298.937 336.16 298.589 335.704C298.241 335.236 298.049 334.702 298.013 334.102H299.705C299.753 334.594 299.981 334.996 300.389 335.308C300.809 335.62 301.355 335.776 302.027 335.776C302.651 335.776 303.143 335.638 303.503 335.362C303.863 335.086 304.043 334.738 304.043 334.318C304.043 333.886 303.851 333.568 303.467 333.364C303.083 333.148 302.489 332.938 301.685 332.734C300.953 332.542 300.353 332.35 299.885 332.158C299.429 331.954 299.033 331.66 298.697 331.276C298.373 330.88 298.211 330.364 298.211 329.728C298.211 329.224 298.361 328.762 298.661 328.342C298.961 327.922 299.387 327.592 299.939 327.352C300.491 327.1 301.121 326.974 301.829 326.974C302.921 326.974 303.803 327.25 304.475 327.802C305.147 328.354 305.507 329.11 305.555 330.07H303.917C303.881 329.554 303.671 329.14 303.287 328.828C302.915 328.516 302.411 328.36 301.775 328.36C301.187 328.36 300.719 328.486 300.371 328.738C300.023 328.99 299.849 329.32 299.849 329.728C299.849 330.052 299.951 330.322 300.155 330.538C300.371 330.742 300.635 330.91 300.947 331.042C301.271 331.162 301.715 331.3 302.279 331.456C302.987 331.648 303.563 331.84 304.007 332.032C304.451 332.212 304.829 332.488 305.141 332.86C305.465 333.232 305.633 333.718 305.645 334.318C305.645 334.858 305.495 335.344 305.195 335.776C304.895 336.208 304.469 336.55 303.917 336.802C303.377 337.042 302.753 337.162 302.045 337.162ZM316.705 327.136V337H315.067V335.542C314.755 336.046 314.317 336.442 313.753 336.73C313.201 337.006 312.589 337.144 311.917 337.144C311.149 337.144 310.459 336.988 309.847 336.676C309.235 336.352 308.749 335.872 308.389 335.236C308.041 334.6 307.867 333.826 307.867 332.914V327.136H309.487V332.698C309.487 333.67 309.733 334.42 310.225 334.948C310.717 335.464 311.389 335.722 312.241 335.722C313.117 335.722 313.807 335.452 314.311 334.912C314.815 334.372 315.067 333.586 315.067 332.554V327.136H316.705ZM318.859 332.032C318.859 331.024 319.063 330.142 319.471 329.386C319.879 328.618 320.437 328.024 321.145 327.604C321.865 327.184 322.663 326.974 323.539 326.974C324.403 326.974 325.153 327.16 325.789 327.532C326.425 327.904 326.899 328.372 327.211 328.936V327.136H328.867V337H327.211V335.164C326.887 335.74 326.401 336.22 325.753 336.604C325.117 336.976 324.373 337.162 323.521 337.162C322.645 337.162 321.853 336.946 321.145 336.514C320.437 336.082 319.879 335.476 319.471 334.696C319.063 333.916 318.859 333.028 318.859 332.032ZM327.211 332.05C327.211 331.306 327.061 330.658 326.761 330.106C326.461 329.554 326.053 329.134 325.537 328.846C325.033 328.546 324.475 328.396 323.863 328.396C323.251 328.396 322.693 328.54 322.189 328.828C321.685 329.116 321.283 329.536 320.983 330.088C320.683 330.64 320.533 331.288 320.533 332.032C320.533 332.788 320.683 333.448 320.983 334.012C321.283 334.564 321.685 334.99 322.189 335.29C322.693 335.578 323.251 335.722 323.863 335.722C324.475 335.722 325.033 335.578 325.537 335.29C326.053 334.99 326.461 334.564 326.761 334.012C327.061 333.448 327.211 332.794 327.211 332.05ZM333.273 323.68V337H331.635V323.68H333.273ZM151.26 356.032C151.26 355.024 151.464 354.142 151.872 353.386C152.28 352.618 152.838 352.024 153.546 351.604C154.266 351.184 155.064 350.974 155.94 350.974C156.804 350.974 157.554 351.16 158.19 351.532C158.826 351.904 159.3 352.372 159.612 352.936V351.136H161.268V361H159.612V359.164C159.288 359.74 158.802 360.22 158.154 360.604C157.518 360.976 156.774 361.162 155.922 361.162C155.046 361.162 154.254 360.946 153.546 360.514C152.838 360.082 152.28 359.476 151.872 358.696C151.464 357.916 151.26 357.028 151.26 356.032ZM159.612 356.05C159.612 355.306 159.462 354.658 159.162 354.106C158.862 353.554 158.454 353.134 157.938 352.846C157.434 352.546 156.876 352.396 156.264 352.396C155.652 352.396 155.094 352.54 154.59 352.828C154.086 353.116 153.684 353.536 153.384 354.088C153.084 354.64 152.934 355.288 152.934 356.032C152.934 356.788 153.084 357.448 153.384 358.012C153.684 358.564 154.086 358.99 154.59 359.29C155.094 359.578 155.652 359.722 156.264 359.722C156.876 359.722 157.434 359.578 157.938 359.29C158.454 358.99 158.862 358.564 159.162 358.012C159.462 357.448 159.612 356.794 159.612 356.05ZM165.674 352.954C165.998 352.39 166.478 351.922 167.114 351.55C167.762 351.166 168.512 350.974 169.364 350.974C170.24 350.974 171.032 351.184 171.74 351.604C172.46 352.024 173.024 352.618 173.432 353.386C173.84 354.142 174.044 355.024 174.044 356.032C174.044 357.028 173.84 357.916 173.432 358.696C173.024 359.476 172.46 360.082 171.74 360.514C171.032 360.946 170.24 361.162 169.364 361.162C168.524 361.162 167.78 360.976 167.132 360.604C166.496 360.22 166.01 359.746 165.674 359.182V365.68H164.036V351.136H165.674V352.954ZM172.37 356.032C172.37 355.288 172.22 354.64 171.92 354.088C171.62 353.536 171.212 353.116 170.696 352.828C170.192 352.54 169.634 352.396 169.022 352.396C168.422 352.396 167.864 352.546 167.348 352.846C166.844 353.134 166.436 353.56 166.124 354.124C165.824 354.676 165.674 355.318 165.674 356.05C165.674 356.794 165.824 357.448 166.124 358.012C166.436 358.564 166.844 358.99 167.348 359.29C167.864 359.578 168.422 359.722 169.022 359.722C169.634 359.722 170.192 359.578 170.696 359.29C171.212 358.99 171.62 358.564 171.92 358.012C172.22 357.448 172.37 356.788 172.37 356.032ZM177.838 352.954C178.162 352.39 178.642 351.922 179.278 351.55C179.926 351.166 180.676 350.974 181.528 350.974C182.404 350.974 183.196 351.184 183.904 351.604C184.624 352.024 185.188 352.618 185.596 353.386C186.004 354.142 186.208 355.024 186.208 356.032C186.208 357.028 186.004 357.916 185.596 358.696C185.188 359.476 184.624 360.082 183.904 360.514C183.196 360.946 182.404 361.162 181.528 361.162C180.688 361.162 179.944 360.976 179.296 360.604C178.66 360.22 178.174 359.746 177.838 359.182V365.68H176.2V351.136H177.838V352.954ZM184.534 356.032C184.534 355.288 184.384 354.64 184.084 354.088C183.784 353.536 183.376 353.116 182.86 352.828C182.356 352.54 181.798 352.396 181.186 352.396C180.586 352.396 180.028 352.546 179.512 352.846C179.008 353.134 178.6 353.56 178.288 354.124C177.988 354.676 177.838 355.318 177.838 356.05C177.838 356.794 177.988 357.448 178.288 358.012C178.6 358.564 179.008 358.99 179.512 359.29C180.028 359.578 180.586 359.722 181.186 359.722C181.798 359.722 182.356 359.578 182.86 359.29C183.376 358.99 183.784 358.564 184.084 358.012C184.384 357.448 184.534 356.788 184.534 356.032ZM197.365 355.69C197.365 356.002 197.347 356.332 197.311 356.68H189.427C189.487 357.652 189.817 358.414 190.417 358.966C191.029 359.506 191.767 359.776 192.631 359.776C193.339 359.776 193.927 359.614 194.395 359.29C194.875 358.954 195.211 358.51 195.403 357.958H197.167C196.903 358.906 196.375 359.68 195.583 360.28C194.791 360.868 193.807 361.162 192.631 361.162C191.695 361.162 190.855 360.952 190.111 360.532C189.379 360.112 188.803 359.518 188.383 358.75C187.963 357.97 187.753 357.07 187.753 356.05C187.753 355.03 187.957 354.136 188.365 353.368C188.773 352.6 189.343 352.012 190.075 351.604C190.819 351.184 191.671 350.974 192.631 350.974C193.567 350.974 194.395 351.178 195.115 351.586C195.835 351.994 196.387 352.558 196.771 353.278C197.167 353.986 197.365 354.79 197.365 355.69ZM195.673 355.348C195.673 354.724 195.535 354.19 195.259 353.746C194.983 353.29 194.605 352.948 194.125 352.72C193.657 352.48 193.135 352.36 192.559 352.36C191.731 352.36 191.023 352.624 190.435 353.152C189.859 353.68 189.529 354.412 189.445 355.348H195.673ZM198.915 356.032C198.915 355.024 199.119 354.142 199.527 353.386C199.935 352.618 200.493 352.024 201.201 351.604C201.921 351.184 202.719 350.974 203.595 350.974C204.459 350.974 205.209 351.16 205.845 351.532C206.481 351.904 206.955 352.372 207.267 352.936V351.136H208.923V361H207.267V359.164C206.943 359.74 206.457 360.22 205.809 360.604C205.173 360.976 204.429 361.162 203.577 361.162C202.701 361.162 201.909 360.946 201.201 360.514C200.493 360.082 199.935 359.476 199.527 358.696C199.119 357.916 198.915 357.028 198.915 356.032ZM207.267 356.05C207.267 355.306 207.117 354.658 206.817 354.106C206.517 353.554 206.109 353.134 205.593 352.846C205.089 352.546 204.531 352.396 203.919 352.396C203.307 352.396 202.749 352.54 202.245 352.828C201.741 353.116 201.339 353.536 201.039 354.088C200.739 354.64 200.589 355.288 200.589 356.032C200.589 356.788 200.739 357.448 201.039 358.012C201.339 358.564 201.741 358.99 202.245 359.29C202.749 359.578 203.307 359.722 203.919 359.722C204.531 359.722 205.089 359.578 205.593 359.29C206.109 358.99 206.517 358.564 206.817 358.012C207.117 357.448 207.267 356.794 207.267 356.05ZM213.329 347.68V361H211.691V347.68H213.329ZM216.642 361.108C216.33 361.108 216.066 361 215.85 360.784C215.634 360.568 215.526 360.304 215.526 359.992C215.526 359.68 215.634 359.416 215.85 359.2C216.066 358.984 216.33 358.876 216.642 358.876C216.942 358.876 217.194 358.984 217.398 359.2C217.614 359.416 217.722 359.68 217.722 359.992C217.722 360.304 217.614 360.568 217.398 360.784C217.194 361 216.942 361.108 216.642 361.108Z" fill="black"/>
<path fill-rule="evenodd" clip-rule="evenodd" d="M140.8 24L149.089 117.891L185 128L220.911 117.891L229.2 24H140.8ZM211.4 54.4304L184.969 66.25L184.901 66.276H210.47L207.542 101.438L185.005 108.318L184.969 108.302V108.318L162.307 101.308L160.851 83.6024H172.094L172.822 92.7752L184.865 95.9524L184.969 95.9212V95.9368L197.433 92.2656L198.286 77.4872L184.969 77.4456L160.113 77.3624L159.265 66.276L184.969 55.0804L186.466 54.4304H158.293L156.946 43.0944H212.498L211.4 54.4304Z" fill="black"/>
</svg>
