<svg width="369" height="421" viewBox="0 0 369 421" fill="none" xmlns="http://www.w3.org/2000/svg">
<rect width="369" height="421" rx="20" fill="white" fill-opacity="0.6"/>
<path d="M160.764 198.57V223H155.864V212.605H145.399V223H140.499V198.57H145.399V208.615H155.864V198.57H160.764ZM182.212 198.57V202.525H175.702V223H170.802V202.525H164.292V198.57H182.212ZM212.422 198.57V223H207.522V207.11L200.977 223H197.267L190.687 207.11V223H185.787V198.57H191.352L199.122 216.735L206.892 198.57H212.422ZM222.167 219.115H230.217V223H217.267V198.57H222.167V219.115Z" fill="#5D18B0"/>
<path d="M38.9294 301.126C38.1014 301.126 37.3574 300.982 36.6974 300.694C36.0494 300.394 35.5394 299.986 35.1674 299.47C34.7954 298.942 34.6034 298.336 34.5914 297.652H36.3374C36.3974 298.24 36.6374 298.738 37.0574 299.146C37.4894 299.542 38.1134 299.74 38.9294 299.74C39.7094 299.74 40.3214 299.548 40.7654 299.164C41.2214 298.768 41.4494 298.264 41.4494 297.652C41.4494 297.172 41.3174 296.782 41.0534 296.482C40.7894 296.182 40.4594 295.954 40.0634 295.798C39.6674 295.642 39.1334 295.474 38.4614 295.294C37.6334 295.078 36.9674 294.862 36.4634 294.646C35.9714 294.43 35.5454 294.094 35.1854 293.638C34.8374 293.17 34.6634 292.546 34.6634 291.766C34.6634 291.082 34.8374 290.476 35.1854 289.948C35.5334 289.42 36.0194 289.012 36.6434 288.724C37.2794 288.436 38.0054 288.292 38.8214 288.292C39.9974 288.292 40.9574 288.586 41.7014 289.174C42.4574 289.762 42.8834 290.542 42.9794 291.514H41.1794C41.1194 291.034 40.8674 290.614 40.4234 290.254C39.9794 289.882 39.3914 289.696 38.6594 289.696C37.9754 289.696 37.4174 289.876 36.9854 290.236C36.5534 290.584 36.3374 291.076 36.3374 291.712C36.3374 292.168 36.4634 292.54 36.7154 292.828C36.9794 293.116 37.2974 293.338 37.6694 293.494C38.0534 293.638 38.5874 293.806 39.2714 293.998C40.0994 294.226 40.7654 294.454 41.2694 294.682C41.7734 294.898 42.2054 295.24 42.5654 295.708C42.9254 296.164 43.1054 296.788 43.1054 297.58C43.1054 298.192 42.9434 298.768 42.6194 299.308C42.2954 299.848 41.8154 300.286 41.1794 300.622C40.5434 300.958 39.7934 301.126 38.9294 301.126ZM51.0239 301L47.1539 296.644V301H45.5159V287.68H47.1539V295.51L50.9519 291.136H53.2379L48.5939 296.05L53.2559 301H51.0239ZM55.6256 289.534C55.3136 289.534 55.0496 289.426 54.8336 289.21C54.6176 288.994 54.5096 288.73 54.5096 288.418C54.5096 288.106 54.6176 287.842 54.8336 287.626C55.0496 287.41 55.3136 287.302 55.6256 287.302C55.9256 287.302 56.1776 287.41 56.3816 287.626C56.5976 287.842 56.7056 288.106 56.7056 288.418C56.7056 288.73 56.5976 288.994 56.3816 289.21C56.1776 289.426 55.9256 289.534 55.6256 289.534ZM56.4176 291.136V301H54.7796V291.136H56.4176ZM60.8472 287.68V301H59.2092V287.68H60.8472ZM65.2769 287.68V301H63.6389V287.68H65.2769ZM77.0686 295.69C77.0686 296.002 77.0506 296.332 77.0146 296.68H69.1306C69.1906 297.652 69.5206 298.414 70.1206 298.966C70.7326 299.506 71.4706 299.776 72.3346 299.776C73.0426 299.776 73.6306 299.614 74.0986 299.29C74.5786 298.954 74.9146 298.51 75.1066 297.958H76.8706C76.6066 298.906 76.0786 299.68 75.2866 300.28C74.4946 300.868 73.5106 301.162 72.3346 301.162C71.3986 301.162 70.5586 300.952 69.8146 300.532C69.0826 300.112 68.5066 299.518 68.0866 298.75C67.6666 297.97 67.4566 297.07 67.4566 296.05C67.4566 295.03 67.6606 294.136 68.0686 293.368C68.4766 292.6 69.0466 292.012 69.7786 291.604C70.5226 291.184 71.3746 290.974 72.3346 290.974C73.2706 290.974 74.0986 291.178 74.8186 291.586C75.5386 291.994 76.0906 292.558 76.4746 293.278C76.8706 293.986 77.0686 294.79 77.0686 295.69ZM75.3766 295.348C75.3766 294.724 75.2386 294.19 74.9626 293.746C74.6866 293.29 74.3086 292.948 73.8286 292.72C73.3606 292.48 72.8386 292.36 72.2626 292.36C71.4346 292.36 70.7266 292.624 70.1386 293.152C69.5626 293.68 69.2326 294.412 69.1486 295.348H75.3766ZM78.6187 296.032C78.6187 295.024 78.8227 294.142 79.2307 293.386C79.6387 292.618 80.1967 292.024 80.9047 291.604C81.6247 291.184 82.4287 290.974 83.3167 290.974C84.0847 290.974 84.7987 291.154 85.4587 291.514C86.1187 291.862 86.6227 292.324 86.9707 292.9V287.68H88.6267V301H86.9707V299.146C86.6467 299.734 86.1667 300.22 85.5307 300.604C84.8947 300.976 84.1507 301.162 83.2987 301.162C82.4227 301.162 81.6247 300.946 80.9047 300.514C80.1967 300.082 79.6387 299.476 79.2307 298.696C78.8227 297.916 78.6187 297.028 78.6187 296.032ZM86.9707 296.05C86.9707 295.306 86.8207 294.658 86.5207 294.106C86.2207 293.554 85.8127 293.134 85.2967 292.846C84.7927 292.546 84.2347 292.396 83.6227 292.396C83.0107 292.396 82.4527 292.54 81.9487 292.828C81.4447 293.116 81.0427 293.536 80.7427 294.088C80.4427 294.64 80.2927 295.288 80.2927 296.032C80.2927 296.788 80.4427 297.448 80.7427 298.012C81.0427 298.564 81.4447 298.99 81.9487 299.29C82.4527 299.578 83.0107 299.722 83.6227 299.722C84.2347 299.722 84.7927 299.578 85.2967 299.29C85.8127 298.99 86.2207 298.564 86.5207 298.012C86.8207 297.448 86.9707 296.794 86.9707 296.05ZM97.0396 289.534C96.7276 289.534 96.4636 289.426 96.2476 289.21C96.0316 288.994 95.9236 288.73 95.9236 288.418C95.9236 288.106 96.0316 287.842 96.2476 287.626C96.4636 287.41 96.7276 287.302 97.0396 287.302C97.3396 287.302 97.5916 287.41 97.7956 287.626C98.0116 287.842 98.1196 288.106 98.1196 288.418C98.1196 288.73 98.0116 288.994 97.7956 289.21C97.5916 289.426 97.3396 289.534 97.0396 289.534ZM97.8316 291.136V301H96.1936V291.136H97.8316ZM105.429 290.956C106.629 290.956 107.601 291.322 108.345 292.054C109.089 292.774 109.461 293.818 109.461 295.186V301H107.841V295.42C107.841 294.436 107.595 293.686 107.103 293.17C106.611 292.642 105.939 292.378 105.087 292.378C104.223 292.378 103.533 292.648 103.017 293.188C102.513 293.728 102.261 294.514 102.261 295.546V301H100.623V291.136H102.261V292.54C102.585 292.036 103.023 291.646 103.575 291.37C104.139 291.094 104.757 290.956 105.429 290.956ZM126.602 288.454V301H124.964V295.312H118.574V301H116.936V288.454H118.574V293.962H124.964V288.454H126.602ZM137.121 288.454V289.786H133.701V301H132.063V289.786H128.625V288.454H137.121ZM151.863 288.544V301H150.225V291.712L146.085 301H144.933L140.775 291.694V301H139.137V288.544H140.901L145.509 298.84L150.117 288.544H151.863ZM156.279 299.668H160.671V301H154.641V288.454H156.279V299.668ZM164.102 298.732L162.086 303.574H160.988L162.302 298.732H164.102ZM170.166 296.05C170.166 295.03 170.37 294.142 170.778 293.386C171.186 292.618 171.75 292.024 172.47 291.604C173.202 291.184 174.036 290.974 174.972 290.974C176.184 290.974 177.18 291.268 177.96 291.856C178.752 292.444 179.274 293.26 179.526 294.304H177.762C177.594 293.704 177.264 293.23 176.772 292.882C176.292 292.534 175.692 292.36 174.972 292.36C174.036 292.36 173.28 292.684 172.704 293.332C172.128 293.968 171.84 294.874 171.84 296.05C171.84 297.238 172.128 298.156 172.704 298.804C173.28 299.452 174.036 299.776 174.972 299.776C175.692 299.776 176.292 299.608 176.772 299.272C177.252 298.936 177.582 298.456 177.762 297.832H179.526C179.262 298.84 178.734 299.65 177.942 300.262C177.15 300.862 176.16 301.162 174.972 301.162C174.036 301.162 173.202 300.952 172.47 300.532C171.75 300.112 171.186 299.518 170.778 298.75C170.37 297.982 170.166 297.082 170.166 296.05ZM183.349 292.738C183.637 292.174 184.045 291.736 184.573 291.424C185.113 291.112 185.767 290.956 186.535 290.956V292.648H186.103C184.267 292.648 183.349 293.644 183.349 295.636V301H181.711V291.136H183.349V292.738ZM187.814 296.032C187.814 295.024 188.018 294.142 188.426 293.386C188.834 292.618 189.392 292.024 190.1 291.604C190.82 291.184 191.618 290.974 192.494 290.974C193.358 290.974 194.108 291.16 194.744 291.532C195.38 291.904 195.854 292.372 196.166 292.936V291.136H197.822V301H196.166V299.164C195.842 299.74 195.356 300.22 194.708 300.604C194.072 300.976 193.328 301.162 192.476 301.162C191.6 301.162 190.808 300.946 190.1 300.514C189.392 300.082 188.834 299.476 188.426 298.696C188.018 297.916 187.814 297.028 187.814 296.032ZM196.166 296.05C196.166 295.306 196.016 294.658 195.716 294.106C195.416 293.554 195.008 293.134 194.492 292.846C193.988 292.546 193.43 292.396 192.818 292.396C192.206 292.396 191.648 292.54 191.144 292.828C190.64 293.116 190.238 293.536 189.938 294.088C189.638 294.64 189.488 295.288 189.488 296.032C189.488 296.788 189.638 297.448 189.938 298.012C190.238 298.564 190.64 298.99 191.144 299.29C191.648 299.578 192.206 299.722 192.818 299.722C193.43 299.722 193.988 299.578 194.492 299.29C195.008 298.99 195.416 298.564 195.716 298.012C196.016 297.448 196.166 296.794 196.166 296.05ZM204.604 292.486H202.534V301H200.896V292.486H199.618V291.136H200.896V290.434C200.896 289.33 201.178 288.526 201.742 288.022C202.318 287.506 203.236 287.248 204.496 287.248V288.616C203.776 288.616 203.266 288.76 202.966 289.048C202.678 289.324 202.534 289.786 202.534 290.434V291.136H204.604V292.486ZM208.512 292.486V298.3C208.512 298.78 208.614 299.122 208.818 299.326C209.022 299.518 209.376 299.614 209.88 299.614H211.086V301H209.61C208.698 301 208.014 300.79 207.558 300.37C207.102 299.95 206.874 299.26 206.874 298.3V292.486H205.596V291.136H206.874V288.652H208.512V291.136H211.086V292.486H208.512ZM213.917 289.534C213.605 289.534 213.341 289.426 213.125 289.21C212.909 288.994 212.801 288.73 212.801 288.418C212.801 288.106 212.909 287.842 213.125 287.626C213.341 287.41 213.605 287.302 213.917 287.302C214.217 287.302 214.469 287.41 214.673 287.626C214.889 287.842 214.997 288.106 214.997 288.418C214.997 288.73 214.889 288.994 214.673 289.21C214.469 289.426 214.217 289.534 213.917 289.534ZM214.709 291.136V301H213.071V291.136H214.709ZM222.306 290.956C223.506 290.956 224.478 291.322 225.222 292.054C225.966 292.774 226.338 293.818 226.338 295.186V301H224.718V295.42C224.718 294.436 224.472 293.686 223.98 293.17C223.488 292.642 222.816 292.378 221.964 292.378C221.1 292.378 220.41 292.648 219.894 293.188C219.39 293.728 219.138 294.514 219.138 295.546V301H217.5V291.136H219.138V292.54C219.462 292.036 219.9 291.646 220.452 291.37C221.016 291.094 221.634 290.956 222.306 290.956ZM233.082 290.974C233.934 290.974 234.678 291.16 235.314 291.532C235.962 291.904 236.442 292.372 236.754 292.936V291.136H238.41V301.216C238.41 302.116 238.218 302.914 237.834 303.61C237.45 304.318 236.898 304.87 236.178 305.266C235.47 305.662 234.642 305.86 233.694 305.86C232.398 305.86 231.318 305.554 230.454 304.942C229.59 304.33 229.08 303.496 228.924 302.44H230.544C230.724 303.04 231.096 303.52 231.66 303.88C232.224 304.252 232.902 304.438 233.694 304.438C234.594 304.438 235.326 304.156 235.89 303.592C236.466 303.028 236.754 302.236 236.754 301.216V299.146C236.43 299.722 235.95 300.202 235.314 300.586C234.678 300.97 233.934 301.162 233.082 301.162C232.206 301.162 231.408 300.946 230.688 300.514C229.98 300.082 229.422 299.476 229.014 298.696C228.606 297.916 228.402 297.028 228.402 296.032C228.402 295.024 228.606 294.142 229.014 293.386C229.422 292.618 229.98 292.024 230.688 291.604C231.408 291.184 232.206 290.974 233.082 290.974ZM236.754 296.05C236.754 295.306 236.604 294.658 236.304 294.106C236.004 293.554 235.596 293.134 235.08 292.846C234.576 292.546 234.018 292.396 233.406 292.396C232.794 292.396 232.236 292.54 231.732 292.828C231.228 293.116 230.826 293.536 230.526 294.088C230.226 294.64 230.076 295.288 230.076 296.032C230.076 296.788 230.226 297.448 230.526 298.012C230.826 298.564 231.228 298.99 231.732 299.29C232.236 299.578 232.794 299.722 233.406 299.722C234.018 299.722 234.576 299.578 235.08 299.29C235.596 298.99 236.004 298.564 236.304 298.012C236.604 297.448 236.754 296.794 236.754 296.05ZM245.365 296.05C245.365 295.03 245.569 294.142 245.977 293.386C246.385 292.618 246.949 292.024 247.669 291.604C248.401 291.184 249.235 290.974 250.171 290.974C251.383 290.974 252.379 291.268 253.159 291.856C253.951 292.444 254.473 293.26 254.725 294.304H252.961C252.793 293.704 252.463 293.23 251.971 292.882C251.491 292.534 250.891 292.36 250.171 292.36C249.235 292.36 248.479 292.684 247.903 293.332C247.327 293.968 247.039 294.874 247.039 296.05C247.039 297.238 247.327 298.156 247.903 298.804C248.479 299.452 249.235 299.776 250.171 299.776C250.891 299.776 251.491 299.608 251.971 299.272C252.451 298.936 252.781 298.456 252.961 297.832H254.725C254.461 298.84 253.933 299.65 253.141 300.262C252.349 300.862 251.359 301.162 250.171 301.162C249.235 301.162 248.401 300.952 247.669 300.532C246.949 300.112 246.385 299.518 245.977 298.75C245.569 297.982 245.365 297.082 245.365 296.05ZM258.548 287.68V301H256.91V287.68H258.548ZM270.34 295.69C270.34 296.002 270.322 296.332 270.286 296.68H262.402C262.462 297.652 262.792 298.414 263.392 298.966C264.004 299.506 264.742 299.776 265.606 299.776C266.314 299.776 266.902 299.614 267.37 299.29C267.85 298.954 268.186 298.51 268.378 297.958H270.142C269.878 298.906 269.35 299.68 268.558 300.28C267.766 300.868 266.782 301.162 265.606 301.162C264.67 301.162 263.83 300.952 263.086 300.532C262.354 300.112 261.778 299.518 261.358 298.75C260.938 297.97 260.728 297.07 260.728 296.05C260.728 295.03 260.932 294.136 261.34 293.368C261.748 292.6 262.318 292.012 263.05 291.604C263.794 291.184 264.646 290.974 265.606 290.974C266.542 290.974 267.37 291.178 268.09 291.586C268.81 291.994 269.362 292.558 269.746 293.278C270.142 293.986 270.34 294.79 270.34 295.69ZM268.648 295.348C268.648 294.724 268.51 294.19 268.234 293.746C267.958 293.29 267.58 292.948 267.1 292.72C266.632 292.48 266.11 292.36 265.534 292.36C264.706 292.36 263.998 292.624 263.41 293.152C262.834 293.68 262.504 294.412 262.42 295.348H268.648ZM271.89 296.032C271.89 295.024 272.094 294.142 272.502 293.386C272.91 292.618 273.468 292.024 274.176 291.604C274.896 291.184 275.694 290.974 276.57 290.974C277.434 290.974 278.184 291.16 278.82 291.532C279.456 291.904 279.93 292.372 280.242 292.936V291.136H281.898V301H280.242V299.164C279.918 299.74 279.432 300.22 278.784 300.604C278.148 300.976 277.404 301.162 276.552 301.162C275.676 301.162 274.884 300.946 274.176 300.514C273.468 300.082 272.91 299.476 272.502 298.696C272.094 297.916 271.89 297.028 271.89 296.032ZM280.242 296.05C280.242 295.306 280.092 294.658 279.792 294.106C279.492 293.554 279.084 293.134 278.568 292.846C278.064 292.546 277.506 292.396 276.894 292.396C276.282 292.396 275.724 292.54 275.22 292.828C274.716 293.116 274.314 293.536 274.014 294.088C273.714 294.64 273.564 295.288 273.564 296.032C273.564 296.788 273.714 297.448 274.014 298.012C274.314 298.564 274.716 298.99 275.22 299.29C275.724 299.578 276.282 299.722 276.894 299.722C277.506 299.722 278.064 299.578 278.568 299.29C279.084 298.99 279.492 298.564 279.792 298.012C280.092 297.448 280.242 296.794 280.242 296.05ZM289.472 290.956C290.672 290.956 291.644 291.322 292.388 292.054C293.132 292.774 293.504 293.818 293.504 295.186V301H291.884V295.42C291.884 294.436 291.638 293.686 291.146 293.17C290.654 292.642 289.982 292.378 289.13 292.378C288.266 292.378 287.576 292.648 287.06 293.188C286.556 293.728 286.304 294.514 286.304 295.546V301H284.666V291.136H286.304V292.54C286.628 292.036 287.066 291.646 287.618 291.37C288.182 291.094 288.8 290.956 289.472 290.956ZM300.367 296.032C300.367 295.024 300.571 294.142 300.979 293.386C301.387 292.618 301.945 292.024 302.653 291.604C303.373 291.184 304.171 290.974 305.047 290.974C305.911 290.974 306.661 291.16 307.297 291.532C307.933 291.904 308.407 292.372 308.719 292.936V291.136H310.375V301H308.719V299.164C308.395 299.74 307.909 300.22 307.261 300.604C306.625 300.976 305.881 301.162 305.029 301.162C304.153 301.162 303.361 300.946 302.653 300.514C301.945 300.082 301.387 299.476 300.979 298.696C300.571 297.916 300.367 297.028 300.367 296.032ZM308.719 296.05C308.719 295.306 308.569 294.658 308.269 294.106C307.969 293.554 307.561 293.134 307.045 292.846C306.541 292.546 305.983 292.396 305.371 292.396C304.759 292.396 304.201 292.54 303.697 292.828C303.193 293.116 302.791 293.536 302.491 294.088C302.191 294.64 302.041 295.288 302.041 296.032C302.041 296.788 302.191 297.448 302.491 298.012C302.791 298.564 303.193 298.99 303.697 299.29C304.201 299.578 304.759 299.722 305.371 299.722C305.983 299.722 306.541 299.578 307.045 299.29C307.561 298.99 307.969 298.564 308.269 298.012C308.569 297.448 308.719 296.794 308.719 296.05ZM317.949 290.956C319.149 290.956 320.121 291.322 320.865 292.054C321.609 292.774 321.981 293.818 321.981 295.186V301H320.361V295.42C320.361 294.436 320.115 293.686 319.623 293.17C319.131 292.642 318.459 292.378 317.607 292.378C316.743 292.378 316.053 292.648 315.537 293.188C315.033 293.728 314.781 294.514 314.781 295.546V301H313.143V291.136H314.781V292.54C315.105 292.036 315.543 291.646 316.095 291.37C316.659 291.094 317.277 290.956 317.949 290.956ZM324.045 296.032C324.045 295.024 324.249 294.142 324.657 293.386C325.065 292.618 325.623 292.024 326.331 291.604C327.051 291.184 327.855 290.974 328.743 290.974C329.511 290.974 330.225 291.154 330.885 291.514C331.545 291.862 332.049 292.324 332.397 292.9V287.68H334.053V301H332.397V299.146C332.073 299.734 331.593 300.22 330.957 300.604C330.321 300.976 329.577 301.162 328.725 301.162C327.849 301.162 327.051 300.946 326.331 300.514C325.623 300.082 325.065 299.476 324.657 298.696C324.249 297.916 324.045 297.028 324.045 296.032ZM332.397 296.05C332.397 295.306 332.247 294.658 331.947 294.106C331.647 293.554 331.239 293.134 330.723 292.846C330.219 292.546 329.661 292.396 329.049 292.396C328.437 292.396 327.879 292.54 327.375 292.828C326.871 293.116 326.469 293.536 326.169 294.088C325.869 294.64 325.719 295.288 325.719 296.032C325.719 296.788 325.869 297.448 326.169 298.012C326.469 298.564 326.871 298.99 327.375 299.29C327.879 299.578 328.437 299.722 329.049 299.722C329.661 299.722 330.219 299.578 330.723 299.29C331.239 298.99 331.647 298.564 331.947 298.012C332.247 297.448 332.397 296.794 332.397 296.05ZM37.9073 325.162C37.1513 325.162 36.4733 325.036 35.8733 324.784C35.2733 324.52 34.7993 324.16 34.4513 323.704C34.1033 323.236 33.9113 322.702 33.8753 322.102H35.5673C35.6153 322.594 35.8433 322.996 36.2513 323.308C36.6713 323.62 37.2173 323.776 37.8893 323.776C38.5133 323.776 39.0053 323.638 39.3653 323.362C39.7253 323.086 39.9053 322.738 39.9053 322.318C39.9053 321.886 39.7133 321.568 39.3293 321.364C38.9453 321.148 38.3513 320.938 37.5473 320.734C36.8153 320.542 36.2153 320.35 35.7473 320.158C35.2913 319.954 34.8953 319.66 34.5593 319.276C34.2353 318.88 34.0733 318.364 34.0733 317.728C34.0733 317.224 34.2233 316.762 34.5233 316.342C34.8233 315.922 35.2493 315.592 35.8013 315.352C36.3533 315.1 36.9833 314.974 37.6913 314.974C38.7833 314.974 39.6653 315.25 40.3373 315.802C41.0093 316.354 41.3693 317.11 41.4173 318.07H39.7793C39.7433 317.554 39.5333 317.14 39.1493 316.828C38.7773 316.516 38.2733 316.36 37.6373 316.36C37.0493 316.36 36.5813 316.486 36.2333 316.738C35.8853 316.99 35.7113 317.32 35.7113 317.728C35.7113 318.052 35.8133 318.322 36.0173 318.538C36.2333 318.742 36.4973 318.91 36.8093 319.042C37.1333 319.162 37.5773 319.3 38.1413 319.456C38.8493 319.648 39.4253 319.84 39.8693 320.032C40.3133 320.212 40.6913 320.488 41.0033 320.86C41.3273 321.232 41.4953 321.718 41.5073 322.318C41.5073 322.858 41.3573 323.344 41.0573 323.776C40.7573 324.208 40.3313 324.55 39.7793 324.802C39.2393 325.042 38.6153 325.162 37.9073 325.162ZM52.8196 319.69C52.8196 320.002 52.8016 320.332 52.7656 320.68H44.8816C44.9416 321.652 45.2716 322.414 45.8716 322.966C46.4836 323.506 47.2216 323.776 48.0856 323.776C48.7936 323.776 49.3816 323.614 49.8496 323.29C50.3296 322.954 50.6656 322.51 50.8576 321.958H52.6216C52.3576 322.906 51.8296 323.68 51.0376 324.28C50.2456 324.868 49.2616 325.162 48.0856 325.162C47.1496 325.162 46.3096 324.952 45.5656 324.532C44.8336 324.112 44.2576 323.518 43.8376 322.75C43.4176 321.97 43.2076 321.07 43.2076 320.05C43.2076 319.03 43.4116 318.136 43.8196 317.368C44.2276 316.6 44.7976 316.012 45.5296 315.604C46.2736 315.184 47.1256 314.974 48.0856 314.974C49.0216 314.974 49.8496 315.178 50.5696 315.586C51.2896 315.994 51.8416 316.558 52.2256 317.278C52.6216 317.986 52.8196 318.79 52.8196 319.69ZM51.1276 319.348C51.1276 318.724 50.9896 318.19 50.7136 317.746C50.4376 317.29 50.0596 316.948 49.5796 316.72C49.1116 316.48 48.5896 316.36 48.0136 316.36C47.1856 316.36 46.4776 316.624 45.8896 317.152C45.3136 317.68 44.9836 318.412 44.8996 319.348H51.1276ZM66.8437 314.956C67.6117 314.956 68.2957 315.118 68.8957 315.442C69.4957 315.754 69.9697 316.228 70.3177 316.864C70.6657 317.5 70.8397 318.274 70.8397 319.186V325H69.2197V319.42C69.2197 318.436 68.9737 317.686 68.4817 317.17C68.0017 316.642 67.3477 316.378 66.5197 316.378C65.6677 316.378 64.9897 316.654 64.4857 317.206C63.9817 317.746 63.7297 318.532 63.7297 319.564V325H62.1097V319.42C62.1097 318.436 61.8637 317.686 61.3717 317.17C60.8917 316.642 60.2377 316.378 59.4097 316.378C58.5577 316.378 57.8797 316.654 57.3757 317.206C56.8717 317.746 56.6197 318.532 56.6197 319.564V325H54.9817V315.136H56.6197V316.558C56.9437 316.042 57.3757 315.646 57.9157 315.37C58.4677 315.094 59.0737 314.956 59.7337 314.956C60.5617 314.956 61.2937 315.142 61.9297 315.514C62.5657 315.886 63.0397 316.432 63.3517 317.152C63.6277 316.456 64.0837 315.916 64.7197 315.532C65.3557 315.148 66.0637 314.956 66.8437 314.956ZM72.9146 320.032C72.9146 319.024 73.1186 318.142 73.5266 317.386C73.9346 316.618 74.4926 316.024 75.2006 315.604C75.9206 315.184 76.7186 314.974 77.5946 314.974C78.4586 314.974 79.2086 315.16 79.8446 315.532C80.4806 315.904 80.9546 316.372 81.2666 316.936V315.136H82.9226V325H81.2666V323.164C80.9426 323.74 80.4566 324.22 79.8086 324.604C79.1726 324.976 78.4286 325.162 77.5766 325.162C76.7006 325.162 75.9086 324.946 75.2006 324.514C74.4926 324.082 73.9346 323.476 73.5266 322.696C73.1186 321.916 72.9146 321.028 72.9146 320.032ZM81.2666 320.05C81.2666 319.306 81.1166 318.658 80.8166 318.106C80.5166 317.554 80.1086 317.134 79.5926 316.846C79.0886 316.546 78.5306 316.396 77.9186 316.396C77.3066 316.396 76.7486 316.54 76.2446 316.828C75.7406 317.116 75.3386 317.536 75.0386 318.088C74.7386 318.64 74.5886 319.288 74.5886 320.032C74.5886 320.788 74.7386 321.448 75.0386 322.012C75.3386 322.564 75.7406 322.99 76.2446 323.29C76.7486 323.578 77.3066 323.722 77.9186 323.722C78.5306 323.722 79.0886 323.578 79.5926 323.29C80.1086 322.99 80.5166 322.564 80.8166 322.012C81.1166 321.448 81.2666 320.794 81.2666 320.05ZM90.4967 314.956C91.6967 314.956 92.6687 315.322 93.4127 316.054C94.1567 316.774 94.5287 317.818 94.5287 319.186V325H92.9087V319.42C92.9087 318.436 92.6627 317.686 92.1707 317.17C91.6787 316.642 91.0067 316.378 90.1547 316.378C89.2907 316.378 88.6007 316.648 88.0847 317.188C87.5807 317.728 87.3287 318.514 87.3287 319.546V325H85.6907V315.136H87.3287V316.54C87.6527 316.036 88.0907 315.646 88.6427 315.37C89.2067 315.094 89.8247 314.956 90.4967 314.956ZM99.2024 316.486V322.3C99.2024 322.78 99.3044 323.122 99.5084 323.326C99.7124 323.518 100.066 323.614 100.57 323.614H101.776V325H100.3C99.3884 325 98.7044 324.79 98.2484 324.37C97.7924 323.95 97.5644 323.26 97.5644 322.3V316.486H96.2864V315.136H97.5644V312.652H99.2024V315.136H101.776V316.486H99.2024ZM104.607 313.534C104.295 313.534 104.031 313.426 103.815 313.21C103.599 312.994 103.491 312.73 103.491 312.418C103.491 312.106 103.599 311.842 103.815 311.626C104.031 311.41 104.295 311.302 104.607 311.302C104.907 311.302 105.159 311.41 105.363 311.626C105.579 311.842 105.687 312.106 105.687 312.418C105.687 312.73 105.579 312.994 105.363 313.21C105.159 313.426 104.907 313.534 104.607 313.534ZM105.399 315.136V325H103.761V315.136H105.399ZM107.579 320.05C107.579 319.03 107.783 318.142 108.191 317.386C108.599 316.618 109.163 316.024 109.883 315.604C110.615 315.184 111.449 314.974 112.385 314.974C113.597 314.974 114.593 315.268 115.373 315.856C116.165 316.444 116.687 317.26 116.939 318.304H115.175C115.007 317.704 114.677 317.23 114.185 316.882C113.705 316.534 113.105 316.36 112.385 316.36C111.449 316.36 110.693 316.684 110.117 317.332C109.541 317.968 109.253 318.874 109.253 320.05C109.253 321.238 109.541 322.156 110.117 322.804C110.693 323.452 111.449 323.776 112.385 323.776C113.105 323.776 113.705 323.608 114.185 323.272C114.665 322.936 114.995 322.456 115.175 321.832H116.939C116.675 322.84 116.147 323.65 115.355 324.262C114.563 324.862 113.573 325.162 112.385 325.162C111.449 325.162 110.615 324.952 109.883 324.532C109.163 324.112 108.599 323.518 108.191 322.75C107.783 321.982 107.579 321.082 107.579 320.05ZM123.311 320.05C123.311 319.03 123.515 318.142 123.923 317.386C124.331 316.618 124.895 316.024 125.615 315.604C126.347 315.184 127.181 314.974 128.117 314.974C129.329 314.974 130.325 315.268 131.105 315.856C131.897 316.444 132.419 317.26 132.671 318.304H130.907C130.739 317.704 130.409 317.23 129.917 316.882C129.437 316.534 128.837 316.36 128.117 316.36C127.181 316.36 126.425 316.684 125.849 317.332C125.273 317.968 124.985 318.874 124.985 320.05C124.985 321.238 125.273 322.156 125.849 322.804C126.425 323.452 127.181 323.776 128.117 323.776C128.837 323.776 129.437 323.608 129.917 323.272C130.397 322.936 130.727 322.456 130.907 321.832H132.671C132.407 322.84 131.879 323.65 131.087 324.262C130.295 324.862 129.305 325.162 128.117 325.162C127.181 325.162 126.347 324.952 125.615 324.532C124.895 324.112 124.331 323.518 123.923 322.75C123.515 321.982 123.311 321.082 123.311 320.05ZM139.159 325.162C138.235 325.162 137.395 324.952 136.639 324.532C135.895 324.112 135.307 323.518 134.875 322.75C134.455 321.97 134.245 321.07 134.245 320.05C134.245 319.042 134.461 318.154 134.893 317.386C135.337 316.606 135.937 316.012 136.693 315.604C137.449 315.184 138.295 314.974 139.231 314.974C140.167 314.974 141.013 315.184 141.769 315.604C142.525 316.012 143.119 316.6 143.551 317.368C143.995 318.136 144.217 319.03 144.217 320.05C144.217 321.07 143.989 321.97 143.533 322.75C143.089 323.518 142.483 324.112 141.715 324.532C140.947 324.952 140.095 325.162 139.159 325.162ZM139.159 323.722C139.747 323.722 140.299 323.584 140.815 323.308C141.331 323.032 141.745 322.618 142.057 322.066C142.381 321.514 142.543 320.842 142.543 320.05C142.543 319.258 142.387 318.586 142.075 318.034C141.763 317.482 141.355 317.074 140.851 316.81C140.347 316.534 139.801 316.396 139.213 316.396C138.613 316.396 138.061 316.534 137.557 316.81C137.065 317.074 136.669 317.482 136.369 318.034C136.069 318.586 135.919 319.258 135.919 320.05C135.919 320.854 136.063 321.532 136.351 322.084C136.651 322.636 137.047 323.05 137.539 323.326C138.031 323.59 138.571 323.722 139.159 323.722ZM145.758 320.032C145.758 319.024 145.962 318.142 146.37 317.386C146.778 316.618 147.336 316.024 148.044 315.604C148.764 315.184 149.568 314.974 150.456 314.974C151.224 314.974 151.938 315.154 152.598 315.514C153.258 315.862 153.762 316.324 154.11 316.9V311.68H155.766V325H154.11V323.146C153.786 323.734 153.306 324.22 152.67 324.604C152.034 324.976 151.29 325.162 150.438 325.162C149.562 325.162 148.764 324.946 148.044 324.514C147.336 324.082 146.778 323.476 146.37 322.696C145.962 321.916 145.758 321.028 145.758 320.032ZM154.11 320.05C154.11 319.306 153.96 318.658 153.66 318.106C153.36 317.554 152.952 317.134 152.436 316.846C151.932 316.546 151.374 316.396 150.762 316.396C150.15 316.396 149.592 316.54 149.088 316.828C148.584 317.116 148.182 317.536 147.882 318.088C147.582 318.64 147.432 319.288 147.432 320.032C147.432 320.788 147.582 321.448 147.882 322.012C148.182 322.564 148.584 322.99 149.088 323.29C149.592 323.578 150.15 323.722 150.762 323.722C151.374 323.722 151.932 323.578 152.436 323.29C152.952 322.99 153.36 322.564 153.66 322.012C153.96 321.448 154.11 320.794 154.11 320.05ZM167.534 319.69C167.534 320.002 167.516 320.332 167.48 320.68H159.596C159.656 321.652 159.986 322.414 160.586 322.966C161.198 323.506 161.936 323.776 162.8 323.776C163.508 323.776 164.096 323.614 164.564 323.29C165.044 322.954 165.38 322.51 165.572 321.958H167.336C167.072 322.906 166.544 323.68 165.752 324.28C164.96 324.868 163.976 325.162 162.8 325.162C161.864 325.162 161.024 324.952 160.28 324.532C159.548 324.112 158.972 323.518 158.552 322.75C158.132 321.97 157.922 321.07 157.922 320.05C157.922 319.03 158.126 318.136 158.534 317.368C158.942 316.6 159.512 316.012 160.244 315.604C160.988 315.184 161.84 314.974 162.8 314.974C163.736 314.974 164.564 315.178 165.284 315.586C166.004 315.994 166.556 316.558 166.94 317.278C167.336 317.986 167.534 318.79 167.534 319.69ZM165.842 319.348C165.842 318.724 165.704 318.19 165.428 317.746C165.152 317.29 164.774 316.948 164.294 316.72C163.826 316.48 163.304 316.36 162.728 316.36C161.9 316.36 161.192 316.624 160.604 317.152C160.028 317.68 159.698 318.412 159.614 319.348H165.842ZM176.493 316.486V322.3C176.493 322.78 176.595 323.122 176.799 323.326C177.003 323.518 177.357 323.614 177.861 323.614H179.067V325H177.591C176.679 325 175.995 324.79 175.539 324.37C175.083 323.95 174.855 323.26 174.855 322.3V316.486H173.577V315.136H174.855V312.652H176.493V315.136H179.067V316.486H176.493ZM185.354 325.162C184.43 325.162 183.59 324.952 182.834 324.532C182.09 324.112 181.502 323.518 181.07 322.75C180.65 321.97 180.44 321.07 180.44 320.05C180.44 319.042 180.656 318.154 181.088 317.386C181.532 316.606 182.132 316.012 182.888 315.604C183.644 315.184 184.49 314.974 185.426 314.974C186.362 314.974 187.208 315.184 187.964 315.604C188.72 316.012 189.314 316.6 189.746 317.368C190.19 318.136 190.412 319.03 190.412 320.05C190.412 321.07 190.184 321.97 189.728 322.75C189.284 323.518 188.678 324.112 187.91 324.532C187.142 324.952 186.29 325.162 185.354 325.162ZM185.354 323.722C185.942 323.722 186.494 323.584 187.01 323.308C187.526 323.032 187.94 322.618 188.252 322.066C188.576 321.514 188.738 320.842 188.738 320.05C188.738 319.258 188.582 318.586 188.27 318.034C187.958 317.482 187.55 317.074 187.046 316.81C186.542 316.534 185.996 316.396 185.408 316.396C184.808 316.396 184.256 316.534 183.752 316.81C183.26 317.074 182.864 317.482 182.564 318.034C182.264 318.586 182.114 319.258 182.114 320.05C182.114 320.854 182.258 321.532 182.546 322.084C182.846 322.636 183.242 323.05 183.734 323.326C184.226 323.59 184.766 323.722 185.354 323.722ZM199.003 316.972C199.339 316.384 199.831 315.904 200.479 315.532C201.127 315.16 201.865 314.974 202.693 314.974C203.581 314.974 204.379 315.184 205.087 315.604C205.795 316.024 206.353 316.618 206.761 317.386C207.169 318.142 207.373 319.024 207.373 320.032C207.373 321.028 207.169 321.916 206.761 322.696C206.353 323.476 205.789 324.082 205.069 324.514C204.361 324.946 203.569 325.162 202.693 325.162C201.841 325.162 201.091 324.976 200.443 324.604C199.807 324.232 199.327 323.758 199.003 323.182V325H197.365V311.68H199.003V316.972ZM205.699 320.032C205.699 319.288 205.549 318.64 205.249 318.088C204.949 317.536 204.541 317.116 204.025 316.828C203.521 316.54 202.963 316.396 202.351 316.396C201.751 316.396 201.193 316.546 200.677 316.846C200.173 317.134 199.765 317.56 199.453 318.124C199.153 318.676 199.003 319.318 199.003 320.05C199.003 320.794 199.153 321.448 199.453 322.012C199.765 322.564 200.173 322.99 200.677 323.29C201.193 323.578 201.751 323.722 202.351 323.722C202.963 323.722 203.521 323.578 204.025 323.29C204.541 322.99 204.949 322.564 205.249 322.012C205.549 321.448 205.699 320.788 205.699 320.032ZM218.277 315.136V325H216.639V323.542C216.327 324.046 215.889 324.442 215.325 324.73C214.773 325.006 214.161 325.144 213.489 325.144C212.721 325.144 212.031 324.988 211.419 324.676C210.807 324.352 210.321 323.872 209.961 323.236C209.613 322.6 209.439 321.826 209.439 320.914V315.136H211.059V320.698C211.059 321.67 211.305 322.42 211.797 322.948C212.289 323.464 212.961 323.722 213.813 323.722C214.689 323.722 215.379 323.452 215.883 322.912C216.387 322.372 216.639 321.586 216.639 320.554V315.136H218.277ZM221.888 313.534C221.576 313.534 221.312 313.426 221.096 313.21C220.88 312.994 220.772 312.73 220.772 312.418C220.772 312.106 220.88 311.842 221.096 311.626C221.312 311.41 221.576 311.302 221.888 311.302C222.188 311.302 222.44 311.41 222.644 311.626C222.86 311.842 222.968 312.106 222.968 312.418C222.968 312.73 222.86 312.994 222.644 313.21C222.44 313.426 222.188 313.534 221.888 313.534ZM222.68 315.136V325H221.042V315.136H222.68ZM227.11 311.68V325H225.472V311.68H227.11ZM229.29 320.032C229.29 319.024 229.494 318.142 229.902 317.386C230.31 316.618 230.868 316.024 231.576 315.604C232.296 315.184 233.1 314.974 233.988 314.974C234.756 314.974 235.47 315.154 236.13 315.514C236.79 315.862 237.294 316.324 237.642 316.9V311.68H239.298V325H237.642V323.146C237.318 323.734 236.838 324.22 236.202 324.604C235.566 324.976 234.822 325.162 233.97 325.162C233.094 325.162 232.296 324.946 231.576 324.514C230.868 324.082 230.31 323.476 229.902 322.696C229.494 321.916 229.29 321.028 229.29 320.032ZM237.642 320.05C237.642 319.306 237.492 318.658 237.192 318.106C236.892 317.554 236.484 317.134 235.968 316.846C235.464 316.546 234.906 316.396 234.294 316.396C233.682 316.396 233.124 316.54 232.62 316.828C232.116 317.116 231.714 317.536 231.414 318.088C231.114 318.64 230.964 319.288 230.964 320.032C230.964 320.788 231.114 321.448 231.414 322.012C231.714 322.564 232.116 322.99 232.62 323.29C233.124 323.578 233.682 323.722 234.294 323.722C234.906 323.722 235.464 323.578 235.968 323.29C236.484 322.99 236.892 322.564 237.192 322.012C237.492 321.448 237.642 320.794 237.642 320.05ZM250.879 316.486H248.809V325H247.171V316.486H245.893V315.136H247.171V314.434C247.171 313.33 247.453 312.526 248.017 312.022C248.593 311.506 249.511 311.248 250.771 311.248V312.616C250.051 312.616 249.541 312.76 249.241 313.048C248.953 313.324 248.809 313.786 248.809 314.434V315.136H250.879V316.486ZM261.536 315.136V325H259.898V323.542C259.586 324.046 259.148 324.442 258.584 324.73C258.032 325.006 257.42 325.144 256.748 325.144C255.98 325.144 255.29 324.988 254.678 324.676C254.066 324.352 253.58 323.872 253.22 323.236C252.872 322.6 252.698 321.826 252.698 320.914V315.136H254.318V320.698C254.318 321.67 254.564 322.42 255.056 322.948C255.548 323.464 256.22 323.722 257.072 323.722C257.948 323.722 258.638 323.452 259.142 322.912C259.646 322.372 259.898 321.586 259.898 320.554V315.136H261.536ZM269.108 314.956C270.308 314.956 271.28 315.322 272.024 316.054C272.768 316.774 273.14 317.818 273.14 319.186V325H271.52V319.42C271.52 318.436 271.274 317.686 270.782 317.17C270.29 316.642 269.618 316.378 268.766 316.378C267.902 316.378 267.212 316.648 266.696 317.188C266.192 317.728 265.94 318.514 265.94 319.546V325H264.302V315.136H265.94V316.54C266.264 316.036 266.702 315.646 267.254 315.37C267.818 315.094 268.436 314.956 269.108 314.956ZM275.204 320.05C275.204 319.03 275.408 318.142 275.816 317.386C276.224 316.618 276.788 316.024 277.508 315.604C278.24 315.184 279.074 314.974 280.01 314.974C281.222 314.974 282.218 315.268 282.998 315.856C283.79 316.444 284.312 317.26 284.564 318.304H282.8C282.632 317.704 282.302 317.23 281.81 316.882C281.33 316.534 280.73 316.36 280.01 316.36C279.074 316.36 278.318 316.684 277.742 317.332C277.166 317.968 276.878 318.874 276.878 320.05C276.878 321.238 277.166 322.156 277.742 322.804C278.318 323.452 279.074 323.776 280.01 323.776C280.73 323.776 281.33 323.608 281.81 323.272C282.29 322.936 282.62 322.456 282.8 321.832H284.564C284.3 322.84 283.772 323.65 282.98 324.262C282.188 324.862 281.198 325.162 280.01 325.162C279.074 325.162 278.24 324.952 277.508 324.532C276.788 324.112 276.224 323.518 275.816 322.75C275.408 321.982 275.204 321.082 275.204 320.05ZM288.747 316.486V322.3C288.747 322.78 288.849 323.122 289.053 323.326C289.257 323.518 289.611 323.614 290.115 323.614H291.321V325H289.845C288.933 325 288.249 324.79 287.793 324.37C287.337 323.95 287.109 323.26 287.109 322.3V316.486H285.831V315.136H287.109V312.652H288.747V315.136H291.321V316.486H288.747ZM294.152 313.534C293.84 313.534 293.576 313.426 293.36 313.21C293.144 312.994 293.036 312.73 293.036 312.418C293.036 312.106 293.144 311.842 293.36 311.626C293.576 311.41 293.84 311.302 294.152 311.302C294.452 311.302 294.704 311.41 294.908 311.626C295.124 311.842 295.232 312.106 295.232 312.418C295.232 312.73 295.124 312.994 294.908 313.21C294.704 313.426 294.452 313.534 294.152 313.534ZM294.944 315.136V325H293.306V315.136H294.944ZM302.038 325.162C301.114 325.162 300.274 324.952 299.518 324.532C298.774 324.112 298.186 323.518 297.754 322.75C297.334 321.97 297.124 321.07 297.124 320.05C297.124 319.042 297.34 318.154 297.772 317.386C298.216 316.606 298.816 316.012 299.572 315.604C300.328 315.184 301.174 314.974 302.11 314.974C303.046 314.974 303.892 315.184 304.648 315.604C305.404 316.012 305.998 316.6 306.43 317.368C306.874 318.136 307.096 319.03 307.096 320.05C307.096 321.07 306.868 321.97 306.412 322.75C305.968 323.518 305.362 324.112 304.594 324.532C303.826 324.952 302.974 325.162 302.038 325.162ZM302.038 323.722C302.626 323.722 303.178 323.584 303.694 323.308C304.21 323.032 304.624 322.618 304.936 322.066C305.26 321.514 305.422 320.842 305.422 320.05C305.422 319.258 305.266 318.586 304.954 318.034C304.642 317.482 304.234 317.074 303.73 316.81C303.226 316.534 302.68 316.396 302.092 316.396C301.492 316.396 300.94 316.534 300.436 316.81C299.944 317.074 299.548 317.482 299.248 318.034C298.948 318.586 298.798 319.258 298.798 320.05C298.798 320.854 298.942 321.532 299.23 322.084C299.53 322.636 299.926 323.05 300.418 323.326C300.91 323.59 301.45 323.722 302.038 323.722ZM314.055 314.956C315.255 314.956 316.227 315.322 316.971 316.054C317.715 316.774 318.087 317.818 318.087 319.186V325H316.467V319.42C316.467 318.436 316.221 317.686 315.729 317.17C315.237 316.642 314.565 316.378 313.713 316.378C312.849 316.378 312.159 316.648 311.643 317.188C311.139 317.728 310.887 318.514 310.887 319.546V325H309.249V315.136H310.887V316.54C311.211 316.036 311.649 315.646 312.201 315.37C312.765 315.094 313.383 314.956 314.055 314.956ZM320.151 320.032C320.151 319.024 320.355 318.142 320.763 317.386C321.171 316.618 321.729 316.024 322.437 315.604C323.157 315.184 323.955 314.974 324.831 314.974C325.695 314.974 326.445 315.16 327.081 315.532C327.717 315.904 328.191 316.372 328.503 316.936V315.136H330.159V325H328.503V323.164C328.179 323.74 327.693 324.22 327.045 324.604C326.409 324.976 325.665 325.162 324.813 325.162C323.937 325.162 323.145 324.946 322.437 324.514C321.729 324.082 321.171 323.476 320.763 322.696C320.355 321.916 320.151 321.028 320.151 320.032ZM328.503 320.05C328.503 319.306 328.353 318.658 328.053 318.106C327.753 317.554 327.345 317.134 326.829 316.846C326.325 316.546 325.767 316.396 325.155 316.396C324.543 316.396 323.985 316.54 323.481 316.828C322.977 317.116 322.575 317.536 322.275 318.088C321.975 318.64 321.825 319.288 321.825 320.032C321.825 320.788 321.975 321.448 322.275 322.012C322.575 322.564 322.977 322.99 323.481 323.29C323.985 323.578 324.543 323.722 325.155 323.722C325.767 323.722 326.325 323.578 326.829 323.29C327.345 322.99 327.753 322.564 328.053 322.012C328.353 321.448 328.503 320.794 328.503 320.05ZM334.565 311.68V325H332.927V311.68H334.565ZM62.5963 344.032C62.5963 343.024 62.8003 342.142 63.2083 341.386C63.6163 340.618 64.1743 340.024 64.8823 339.604C65.6023 339.184 66.4003 338.974 67.2763 338.974C68.1403 338.974 68.8903 339.16 69.5263 339.532C70.1623 339.904 70.6363 340.372 70.9483 340.936V339.136H72.6043V349H70.9483V347.164C70.6243 347.74 70.1383 348.22 69.4903 348.604C68.8543 348.976 68.1103 349.162 67.2583 349.162C66.3823 349.162 65.5903 348.946 64.8823 348.514C64.1743 348.082 63.6163 347.476 63.2083 346.696C62.8003 345.916 62.5963 345.028 62.5963 344.032ZM70.9483 344.05C70.9483 343.306 70.7983 342.658 70.4983 342.106C70.1983 341.554 69.7903 341.134 69.2743 340.846C68.7703 340.546 68.2123 340.396 67.6003 340.396C66.9883 340.396 66.4303 340.54 65.9263 340.828C65.4223 341.116 65.0203 341.536 64.7203 342.088C64.4203 342.64 64.2703 343.288 64.2703 344.032C64.2703 344.788 64.4203 345.448 64.7203 346.012C65.0203 346.564 65.4223 346.99 65.9263 347.29C66.4303 347.578 66.9883 347.722 67.6003 347.722C68.2123 347.722 68.7703 347.578 69.2743 347.29C69.7903 346.99 70.1983 346.564 70.4983 346.012C70.7983 345.448 70.9483 344.794 70.9483 344.05ZM80.1783 338.956C81.3783 338.956 82.3503 339.322 83.0943 340.054C83.8383 340.774 84.2103 341.818 84.2103 343.186V349H82.5903V343.42C82.5903 342.436 82.3443 341.686 81.8523 341.17C81.3603 340.642 80.6883 340.378 79.8363 340.378C78.9723 340.378 78.2823 340.648 77.7663 341.188C77.2623 341.728 77.0103 342.514 77.0103 343.546V349H75.3723V339.136H77.0103V340.54C77.3343 340.036 77.7723 339.646 78.3243 339.37C78.8883 339.094 79.5063 338.956 80.1783 338.956ZM86.274 344.032C86.274 343.024 86.478 342.142 86.886 341.386C87.294 340.618 87.852 340.024 88.56 339.604C89.28 339.184 90.084 338.974 90.972 338.974C91.74 338.974 92.454 339.154 93.114 339.514C93.774 339.862 94.278 340.324 94.626 340.9V335.68H96.282V349H94.626V347.146C94.302 347.734 93.822 348.22 93.186 348.604C92.55 348.976 91.806 349.162 90.954 349.162C90.078 349.162 89.28 348.946 88.56 348.514C87.852 348.082 87.294 347.476 86.886 346.696C86.478 345.916 86.274 345.028 86.274 344.032ZM94.626 344.05C94.626 343.306 94.476 342.658 94.176 342.106C93.876 341.554 93.468 341.134 92.952 340.846C92.448 340.546 91.89 340.396 91.278 340.396C90.666 340.396 90.108 340.54 89.604 340.828C89.1 341.116 88.698 341.536 88.398 342.088C88.098 342.64 87.948 343.288 87.948 344.032C87.948 344.788 88.098 345.448 88.398 346.012C88.698 346.564 89.1 346.99 89.604 347.29C90.108 347.578 90.666 347.722 91.278 347.722C91.89 347.722 92.448 347.578 92.952 347.29C93.468 346.99 93.876 346.564 94.176 346.012C94.476 345.448 94.626 344.794 94.626 344.05ZM103.237 344.032C103.237 343.024 103.441 342.142 103.849 341.386C104.257 340.618 104.815 340.024 105.523 339.604C106.243 339.184 107.041 338.974 107.917 338.974C108.781 338.974 109.531 339.16 110.167 339.532C110.803 339.904 111.277 340.372 111.589 340.936V339.136H113.245V349H111.589V347.164C111.265 347.74 110.779 348.22 110.131 348.604C109.495 348.976 108.751 349.162 107.899 349.162C107.023 349.162 106.231 348.946 105.523 348.514C104.815 348.082 104.257 347.476 103.849 346.696C103.441 345.916 103.237 345.028 103.237 344.032ZM111.589 344.05C111.589 343.306 111.439 342.658 111.139 342.106C110.839 341.554 110.431 341.134 109.915 340.846C109.411 340.546 108.853 340.396 108.241 340.396C107.629 340.396 107.071 340.54 106.567 340.828C106.063 341.116 105.661 341.536 105.361 342.088C105.061 342.64 104.911 343.288 104.911 344.032C104.911 344.788 105.061 345.448 105.361 346.012C105.661 346.564 106.063 346.99 106.567 347.29C107.071 347.578 107.629 347.722 108.241 347.722C108.853 347.722 109.411 347.578 109.915 347.29C110.431 346.99 110.839 346.564 111.139 346.012C111.439 345.448 111.589 344.794 111.589 344.05ZM115.401 344.05C115.401 343.03 115.605 342.142 116.013 341.386C116.421 340.618 116.985 340.024 117.705 339.604C118.437 339.184 119.271 338.974 120.207 338.974C121.419 338.974 122.415 339.268 123.195 339.856C123.987 340.444 124.509 341.26 124.761 342.304H122.997C122.829 341.704 122.499 341.23 122.007 340.882C121.527 340.534 120.927 340.36 120.207 340.36C119.271 340.36 118.515 340.684 117.939 341.332C117.363 341.968 117.075 342.874 117.075 344.05C117.075 345.238 117.363 346.156 117.939 346.804C118.515 347.452 119.271 347.776 120.207 347.776C120.927 347.776 121.527 347.608 122.007 347.272C122.487 346.936 122.817 346.456 122.997 345.832H124.761C124.497 346.84 123.969 347.65 123.177 348.262C122.385 348.862 121.395 349.162 120.207 349.162C119.271 349.162 118.437 348.952 117.705 348.532C116.985 348.112 116.421 347.518 116.013 346.75C115.605 345.982 115.401 345.082 115.401 344.05ZM126.335 344.05C126.335 343.03 126.539 342.142 126.947 341.386C127.355 340.618 127.919 340.024 128.639 339.604C129.371 339.184 130.205 338.974 131.141 338.974C132.353 338.974 133.349 339.268 134.129 339.856C134.921 340.444 135.443 341.26 135.695 342.304H133.931C133.763 341.704 133.433 341.23 132.941 340.882C132.461 340.534 131.861 340.36 131.141 340.36C130.205 340.36 129.449 340.684 128.873 341.332C128.297 341.968 128.009 342.874 128.009 344.05C128.009 345.238 128.297 346.156 128.873 346.804C129.449 347.452 130.205 347.776 131.141 347.776C131.861 347.776 132.461 347.608 132.941 347.272C133.421 346.936 133.751 346.456 133.931 345.832H135.695C135.431 346.84 134.903 347.65 134.111 348.262C133.319 348.862 132.329 349.162 131.141 349.162C130.205 349.162 129.371 348.952 128.639 348.532C127.919 348.112 127.355 347.518 126.947 346.75C126.539 345.982 126.335 345.082 126.335 344.05ZM146.88 343.69C146.88 344.002 146.862 344.332 146.826 344.68H138.942C139.002 345.652 139.332 346.414 139.932 346.966C140.544 347.506 141.282 347.776 142.146 347.776C142.854 347.776 143.442 347.614 143.91 347.29C144.39 346.954 144.726 346.51 144.918 345.958H146.682C146.418 346.906 145.89 347.68 145.098 348.28C144.306 348.868 143.322 349.162 142.146 349.162C141.21 349.162 140.37 348.952 139.626 348.532C138.894 348.112 138.318 347.518 137.898 346.75C137.478 345.97 137.268 345.07 137.268 344.05C137.268 343.03 137.472 342.136 137.88 341.368C138.288 340.6 138.858 340.012 139.59 339.604C140.334 339.184 141.186 338.974 142.146 338.974C143.082 338.974 143.91 339.178 144.63 339.586C145.35 339.994 145.902 340.558 146.286 341.278C146.682 341.986 146.88 342.79 146.88 343.69ZM145.188 343.348C145.188 342.724 145.05 342.19 144.774 341.746C144.498 341.29 144.12 340.948 143.64 340.72C143.172 340.48 142.65 340.36 142.074 340.36C141.246 340.36 140.538 340.624 139.95 341.152C139.374 341.68 139.044 342.412 138.96 343.348H145.188ZM152.534 349.162C151.778 349.162 151.1 349.036 150.5 348.784C149.9 348.52 149.426 348.16 149.078 347.704C148.73 347.236 148.538 346.702 148.502 346.102H150.194C150.242 346.594 150.47 346.996 150.878 347.308C151.298 347.62 151.844 347.776 152.516 347.776C153.14 347.776 153.632 347.638 153.992 347.362C154.352 347.086 154.532 346.738 154.532 346.318C154.532 345.886 154.34 345.568 153.956 345.364C153.572 345.148 152.978 344.938 152.174 344.734C151.442 344.542 150.842 344.35 150.374 344.158C149.918 343.954 149.522 343.66 149.186 343.276C148.862 342.88 148.7 342.364 148.7 341.728C148.7 341.224 148.85 340.762 149.15 340.342C149.45 339.922 149.876 339.592 150.428 339.352C150.98 339.1 151.61 338.974 152.318 338.974C153.41 338.974 154.292 339.25 154.964 339.802C155.636 340.354 155.996 341.11 156.044 342.07H154.406C154.37 341.554 154.16 341.14 153.776 340.828C153.404 340.516 152.9 340.36 152.264 340.36C151.676 340.36 151.208 340.486 150.86 340.738C150.512 340.99 150.338 341.32 150.338 341.728C150.338 342.052 150.44 342.322 150.644 342.538C150.86 342.742 151.124 342.91 151.436 343.042C151.76 343.162 152.204 343.3 152.768 343.456C153.476 343.648 154.052 343.84 154.496 344.032C154.94 344.212 155.318 344.488 155.63 344.86C155.954 345.232 156.122 345.718 156.134 346.318C156.134 346.858 155.984 347.344 155.684 347.776C155.384 348.208 154.958 348.55 154.406 348.802C153.866 349.042 153.242 349.162 152.534 349.162ZM161.939 349.162C161.183 349.162 160.505 349.036 159.905 348.784C159.305 348.52 158.831 348.16 158.483 347.704C158.135 347.236 157.943 346.702 157.907 346.102H159.599C159.647 346.594 159.875 346.996 160.283 347.308C160.703 347.62 161.249 347.776 161.921 347.776C162.545 347.776 163.037 347.638 163.397 347.362C163.757 347.086 163.937 346.738 163.937 346.318C163.937 345.886 163.745 345.568 163.361 345.364C162.977 345.148 162.383 344.938 161.579 344.734C160.847 344.542 160.247 344.35 159.779 344.158C159.323 343.954 158.927 343.66 158.591 343.276C158.267 342.88 158.105 342.364 158.105 341.728C158.105 341.224 158.255 340.762 158.555 340.342C158.855 339.922 159.281 339.592 159.833 339.352C160.385 339.1 161.015 338.974 161.723 338.974C162.815 338.974 163.697 339.25 164.369 339.802C165.041 340.354 165.401 341.11 165.449 342.07H163.811C163.775 341.554 163.565 341.14 163.181 340.828C162.809 340.516 162.305 340.36 161.669 340.36C161.081 340.36 160.613 340.486 160.265 340.738C159.917 340.99 159.743 341.32 159.743 341.728C159.743 342.052 159.845 342.322 160.049 342.538C160.265 342.742 160.529 342.91 160.841 343.042C161.165 343.162 161.609 343.3 162.173 343.456C162.881 343.648 163.457 343.84 163.901 344.032C164.345 344.212 164.723 344.488 165.035 344.86C165.359 345.232 165.527 345.718 165.539 346.318C165.539 346.858 165.389 347.344 165.089 347.776C164.789 348.208 164.363 348.55 163.811 348.802C163.271 349.042 162.647 349.162 161.939 349.162ZM168.697 337.534C168.385 337.534 168.121 337.426 167.905 337.21C167.689 336.994 167.581 336.73 167.581 336.418C167.581 336.106 167.689 335.842 167.905 335.626C168.121 335.41 168.385 335.302 168.697 335.302C168.997 335.302 169.249 335.41 169.453 335.626C169.669 335.842 169.777 336.106 169.777 336.418C169.777 336.73 169.669 336.994 169.453 337.21C169.249 337.426 168.997 337.534 168.697 337.534ZM169.489 339.136V349H167.851V339.136H169.489ZM173.919 340.972C174.255 340.384 174.747 339.904 175.395 339.532C176.043 339.16 176.781 338.974 177.609 338.974C178.497 338.974 179.295 339.184 180.003 339.604C180.711 340.024 181.269 340.618 181.677 341.386C182.085 342.142 182.289 343.024 182.289 344.032C182.289 345.028 182.085 345.916 181.677 346.696C181.269 347.476 180.705 348.082 179.985 348.514C179.277 348.946 178.485 349.162 177.609 349.162C176.757 349.162 176.007 348.976 175.359 348.604C174.723 348.232 174.243 347.758 173.919 347.182V349H172.281V335.68H173.919V340.972ZM180.615 344.032C180.615 343.288 180.465 342.64 180.165 342.088C179.865 341.536 179.457 341.116 178.941 340.828C178.437 340.54 177.879 340.396 177.267 340.396C176.667 340.396 176.109 340.546 175.593 340.846C175.089 341.134 174.681 341.56 174.369 342.124C174.069 342.676 173.919 343.318 173.919 344.05C173.919 344.794 174.069 345.448 174.369 346.012C174.681 346.564 175.089 346.99 175.593 347.29C176.109 347.578 176.667 347.722 177.267 347.722C177.879 347.722 178.437 347.578 178.941 347.29C179.457 346.99 179.865 346.564 180.165 346.012C180.465 345.448 180.615 344.788 180.615 344.032ZM186.083 335.68V349H184.445V335.68H186.083ZM197.874 343.69C197.874 344.002 197.856 344.332 197.82 344.68H189.936C189.996 345.652 190.326 346.414 190.926 346.966C191.538 347.506 192.276 347.776 193.14 347.776C193.848 347.776 194.436 347.614 194.904 347.29C195.384 346.954 195.72 346.51 195.912 345.958H197.676C197.412 346.906 196.884 347.68 196.092 348.28C195.3 348.868 194.316 349.162 193.14 349.162C192.204 349.162 191.364 348.952 190.62 348.532C189.888 348.112 189.312 347.518 188.892 346.75C188.472 345.97 188.262 345.07 188.262 344.05C188.262 343.03 188.466 342.136 188.874 341.368C189.282 340.6 189.852 340.012 190.584 339.604C191.328 339.184 192.18 338.974 193.14 338.974C194.076 338.974 194.904 339.178 195.624 339.586C196.344 339.994 196.896 340.558 197.28 341.278C197.676 341.986 197.874 342.79 197.874 343.69ZM196.182 343.348C196.182 342.724 196.044 342.19 195.768 341.746C195.492 341.29 195.114 340.948 194.634 340.72C194.166 340.48 193.644 340.36 193.068 340.36C192.24 340.36 191.532 340.624 190.944 341.152C190.368 341.68 190.038 342.412 189.954 343.348H196.182ZM217.975 339.136L214.897 349H213.205L210.829 341.17L208.453 349H206.761L203.665 339.136H205.339L207.607 347.416L210.055 339.136H211.729L214.123 347.434L216.355 339.136H217.975ZM228.601 343.69C228.601 344.002 228.583 344.332 228.547 344.68H220.663C220.723 345.652 221.053 346.414 221.653 346.966C222.265 347.506 223.003 347.776 223.867 347.776C224.575 347.776 225.163 347.614 225.631 347.29C226.111 346.954 226.447 346.51 226.639 345.958H228.403C228.139 346.906 227.611 347.68 226.819 348.28C226.027 348.868 225.043 349.162 223.867 349.162C222.931 349.162 222.091 348.952 221.347 348.532C220.615 348.112 220.039 347.518 219.619 346.75C219.199 345.97 218.989 345.07 218.989 344.05C218.989 343.03 219.193 342.136 219.601 341.368C220.009 340.6 220.579 340.012 221.311 339.604C222.055 339.184 222.907 338.974 223.867 338.974C224.803 338.974 225.631 339.178 226.351 339.586C227.071 339.994 227.623 340.558 228.007 341.278C228.403 341.986 228.601 342.79 228.601 343.69ZM226.909 343.348C226.909 342.724 226.771 342.19 226.495 341.746C226.219 341.29 225.841 340.948 225.361 340.72C224.893 340.48 224.371 340.36 223.795 340.36C222.967 340.36 222.259 340.624 221.671 341.152C221.095 341.68 220.765 342.412 220.681 343.348H226.909ZM232.401 340.972C232.737 340.384 233.229 339.904 233.877 339.532C234.525 339.16 235.263 338.974 236.091 338.974C236.979 338.974 237.777 339.184 238.485 339.604C239.193 340.024 239.751 340.618 240.159 341.386C240.567 342.142 240.771 343.024 240.771 344.032C240.771 345.028 240.567 345.916 240.159 346.696C239.751 347.476 239.187 348.082 238.467 348.514C237.759 348.946 236.967 349.162 236.091 349.162C235.239 349.162 234.489 348.976 233.841 348.604C233.205 348.232 232.725 347.758 232.401 347.182V349H230.763V335.68H232.401V340.972ZM239.097 344.032C239.097 343.288 238.947 342.64 238.647 342.088C238.347 341.536 237.939 341.116 237.423 340.828C236.919 340.54 236.361 340.396 235.749 340.396C235.149 340.396 234.591 340.546 234.075 340.846C233.571 341.134 233.163 341.56 232.851 342.124C232.551 342.676 232.401 343.318 232.401 344.05C232.401 344.794 232.551 345.448 232.851 346.012C233.163 346.564 233.571 346.99 234.075 347.29C234.591 347.578 235.149 347.722 235.749 347.722C236.361 347.722 236.919 347.578 237.423 347.29C237.939 346.99 238.347 346.564 238.647 346.012C238.947 345.448 239.097 344.788 239.097 344.032ZM249.364 340.954C249.688 340.39 250.168 339.922 250.804 339.55C251.452 339.166 252.202 338.974 253.054 338.974C253.93 338.974 254.722 339.184 255.43 339.604C256.15 340.024 256.714 340.618 257.122 341.386C257.53 342.142 257.734 343.024 257.734 344.032C257.734 345.028 257.53 345.916 257.122 346.696C256.714 347.476 256.15 348.082 255.43 348.514C254.722 348.946 253.93 349.162 253.054 349.162C252.214 349.162 251.47 348.976 250.822 348.604C250.186 348.22 249.7 347.746 249.364 347.182V353.68H247.726V339.136H249.364V340.954ZM256.06 344.032C256.06 343.288 255.91 342.64 255.61 342.088C255.31 341.536 254.902 341.116 254.386 340.828C253.882 340.54 253.324 340.396 252.712 340.396C252.112 340.396 251.554 340.546 251.038 340.846C250.534 341.134 250.126 341.56 249.814 342.124C249.514 342.676 249.364 343.318 249.364 344.05C249.364 344.794 249.514 345.448 249.814 346.012C250.126 346.564 250.534 346.99 251.038 347.29C251.554 347.578 252.112 347.722 252.712 347.722C253.324 347.722 253.882 347.578 254.386 347.29C254.902 346.99 255.31 346.564 255.61 346.012C255.91 345.448 256.06 344.788 256.06 344.032ZM259.278 344.032C259.278 343.024 259.482 342.142 259.89 341.386C260.298 340.618 260.856 340.024 261.564 339.604C262.284 339.184 263.082 338.974 263.958 338.974C264.822 338.974 265.572 339.16 266.208 339.532C266.844 339.904 267.318 340.372 267.63 340.936V339.136H269.286V349H267.63V347.164C267.306 347.74 266.82 348.22 266.172 348.604C265.536 348.976 264.792 349.162 263.94 349.162C263.064 349.162 262.272 348.946 261.564 348.514C260.856 348.082 260.298 347.476 259.89 346.696C259.482 345.916 259.278 345.028 259.278 344.032ZM267.63 344.05C267.63 343.306 267.48 342.658 267.18 342.106C266.88 341.554 266.472 341.134 265.956 340.846C265.452 340.546 264.894 340.396 264.282 340.396C263.67 340.396 263.112 340.54 262.608 340.828C262.104 341.116 261.702 341.536 261.402 342.088C261.102 342.64 260.952 343.288 260.952 344.032C260.952 344.788 261.102 345.448 261.402 346.012C261.702 346.564 262.104 346.99 262.608 347.29C263.112 347.578 263.67 347.722 264.282 347.722C264.894 347.722 265.452 347.578 265.956 347.29C266.472 346.99 266.88 346.564 267.18 346.012C267.48 345.448 267.63 344.794 267.63 344.05ZM276.122 338.974C276.974 338.974 277.718 339.16 278.354 339.532C279.002 339.904 279.482 340.372 279.794 340.936V339.136H281.45V349.216C281.45 350.116 281.258 350.914 280.874 351.61C280.49 352.318 279.938 352.87 279.218 353.266C278.51 353.662 277.682 353.86 276.734 353.86C275.438 353.86 274.358 353.554 273.494 352.942C272.63 352.33 272.12 351.496 271.964 350.44H273.584C273.764 351.04 274.136 351.52 274.7 351.88C275.264 352.252 275.942 352.438 276.734 352.438C277.634 352.438 278.366 352.156 278.93 351.592C279.506 351.028 279.794 350.236 279.794 349.216V347.146C279.47 347.722 278.99 348.202 278.354 348.586C277.718 348.97 276.974 349.162 276.122 349.162C275.246 349.162 274.448 348.946 273.728 348.514C273.02 348.082 272.462 347.476 272.054 346.696C271.646 345.916 271.442 345.028 271.442 344.032C271.442 343.024 271.646 342.142 272.054 341.386C272.462 340.618 273.02 340.024 273.728 339.604C274.448 339.184 275.246 338.974 276.122 338.974ZM279.794 344.05C279.794 343.306 279.644 342.658 279.344 342.106C279.044 341.554 278.636 341.134 278.12 340.846C277.616 340.546 277.058 340.396 276.446 340.396C275.834 340.396 275.276 340.54 274.772 340.828C274.268 341.116 273.866 341.536 273.566 342.088C273.266 342.64 273.116 343.288 273.116 344.032C273.116 344.788 273.266 345.448 273.566 346.012C273.866 346.564 274.268 346.99 274.772 347.29C275.276 347.578 275.834 347.722 276.446 347.722C277.058 347.722 277.616 347.578 278.12 347.29C278.636 346.99 279.044 346.564 279.344 346.012C279.644 345.448 279.794 344.794 279.794 344.05ZM293.218 343.69C293.218 344.002 293.2 344.332 293.164 344.68H285.28C285.34 345.652 285.67 346.414 286.27 346.966C286.882 347.506 287.62 347.776 288.484 347.776C289.192 347.776 289.78 347.614 290.248 347.29C290.728 346.954 291.064 346.51 291.256 345.958H293.02C292.756 346.906 292.228 347.68 291.436 348.28C290.644 348.868 289.66 349.162 288.484 349.162C287.548 349.162 286.708 348.952 285.964 348.532C285.232 348.112 284.656 347.518 284.236 346.75C283.816 345.97 283.606 345.07 283.606 344.05C283.606 343.03 283.81 342.136 284.218 341.368C284.626 340.6 285.196 340.012 285.928 339.604C286.672 339.184 287.524 338.974 288.484 338.974C289.42 338.974 290.248 339.178 290.968 339.586C291.688 339.994 292.24 340.558 292.624 341.278C293.02 341.986 293.218 342.79 293.218 343.69ZM291.526 343.348C291.526 342.724 291.388 342.19 291.112 341.746C290.836 341.29 290.458 340.948 289.978 340.72C289.51 340.48 288.988 340.36 288.412 340.36C287.584 340.36 286.876 340.624 286.288 341.152C285.712 341.68 285.382 342.412 285.298 343.348H291.526ZM298.872 349.162C298.116 349.162 297.438 349.036 296.838 348.784C296.238 348.52 295.764 348.16 295.416 347.704C295.068 347.236 294.876 346.702 294.84 346.102H296.532C296.58 346.594 296.808 346.996 297.216 347.308C297.636 347.62 298.182 347.776 298.854 347.776C299.478 347.776 299.97 347.638 300.33 347.362C300.69 347.086 300.87 346.738 300.87 346.318C300.87 345.886 300.678 345.568 300.294 345.364C299.91 345.148 299.316 344.938 298.512 344.734C297.78 344.542 297.18 344.35 296.712 344.158C296.256 343.954 295.86 343.66 295.524 343.276C295.2 342.88 295.038 342.364 295.038 341.728C295.038 341.224 295.188 340.762 295.488 340.342C295.788 339.922 296.214 339.592 296.766 339.352C297.318 339.1 297.948 338.974 298.656 338.974C299.748 338.974 300.63 339.25 301.302 339.802C301.974 340.354 302.334 341.11 302.382 342.07H300.744C300.708 341.554 300.498 341.14 300.114 340.828C299.742 340.516 299.238 340.36 298.602 340.36C298.014 340.36 297.546 340.486 297.198 340.738C296.85 340.99 296.676 341.32 296.676 341.728C296.676 342.052 296.778 342.322 296.982 342.538C297.198 342.742 297.462 342.91 297.774 343.042C298.098 343.162 298.542 343.3 299.106 343.456C299.814 343.648 300.39 343.84 300.834 344.032C301.278 344.212 301.656 344.488 301.968 344.86C302.292 345.232 302.46 345.718 302.472 346.318C302.472 346.858 302.322 347.344 302.022 347.776C301.722 348.208 301.296 348.55 300.744 348.802C300.204 349.042 299.58 349.162 298.872 349.162ZM305.306 349.108C304.994 349.108 304.73 349 304.514 348.784C304.298 348.568 304.19 348.304 304.19 347.992C304.19 347.68 304.298 347.416 304.514 347.2C304.73 346.984 304.994 346.876 305.306 346.876C305.606 346.876 305.858 346.984 306.062 347.2C306.278 347.416 306.386 347.68 306.386 347.992C306.386 348.304 306.278 348.568 306.062 348.784C305.858 349 305.606 349.108 305.306 349.108Z" fill="black"/>
<g clip-path="url(#clip0_59_30619)">
<mask id="mask0_59_30619" style="mask-type:luminance" maskUnits="userSpaceOnUse" x="133" y="17" width="104" height="104">
<path d="M133 17H237V121H133V17Z" fill="white"/>
</mask>
<g mask="url(#mask0_59_30619)">
<path d="M155.013 17H159.702V21.6323H163.992V17H168.681V31.0227H163.992V26.3297H159.702V31.0227H155.018L155.013 17ZM174.843 21.6497H170.717V17H183.661V21.6497H179.531V31.0227H174.843V21.6497ZM185.715 17H190.603L193.61 21.927L196.613 17H201.501V31.0227H196.834V24.072L193.61 29.0597H193.528L190.3 24.0763V31.0227H185.715V17ZM203.833 17H208.526V26.3903H215.112V31.027H203.833V17Z" fill="black"/>
<path fill-rule="evenodd" clip-rule="evenodd" d="M154.866 112.645L146 37.4403H224L215.13 112.637L184.957 121L154.866 112.645ZM172.793 71.4786L171.952 62.032H207.247L208.071 52.8106H161.877L164.365 80.7043H196.332L195.261 92.6643L184.974 95.4463H184.965L174.695 92.673L174.037 85.3193H164.772L166.063 99.8013L184.957 105.045L203.88 99.8013L206.186 73.9573L206.411 71.483L172.793 71.4786Z" fill="black"/>
</g>
</g>
<defs>
<clipPath id="clip0_59_30619">
<rect width="104" height="104" fill="white" transform="translate(133 17)"/>
</clipPath>
</defs>
</svg>
