<svg width="187" height="69" viewBox="0 0 187 69" fill="none" xmlns="http://www.w3.org/2000/svg">
<path d="M62.9445 57.2222V39.8925L77.25 50.1123V57.2222H82.9722V49.3742C82.972 48.6914 82.8089 48.0185 82.4964 47.4114C82.1839 46.8043 81.731 46.2806 81.1755 45.8836L65.0045 34.3333L81.1697 22.783C81.7264 22.3867 82.1803 21.8632 82.4938 21.2561C82.8073 20.649 82.9714 19.9758 82.9722 19.2925V11.4444H77.25V18.5543L62.9445 28.7742V11.4444H57.2222V57.2222H62.9445Z" fill="#5D18B0"/>
<path d="M17.1666 28.6111H24.6055L28.6111 17.1666L32.6166 28.6111H40.3416L33.475 11.4444H23.7472L17.1666 28.6111ZM2.86108 34.3333V40.0555H12.5889L5.7222 57.2222H14.3055L19.1694 44.0611H38.0528L42.9166 57.2222H51.5L44.6333 40.0555H54.3611V34.3333H2.86108Z" fill="#5D18B0"/>
<path d="M95.08 45.288C93.3733 45.288 91.8373 44.9147 90.472 44.168C89.1067 43.4 88.0293 42.3227 87.24 40.936C86.472 39.5493 86.088 37.9493 86.088 36.136C86.088 34.3227 86.4827 32.7227 87.272 31.336C88.0827 29.9493 89.1813 28.8827 90.568 28.136C91.9547 27.368 93.5013 26.984 95.208 26.984C96.9147 26.984 98.4613 27.368 99.848 28.136C101.235 28.8827 102.323 29.9493 103.112 31.336C103.923 32.7227 104.328 34.3227 104.328 36.136C104.328 37.9493 103.912 39.5493 103.08 40.936C102.269 42.3227 101.16 43.4 99.752 44.168C98.3653 44.9147 96.808 45.288 95.08 45.288ZM95.08 41.384C95.8907 41.384 96.648 41.192 97.352 40.808C98.0773 40.4027 98.6533 39.8053 99.08 39.016C99.5067 38.2267 99.72 37.2667 99.72 36.136C99.72 34.4507 99.272 33.16 98.376 32.264C97.5013 31.3467 96.424 30.888 95.144 30.888C93.864 30.888 92.7867 31.3467 91.912 32.264C91.0587 33.16 90.632 34.4507 90.632 36.136C90.632 37.8213 91.048 39.1227 91.88 40.04C92.7333 40.936 93.8 41.384 95.08 41.384ZM115.742 30.952H112.638V45H108.094V30.952H106.078V27.272H108.094V26.376C108.094 24.2 108.713 22.6 109.95 21.576C111.188 20.552 113.054 20.072 115.55 20.136V23.912C114.462 23.8907 113.705 24.072 113.278 24.456C112.852 24.84 112.638 25.5333 112.638 26.536V27.272H115.742V30.952ZM117.493 36.072C117.493 34.28 117.845 32.6907 118.549 31.304C119.275 29.9173 120.246 28.8507 121.462 28.104C122.699 27.3573 124.075 26.984 125.59 26.984C126.912 26.984 128.064 27.2507 129.046 27.784C130.048 28.3173 130.848 28.9893 131.446 29.8V27.272H135.958V45H131.446V42.408C130.87 43.24 130.07 43.9333 129.046 44.488C128.043 45.0213 126.88 45.288 125.558 45.288C124.064 45.288 122.699 44.904 121.462 44.136C120.246 43.368 119.275 42.2907 118.549 40.904C117.845 39.496 117.493 37.8853 117.493 36.072ZM131.446 36.136C131.446 35.048 131.232 34.12 130.806 33.352C130.379 32.5627 129.803 31.9653 129.078 31.56C128.352 31.1333 127.574 30.92 126.742 30.92C125.91 30.92 125.142 31.1227 124.438 31.528C123.734 31.9333 123.158 32.5307 122.71 33.32C122.283 34.088 122.07 35.0053 122.07 36.072C122.07 37.1387 122.283 38.0773 122.71 38.888C123.158 39.6773 123.734 40.2853 124.438 40.712C125.163 41.1387 125.931 41.352 126.742 41.352C127.574 41.352 128.352 41.1493 129.078 40.744C129.803 40.3173 130.379 39.72 130.806 38.952C131.232 38.1627 131.446 37.224 131.446 36.136ZM147.117 45.288C145.666 45.288 144.365 45.032 143.213 44.52C142.061 43.9867 141.144 43.272 140.461 42.376C139.8 41.48 139.437 40.488 139.373 39.4H143.885C143.97 40.0827 144.301 40.648 144.877 41.096C145.474 41.544 146.21 41.768 147.085 41.768C147.938 41.768 148.6 41.5973 149.069 41.256C149.56 40.9147 149.805 40.4773 149.805 39.944C149.805 39.368 149.506 38.9413 148.909 38.664C148.333 38.3653 147.405 38.0453 146.125 37.704C144.802 37.384 143.714 37.0533 142.861 36.712C142.029 36.3707 141.304 35.848 140.685 35.144C140.088 34.44 139.789 33.4907 139.789 32.296C139.789 31.3147 140.066 30.4187 140.621 29.608C141.197 28.7973 142.008 28.1573 143.053 27.688C144.12 27.2187 145.368 26.984 146.797 26.984C148.909 26.984 150.594 27.5173 151.853 28.584C153.112 29.6293 153.805 31.048 153.933 32.84H149.645C149.581 32.136 149.282 31.5813 148.749 31.176C148.237 30.7493 147.544 30.536 146.669 30.536C145.858 30.536 145.229 30.6853 144.781 30.984C144.354 31.2827 144.141 31.6987 144.141 32.232C144.141 32.8293 144.44 33.288 145.037 33.608C145.634 33.9067 146.562 34.216 147.821 34.536C149.101 34.856 150.157 35.1867 150.989 35.528C151.821 35.8693 152.536 36.4027 153.133 37.128C153.752 37.832 154.072 38.7707 154.093 39.944C154.093 40.968 153.805 41.8853 153.229 42.696C152.674 43.5067 151.864 44.1467 150.797 44.616C149.752 45.064 148.525 45.288 147.117 45.288ZM160.043 25.16C159.253 25.16 158.592 24.9147 158.059 24.424C157.547 23.912 157.291 23.2827 157.291 22.536C157.291 21.7893 157.547 21.1707 158.059 20.68C158.592 20.168 159.253 19.912 160.043 19.912C160.832 19.912 161.483 20.168 161.995 20.68C162.528 21.1707 162.795 21.7893 162.795 22.536C162.795 23.2827 162.528 23.912 161.995 24.424C161.483 24.9147 160.832 25.16 160.043 25.16ZM162.251 27.272V45H157.771V27.272H162.251ZM165.525 36.072C165.525 34.28 165.877 32.6907 166.581 31.304C167.306 29.9173 168.277 28.8507 169.493 28.104C170.73 27.3573 172.106 26.984 173.621 26.984C174.943 26.984 176.095 27.2507 177.077 27.784C178.079 28.3173 178.879 28.9893 179.477 29.8V27.272H183.989V45H179.477V42.408C178.901 43.24 178.101 43.9333 177.077 44.488C176.074 45.0213 174.911 45.288 173.589 45.288C172.095 45.288 170.73 44.904 169.493 44.136C168.277 43.368 167.306 42.2907 166.581 40.904C165.877 39.496 165.525 37.8853 165.525 36.072ZM179.477 36.136C179.477 35.048 179.263 34.12 178.837 33.352C178.41 32.5627 177.834 31.9653 177.109 31.56C176.383 31.1333 175.605 30.92 174.773 30.92C173.941 30.92 173.173 31.1227 172.469 31.528C171.765 31.9333 171.189 32.5307 170.741 33.32C170.314 34.088 170.101 35.0053 170.101 36.072C170.101 37.1387 170.314 38.0773 170.741 38.888C171.189 39.6773 171.765 40.2853 172.469 40.712C173.194 41.1387 173.962 41.352 174.773 41.352C175.605 41.352 176.383 41.1493 177.109 40.744C177.834 40.3173 178.41 39.72 178.837 38.952C179.263 38.1627 179.477 37.224 179.477 36.136Z" fill="#5D18B0"/>
</svg>
