<svg width="369" height="421" viewBox="0 0 369 421" fill="none" xmlns="http://www.w3.org/2000/svg">
<rect width="369" height="421" rx="20" fill="white" fill-opacity="0.6"/>
<path d="M76.6107 198.57V213.69C76.6107 215.347 77.0424 216.618 77.9057 217.505C78.7691 218.368 79.9824 218.8 81.5457 218.8C83.1324 218.8 84.3574 218.368 85.2207 217.505C86.0841 216.618 86.5157 215.347 86.5157 213.69V198.57H91.4507V213.655C91.4507 215.732 90.9957 217.493 90.0857 218.94C89.1991 220.363 87.9974 221.437 86.4807 222.16C84.9874 222.883 83.3191 223.245 81.4757 223.245C79.6557 223.245 77.9991 222.883 76.5057 222.16C75.0357 221.437 73.8691 220.363 73.0057 218.94C72.1424 217.493 71.7107 215.732 71.7107 213.655V198.57H76.6107ZM101.085 198.57V223H96.185V198.57H101.085ZM119.051 189.855L109.601 229.335H104.806L114.256 189.855H119.051ZM127.778 198.57V213.69C127.778 215.347 128.209 216.618 129.073 217.505C129.936 218.368 131.149 218.8 132.713 218.8C134.299 218.8 135.524 218.368 136.388 217.505C137.251 216.618 137.683 215.347 137.683 213.69V198.57H142.618V213.655C142.618 215.732 142.163 217.493 141.253 218.94C140.366 220.363 139.164 221.437 137.648 222.16C136.154 222.883 134.486 223.245 132.643 223.245C130.823 223.245 129.166 222.883 127.673 222.16C126.203 221.437 125.036 220.363 124.173 218.94C123.309 217.493 122.878 215.732 122.878 213.655V198.57H127.778ZM161.982 223L156.697 214.775L151.902 223H146.372L154.072 210.68L146.267 198.57H151.902L157.187 206.76L161.947 198.57H167.477L159.812 210.855L167.617 223H161.982ZM188.226 198.57C190.793 198.57 193.044 199.072 194.981 200.075C196.941 201.078 198.446 202.513 199.496 204.38C200.569 206.223 201.106 208.37 201.106 210.82C201.106 213.27 200.569 215.417 199.496 217.26C198.446 219.08 196.941 220.492 194.981 221.495C193.044 222.498 190.793 223 188.226 223H179.686V198.57H188.226ZM188.051 218.835C190.618 218.835 192.601 218.135 194.001 216.735C195.401 215.335 196.101 213.363 196.101 210.82C196.101 208.277 195.401 206.293 194.001 204.87C192.601 203.423 190.618 202.7 188.051 202.7H184.586V218.835H188.051ZM222.799 212.885C222.799 213.585 222.752 214.215 222.659 214.775H208.484C208.601 216.175 209.091 217.272 209.954 218.065C210.817 218.858 211.879 219.255 213.139 219.255C214.959 219.255 216.254 218.473 217.024 216.91H222.309C221.749 218.777 220.676 220.317 219.089 221.53C217.502 222.72 215.554 223.315 213.244 223.315C211.377 223.315 209.697 222.907 208.204 222.09C206.734 221.25 205.579 220.072 204.739 218.555C203.922 217.038 203.514 215.288 203.514 213.305C203.514 211.298 203.922 209.537 204.739 208.02C205.556 206.503 206.699 205.337 208.169 204.52C209.639 203.703 211.331 203.295 213.244 203.295C215.087 203.295 216.732 203.692 218.179 204.485C219.649 205.278 220.781 206.41 221.574 207.88C222.391 209.327 222.799 210.995 222.799 212.885ZM217.724 211.485C217.701 210.225 217.246 209.222 216.359 208.475C215.472 207.705 214.387 207.32 213.104 207.32C211.891 207.32 210.864 207.693 210.024 208.44C209.207 209.163 208.706 210.178 208.519 211.485H217.724ZM233.795 223.315C232.209 223.315 230.785 223.035 229.525 222.475C228.265 221.892 227.262 221.11 226.515 220.13C225.792 219.15 225.395 218.065 225.325 216.875H230.26C230.354 217.622 230.715 218.24 231.345 218.73C231.999 219.22 232.804 219.465 233.76 219.465C234.694 219.465 235.417 219.278 235.93 218.905C236.467 218.532 236.735 218.053 236.735 217.47C236.735 216.84 236.409 216.373 235.755 216.07C235.125 215.743 234.11 215.393 232.71 215.02C231.264 214.67 230.074 214.308 229.14 213.935C228.23 213.562 227.437 212.99 226.76 212.22C226.107 211.45 225.78 210.412 225.78 209.105C225.78 208.032 226.084 207.052 226.69 206.165C227.32 205.278 228.207 204.578 229.35 204.065C230.517 203.552 231.882 203.295 233.445 203.295C235.755 203.295 237.599 203.878 238.975 205.045C240.352 206.188 241.11 207.74 241.25 209.7H236.56C236.49 208.93 236.164 208.323 235.58 207.88C235.02 207.413 234.262 207.18 233.305 207.18C232.419 207.18 231.73 207.343 231.24 207.67C230.774 207.997 230.54 208.452 230.54 209.035C230.54 209.688 230.867 210.19 231.52 210.54C232.174 210.867 233.189 211.205 234.565 211.555C235.965 211.905 237.12 212.267 238.03 212.64C238.94 213.013 239.722 213.597 240.375 214.39C241.052 215.16 241.402 216.187 241.425 217.47C241.425 218.59 241.11 219.593 240.48 220.48C239.874 221.367 238.987 222.067 237.82 222.58C236.677 223.07 235.335 223.315 233.795 223.315ZM247.933 201.3C247.069 201.3 246.346 201.032 245.763 200.495C245.203 199.935 244.923 199.247 244.923 198.43C244.923 197.613 245.203 196.937 245.763 196.4C246.346 195.84 247.069 195.56 247.933 195.56C248.796 195.56 249.508 195.84 250.068 196.4C250.651 196.937 250.943 197.613 250.943 198.43C250.943 199.247 250.651 199.935 250.068 200.495C249.508 201.032 248.796 201.3 247.933 201.3ZM250.348 203.61V223H245.448V203.61H250.348ZM262.784 203.295C264.231 203.295 265.502 203.587 266.599 204.17C267.696 204.73 268.559 205.465 269.189 206.375V203.61H274.124V223.14C274.124 224.937 273.762 226.535 273.039 227.935C272.316 229.358 271.231 230.478 269.784 231.295C268.337 232.135 266.587 232.555 264.534 232.555C261.781 232.555 259.517 231.913 257.744 230.63C255.994 229.347 255.002 227.597 254.769 225.38H259.634C259.891 226.267 260.439 226.967 261.279 227.48C262.142 228.017 263.181 228.285 264.394 228.285C265.817 228.285 266.972 227.853 267.859 226.99C268.746 226.15 269.189 224.867 269.189 223.14V220.13C268.559 221.04 267.684 221.798 266.564 222.405C265.467 223.012 264.207 223.315 262.784 223.315C261.151 223.315 259.657 222.895 258.304 222.055C256.951 221.215 255.877 220.037 255.084 218.52C254.314 216.98 253.929 215.218 253.929 213.235C253.929 211.275 254.314 209.537 255.084 208.02C255.877 206.503 256.939 205.337 258.269 204.52C259.622 203.703 261.127 203.295 262.784 203.295ZM269.189 213.305C269.189 212.115 268.956 211.1 268.489 210.26C268.022 209.397 267.392 208.743 266.599 208.3C265.806 207.833 264.954 207.6 264.044 207.6C263.134 207.6 262.294 207.822 261.524 208.265C260.754 208.708 260.124 209.362 259.634 210.225C259.167 211.065 258.934 212.068 258.934 213.235C258.934 214.402 259.167 215.428 259.634 216.315C260.124 217.178 260.754 217.843 261.524 218.31C262.317 218.777 263.157 219.01 264.044 219.01C264.954 219.01 265.806 218.788 266.599 218.345C267.392 217.878 268.022 217.225 268.489 216.385C268.956 215.522 269.189 214.495 269.189 213.305ZM289.655 203.33C291.965 203.33 293.831 204.065 295.255 205.535C296.678 206.982 297.39 209.012 297.39 211.625V223H292.49V212.29C292.49 210.75 292.105 209.572 291.335 208.755C290.565 207.915 289.515 207.495 288.185 207.495C286.831 207.495 285.758 207.915 284.965 208.755C284.195 209.572 283.81 210.75 283.81 212.29V223H278.91V203.61H283.81V206.025C284.463 205.185 285.291 204.532 286.295 204.065C287.321 203.575 288.441 203.33 289.655 203.33Z" fill="#5D18B0"/>
<path d="M51.99 277.126C51.162 277.126 50.418 276.982 49.758 276.694C49.11 276.394 48.6 275.986 48.228 275.47C47.856 274.942 47.664 274.336 47.652 273.652H49.398C49.458 274.24 49.698 274.738 50.118 275.146C50.55 275.542 51.174 275.74 51.99 275.74C52.77 275.74 53.382 275.548 53.826 275.164C54.282 274.768 54.51 274.264 54.51 273.652C54.51 273.172 54.378 272.782 54.114 272.482C53.85 272.182 53.52 271.954 53.124 271.798C52.728 271.642 52.194 271.474 51.522 271.294C50.694 271.078 50.028 270.862 49.524 270.646C49.032 270.43 48.606 270.094 48.246 269.638C47.898 269.17 47.724 268.546 47.724 267.766C47.724 267.082 47.898 266.476 48.246 265.948C48.594 265.42 49.08 265.012 49.704 264.724C50.34 264.436 51.066 264.292 51.882 264.292C53.058 264.292 54.018 264.586 54.762 265.174C55.518 265.762 55.944 266.542 56.04 267.514H54.24C54.18 267.034 53.928 266.614 53.484 266.254C53.04 265.882 52.452 265.696 51.72 265.696C51.036 265.696 50.478 265.876 50.046 266.236C49.614 266.584 49.398 267.076 49.398 267.712C49.398 268.168 49.524 268.54 49.776 268.828C50.04 269.116 50.358 269.338 50.73 269.494C51.114 269.638 51.648 269.806 52.332 269.998C53.16 270.226 53.826 270.454 54.33 270.682C54.834 270.898 55.266 271.24 55.626 271.708C55.986 272.164 56.166 272.788 56.166 273.58C56.166 274.192 56.004 274.768 55.68 275.308C55.356 275.848 54.876 276.286 54.24 276.622C53.604 276.958 52.854 277.126 51.99 277.126ZM64.0844 277L60.2144 272.644V277H58.5764V263.68H60.2144V271.51L64.0124 267.136H66.2984L61.6544 272.05L66.3164 277H64.0844ZM68.6861 265.534C68.3741 265.534 68.1101 265.426 67.8941 265.21C67.6781 264.994 67.5701 264.73 67.5701 264.418C67.5701 264.106 67.6781 263.842 67.8941 263.626C68.1101 263.41 68.3741 263.302 68.6861 263.302C68.9861 263.302 69.2381 263.41 69.4421 263.626C69.6581 263.842 69.7661 264.106 69.7661 264.418C69.7661 264.73 69.6581 264.994 69.4421 265.21C69.2381 265.426 68.9861 265.534 68.6861 265.534ZM69.4781 267.136V277H67.8401V267.136H69.4781ZM73.9078 263.68V277H72.2698V263.68H73.9078ZM78.3375 263.68V277H76.6995V263.68H78.3375ZM90.1292 271.69C90.1292 272.002 90.1112 272.332 90.0752 272.68H82.1912C82.2512 273.652 82.5812 274.414 83.1812 274.966C83.7932 275.506 84.5312 275.776 85.3952 275.776C86.1032 275.776 86.6912 275.614 87.1592 275.29C87.6392 274.954 87.9752 274.51 88.1672 273.958H89.9312C89.6672 274.906 89.1392 275.68 88.3472 276.28C87.5552 276.868 86.5712 277.162 85.3952 277.162C84.4592 277.162 83.6192 276.952 82.8752 276.532C82.1432 276.112 81.5672 275.518 81.1472 274.75C80.7272 273.97 80.5172 273.07 80.5172 272.05C80.5172 271.03 80.7212 270.136 81.1292 269.368C81.5372 268.6 82.1072 268.012 82.8392 267.604C83.5832 267.184 84.4352 266.974 85.3952 266.974C86.3312 266.974 87.1592 267.178 87.8792 267.586C88.5992 267.994 89.1512 268.558 89.5352 269.278C89.9312 269.986 90.1292 270.79 90.1292 271.69ZM88.4372 271.348C88.4372 270.724 88.2992 270.19 88.0232 269.746C87.7472 269.29 87.3692 268.948 86.8892 268.72C86.4212 268.48 85.8992 268.36 85.3232 268.36C84.4952 268.36 83.7872 268.624 83.1992 269.152C82.6232 269.68 82.2932 270.412 82.2092 271.348H88.4372ZM91.6793 272.032C91.6793 271.024 91.8833 270.142 92.2913 269.386C92.6993 268.618 93.2573 268.024 93.9653 267.604C94.6853 267.184 95.4893 266.974 96.3773 266.974C97.1453 266.974 97.8593 267.154 98.5193 267.514C99.1793 267.862 99.6833 268.324 100.031 268.9V263.68H101.687V277H100.031V275.146C99.7073 275.734 99.2273 276.22 98.5913 276.604C97.9553 276.976 97.2113 277.162 96.3593 277.162C95.4833 277.162 94.6853 276.946 93.9653 276.514C93.2573 276.082 92.6993 275.476 92.2913 274.696C91.8833 273.916 91.6793 273.028 91.6793 272.032ZM100.031 272.05C100.031 271.306 99.8813 270.658 99.5813 270.106C99.2813 269.554 98.8733 269.134 98.3573 268.846C97.8533 268.546 97.2953 268.396 96.6833 268.396C96.0713 268.396 95.5133 268.54 95.0093 268.828C94.5053 269.116 94.1033 269.536 93.8033 270.088C93.5033 270.64 93.3533 271.288 93.3533 272.032C93.3533 272.788 93.5033 273.448 93.8033 274.012C94.1033 274.564 94.5053 274.99 95.0093 275.29C95.5133 275.578 96.0713 275.722 96.6833 275.722C97.2953 275.722 97.8533 275.578 98.3573 275.29C98.8733 274.99 99.2813 274.564 99.5813 274.012C99.8813 273.448 100.031 272.794 100.031 272.05ZM110.856 264.454V272.392C110.856 273.508 111.126 274.336 111.666 274.876C112.218 275.416 112.98 275.686 113.952 275.686C114.912 275.686 115.662 275.416 116.202 274.876C116.754 274.336 117.03 273.508 117.03 272.392V264.454H118.668V272.374C118.668 273.418 118.458 274.3 118.038 275.02C117.618 275.728 117.048 276.256 116.328 276.604C115.62 276.952 114.822 277.126 113.934 277.126C113.046 277.126 112.242 276.952 111.522 276.604C110.814 276.256 110.25 275.728 109.83 275.02C109.422 274.3 109.218 273.418 109.218 272.374V264.454H110.856ZM123.039 264.454V277H121.401V264.454H123.039ZM131.95 260.044L127.018 280.06H125.398L130.312 260.044H131.95ZM135.993 264.454V272.392C135.993 273.508 136.263 274.336 136.803 274.876C137.355 275.416 138.117 275.686 139.089 275.686C140.049 275.686 140.799 275.416 141.339 274.876C141.891 274.336 142.167 273.508 142.167 272.392V264.454H143.805V272.374C143.805 273.418 143.595 274.3 143.175 275.02C142.755 275.728 142.185 276.256 141.465 276.604C140.757 276.952 139.959 277.126 139.071 277.126C138.183 277.126 137.379 276.952 136.659 276.604C135.951 276.256 135.387 275.728 134.967 275.02C134.559 274.3 134.355 273.418 134.355 272.374V264.454H135.993ZM151.667 270.736L155.519 277H153.665L150.659 272.104L147.797 277H145.979L149.813 270.736L145.961 264.454H147.797L150.821 269.368L153.701 264.454H155.537L151.667 270.736ZM161.904 272.032C161.904 271.024 162.108 270.142 162.516 269.386C162.924 268.618 163.482 268.024 164.19 267.604C164.91 267.184 165.714 266.974 166.602 266.974C167.37 266.974 168.084 267.154 168.744 267.514C169.404 267.862 169.908 268.324 170.256 268.9V263.68H171.912V277H170.256V275.146C169.932 275.734 169.452 276.22 168.816 276.604C168.18 276.976 167.436 277.162 166.584 277.162C165.708 277.162 164.91 276.946 164.19 276.514C163.482 276.082 162.924 275.476 162.516 274.696C162.108 273.916 161.904 273.028 161.904 272.032ZM170.256 272.05C170.256 271.306 170.106 270.658 169.806 270.106C169.506 269.554 169.098 269.134 168.582 268.846C168.078 268.546 167.52 268.396 166.908 268.396C166.296 268.396 165.738 268.54 165.234 268.828C164.73 269.116 164.328 269.536 164.028 270.088C163.728 270.64 163.578 271.288 163.578 272.032C163.578 272.788 163.728 273.448 164.028 274.012C164.328 274.564 164.73 274.99 165.234 275.29C165.738 275.578 166.296 275.722 166.908 275.722C167.52 275.722 168.078 275.578 168.582 275.29C169.098 274.99 169.506 274.564 169.806 274.012C170.106 273.448 170.256 272.794 170.256 272.05ZM183.68 271.69C183.68 272.002 183.662 272.332 183.626 272.68H175.742C175.802 273.652 176.132 274.414 176.732 274.966C177.344 275.506 178.082 275.776 178.946 275.776C179.654 275.776 180.242 275.614 180.71 275.29C181.19 274.954 181.526 274.51 181.718 273.958H183.482C183.218 274.906 182.69 275.68 181.898 276.28C181.106 276.868 180.122 277.162 178.946 277.162C178.01 277.162 177.17 276.952 176.426 276.532C175.694 276.112 175.118 275.518 174.698 274.75C174.278 273.97 174.068 273.07 174.068 272.05C174.068 271.03 174.272 270.136 174.68 269.368C175.088 268.6 175.658 268.012 176.39 267.604C177.134 267.184 177.986 266.974 178.946 266.974C179.882 266.974 180.71 267.178 181.43 267.586C182.15 267.994 182.702 268.558 183.086 269.278C183.482 269.986 183.68 270.79 183.68 271.69ZM181.988 271.348C181.988 270.724 181.85 270.19 181.574 269.746C181.298 269.29 180.92 268.948 180.44 268.72C179.972 268.48 179.45 268.36 178.874 268.36C178.046 268.36 177.338 268.624 176.75 269.152C176.174 269.68 175.844 270.412 175.76 271.348H181.988ZM189.334 277.162C188.578 277.162 187.9 277.036 187.3 276.784C186.7 276.52 186.226 276.16 185.878 275.704C185.53 275.236 185.338 274.702 185.302 274.102H186.994C187.042 274.594 187.27 274.996 187.678 275.308C188.098 275.62 188.644 275.776 189.316 275.776C189.94 275.776 190.432 275.638 190.792 275.362C191.152 275.086 191.332 274.738 191.332 274.318C191.332 273.886 191.14 273.568 190.756 273.364C190.372 273.148 189.778 272.938 188.974 272.734C188.242 272.542 187.642 272.35 187.174 272.158C186.718 271.954 186.322 271.66 185.986 271.276C185.662 270.88 185.5 270.364 185.5 269.728C185.5 269.224 185.65 268.762 185.95 268.342C186.25 267.922 186.676 267.592 187.228 267.352C187.78 267.1 188.41 266.974 189.118 266.974C190.21 266.974 191.092 267.25 191.764 267.802C192.436 268.354 192.796 269.11 192.844 270.07H191.206C191.17 269.554 190.96 269.14 190.576 268.828C190.204 268.516 189.7 268.36 189.064 268.36C188.476 268.36 188.008 268.486 187.66 268.738C187.312 268.99 187.138 269.32 187.138 269.728C187.138 270.052 187.24 270.322 187.444 270.538C187.66 270.742 187.924 270.91 188.236 271.042C188.56 271.162 189.004 271.3 189.568 271.456C190.276 271.648 190.852 271.84 191.296 272.032C191.74 272.212 192.118 272.488 192.43 272.86C192.754 273.232 192.922 273.718 192.934 274.318C192.934 274.858 192.784 275.344 192.484 275.776C192.184 276.208 191.758 276.55 191.206 276.802C190.666 277.042 190.042 277.162 189.334 277.162ZM196.092 265.534C195.78 265.534 195.516 265.426 195.3 265.21C195.084 264.994 194.976 264.73 194.976 264.418C194.976 264.106 195.084 263.842 195.3 263.626C195.516 263.41 195.78 263.302 196.092 263.302C196.392 263.302 196.644 263.41 196.848 263.626C197.064 263.842 197.172 264.106 197.172 264.418C197.172 264.73 197.064 264.994 196.848 265.21C196.644 265.426 196.392 265.534 196.092 265.534ZM196.884 267.136V277H195.246V267.136H196.884ZM203.744 266.974C204.596 266.974 205.34 267.16 205.976 267.532C206.624 267.904 207.104 268.372 207.416 268.936V267.136H209.072V277.216C209.072 278.116 208.88 278.914 208.496 279.61C208.112 280.318 207.56 280.87 206.84 281.266C206.132 281.662 205.304 281.86 204.356 281.86C203.06 281.86 201.98 281.554 201.116 280.942C200.252 280.33 199.742 279.496 199.586 278.44H201.206C201.386 279.04 201.758 279.52 202.322 279.88C202.886 280.252 203.564 280.438 204.356 280.438C205.256 280.438 205.988 280.156 206.552 279.592C207.128 279.028 207.416 278.236 207.416 277.216V275.146C207.092 275.722 206.612 276.202 205.976 276.586C205.34 276.97 204.596 277.162 203.744 277.162C202.868 277.162 202.07 276.946 201.35 276.514C200.642 276.082 200.084 275.476 199.676 274.696C199.268 273.916 199.064 273.028 199.064 272.032C199.064 271.024 199.268 270.142 199.676 269.386C200.084 268.618 200.642 268.024 201.35 267.604C202.07 267.184 202.868 266.974 203.744 266.974ZM207.416 272.05C207.416 271.306 207.266 270.658 206.966 270.106C206.666 269.554 206.258 269.134 205.742 268.846C205.238 268.546 204.68 268.396 204.068 268.396C203.456 268.396 202.898 268.54 202.394 268.828C201.89 269.116 201.488 269.536 201.188 270.088C200.888 270.64 200.738 271.288 200.738 272.032C200.738 272.788 200.888 273.448 201.188 274.012C201.488 274.564 201.89 274.99 202.394 275.29C202.898 275.578 203.456 275.722 204.068 275.722C204.68 275.722 205.238 275.578 205.742 275.29C206.258 274.99 206.666 274.564 206.966 274.012C207.266 273.448 207.416 272.794 207.416 272.05ZM216.646 266.956C217.846 266.956 218.818 267.322 219.562 268.054C220.306 268.774 220.678 269.818 220.678 271.186V277H219.058V271.42C219.058 270.436 218.812 269.686 218.32 269.17C217.828 268.642 217.156 268.378 216.304 268.378C215.44 268.378 214.75 268.648 214.234 269.188C213.73 269.728 213.478 270.514 213.478 271.546V277H211.84V267.136H213.478V268.54C213.802 268.036 214.24 267.646 214.792 267.37C215.356 267.094 215.974 266.956 216.646 266.956ZM232.354 271.69C232.354 272.002 232.336 272.332 232.3 272.68H224.416C224.476 273.652 224.806 274.414 225.406 274.966C226.018 275.506 226.756 275.776 227.62 275.776C228.328 275.776 228.916 275.614 229.384 275.29C229.864 274.954 230.2 274.51 230.392 273.958H232.156C231.892 274.906 231.364 275.68 230.572 276.28C229.78 276.868 228.796 277.162 227.62 277.162C226.684 277.162 225.844 276.952 225.1 276.532C224.368 276.112 223.792 275.518 223.372 274.75C222.952 273.97 222.742 273.07 222.742 272.05C222.742 271.03 222.946 270.136 223.354 269.368C223.762 268.6 224.332 268.012 225.064 267.604C225.808 267.184 226.66 266.974 227.62 266.974C228.556 266.974 229.384 267.178 230.104 267.586C230.824 267.994 231.376 268.558 231.76 269.278C232.156 269.986 232.354 270.79 232.354 271.69ZM230.662 271.348C230.662 270.724 230.524 270.19 230.248 269.746C229.972 269.29 229.594 268.948 229.114 268.72C228.646 268.48 228.124 268.36 227.548 268.36C226.72 268.36 226.012 268.624 225.424 269.152C224.848 269.68 224.518 270.412 224.434 271.348H230.662ZM236.154 268.738C236.442 268.174 236.85 267.736 237.378 267.424C237.918 267.112 238.572 266.956 239.34 266.956V268.648H238.908C237.072 268.648 236.154 269.644 236.154 271.636V277H234.516V267.136H236.154V268.738ZM245.418 272.032C245.418 271.024 245.622 270.142 246.03 269.386C246.438 268.618 246.996 268.024 247.704 267.604C248.424 267.184 249.222 266.974 250.098 266.974C250.962 266.974 251.712 267.16 252.348 267.532C252.984 267.904 253.458 268.372 253.77 268.936V267.136H255.426V277H253.77V275.164C253.446 275.74 252.96 276.22 252.312 276.604C251.676 276.976 250.932 277.162 250.08 277.162C249.204 277.162 248.412 276.946 247.704 276.514C246.996 276.082 246.438 275.476 246.03 274.696C245.622 273.916 245.418 273.028 245.418 272.032ZM253.77 272.05C253.77 271.306 253.62 270.658 253.32 270.106C253.02 269.554 252.612 269.134 252.096 268.846C251.592 268.546 251.034 268.396 250.422 268.396C249.81 268.396 249.252 268.54 248.748 268.828C248.244 269.116 247.842 269.536 247.542 270.088C247.242 270.64 247.092 271.288 247.092 272.032C247.092 272.788 247.242 273.448 247.542 274.012C247.842 274.564 248.244 274.99 248.748 275.29C249.252 275.578 249.81 275.722 250.422 275.722C251.034 275.722 251.592 275.578 252.096 275.29C252.612 274.99 253.02 274.564 253.32 274.012C253.62 273.448 253.77 272.794 253.77 272.05ZM257.582 272.032C257.582 271.024 257.786 270.142 258.194 269.386C258.602 268.618 259.16 268.024 259.868 267.604C260.588 267.184 261.392 266.974 262.28 266.974C263.048 266.974 263.762 267.154 264.422 267.514C265.082 267.862 265.586 268.324 265.934 268.9V263.68H267.59V277H265.934V275.146C265.61 275.734 265.13 276.22 264.494 276.604C263.858 276.976 263.114 277.162 262.262 277.162C261.386 277.162 260.588 276.946 259.868 276.514C259.16 276.082 258.602 275.476 258.194 274.696C257.786 273.916 257.582 273.028 257.582 272.032ZM265.934 272.05C265.934 271.306 265.784 270.658 265.484 270.106C265.184 269.554 264.776 269.134 264.26 268.846C263.756 268.546 263.198 268.396 262.586 268.396C261.974 268.396 261.416 268.54 260.912 268.828C260.408 269.116 260.006 269.536 259.706 270.088C259.406 270.64 259.256 271.288 259.256 272.032C259.256 272.788 259.406 273.448 259.706 274.012C260.006 274.564 260.408 274.99 260.912 275.29C261.416 275.578 261.974 275.722 262.586 275.722C263.198 275.722 263.756 275.578 264.26 275.29C264.776 274.99 265.184 274.564 265.484 274.012C265.784 273.448 265.934 272.794 265.934 272.05ZM279.358 271.69C279.358 272.002 279.34 272.332 279.304 272.68H271.42C271.48 273.652 271.81 274.414 272.41 274.966C273.022 275.506 273.76 275.776 274.624 275.776C275.332 275.776 275.92 275.614 276.388 275.29C276.868 274.954 277.204 274.51 277.396 273.958H279.16C278.896 274.906 278.368 275.68 277.576 276.28C276.784 276.868 275.8 277.162 274.624 277.162C273.688 277.162 272.848 276.952 272.104 276.532C271.372 276.112 270.796 275.518 270.376 274.75C269.956 273.97 269.746 273.07 269.746 272.05C269.746 271.03 269.95 270.136 270.358 269.368C270.766 268.6 271.336 268.012 272.068 267.604C272.812 267.184 273.664 266.974 274.624 266.974C275.56 266.974 276.388 267.178 277.108 267.586C277.828 267.994 278.38 268.558 278.764 269.278C279.16 269.986 279.358 270.79 279.358 271.69ZM277.666 271.348C277.666 270.724 277.528 270.19 277.252 269.746C276.976 269.29 276.598 268.948 276.118 268.72C275.65 268.48 275.128 268.36 274.552 268.36C273.724 268.36 273.016 268.624 272.428 269.152C271.852 269.68 271.522 270.412 271.438 271.348H277.666ZM283.158 268.954C283.482 268.39 283.962 267.922 284.598 267.55C285.246 267.166 285.996 266.974 286.848 266.974C287.724 266.974 288.516 267.184 289.224 267.604C289.944 268.024 290.508 268.618 290.916 269.386C291.324 270.142 291.528 271.024 291.528 272.032C291.528 273.028 291.324 273.916 290.916 274.696C290.508 275.476 289.944 276.082 289.224 276.514C288.516 276.946 287.724 277.162 286.848 277.162C286.008 277.162 285.264 276.976 284.616 276.604C283.98 276.22 283.494 275.746 283.158 275.182V281.68H281.52V267.136H283.158V268.954ZM289.854 272.032C289.854 271.288 289.704 270.64 289.404 270.088C289.104 269.536 288.696 269.116 288.18 268.828C287.676 268.54 287.118 268.396 286.506 268.396C285.906 268.396 285.348 268.546 284.832 268.846C284.328 269.134 283.92 269.56 283.608 270.124C283.308 270.676 283.158 271.318 283.158 272.05C283.158 272.794 283.308 273.448 283.608 274.012C283.92 274.564 284.328 274.99 284.832 275.29C285.348 275.578 285.906 275.722 286.506 275.722C287.118 275.722 287.676 275.578 288.18 275.29C288.696 274.99 289.104 274.564 289.404 274.012C289.704 273.448 289.854 272.788 289.854 272.032ZM295.682 268.486V274.3C295.682 274.78 295.784 275.122 295.988 275.326C296.192 275.518 296.546 275.614 297.05 275.614H298.256V277H296.78C295.868 277 295.184 276.79 294.728 276.37C294.272 275.95 294.044 275.26 294.044 274.3V268.486H292.766V267.136H294.044V264.652H295.682V267.136H298.256V268.486H295.682ZM304.427 272.032C304.427 271.024 304.631 270.142 305.039 269.386C305.447 268.618 306.005 268.024 306.713 267.604C307.433 267.184 308.231 266.974 309.107 266.974C309.971 266.974 310.721 267.16 311.357 267.532C311.993 267.904 312.467 268.372 312.779 268.936V267.136H314.435V277H312.779V275.164C312.455 275.74 311.969 276.22 311.321 276.604C310.685 276.976 309.941 277.162 309.089 277.162C308.213 277.162 307.421 276.946 306.713 276.514C306.005 276.082 305.447 275.476 305.039 274.696C304.631 273.916 304.427 273.028 304.427 272.032ZM312.779 272.05C312.779 271.306 312.629 270.658 312.329 270.106C312.029 269.554 311.621 269.134 311.105 268.846C310.601 268.546 310.043 268.396 309.431 268.396C308.819 268.396 308.261 268.54 307.757 268.828C307.253 269.116 306.851 269.536 306.551 270.088C306.251 270.64 306.101 271.288 306.101 272.032C306.101 272.788 306.251 273.448 306.551 274.012C306.851 274.564 307.253 274.99 307.757 275.29C308.261 275.578 308.819 275.722 309.431 275.722C310.043 275.722 310.601 275.578 311.105 275.29C311.621 274.99 312.029 274.564 312.329 274.012C312.629 273.448 312.779 272.794 312.779 272.05ZM319.201 268.486V274.3C319.201 274.78 319.303 275.122 319.507 275.326C319.711 275.518 320.065 275.614 320.569 275.614H321.775V277H320.299C319.387 277 318.703 276.79 318.247 276.37C317.791 275.95 317.563 275.26 317.563 274.3V268.486H316.285V267.136H317.563V264.652H319.201V267.136H321.775V268.486H319.201ZM53.6929 296.05C53.6929 295.03 53.8969 294.142 54.3049 293.386C54.7129 292.618 55.2769 292.024 55.9969 291.604C56.7289 291.184 57.5629 290.974 58.4989 290.974C59.7109 290.974 60.7069 291.268 61.4869 291.856C62.2789 292.444 62.8009 293.26 63.0529 294.304H61.2889C61.1209 293.704 60.7909 293.23 60.2989 292.882C59.8189 292.534 59.2189 292.36 58.4989 292.36C57.5629 292.36 56.8069 292.684 56.2309 293.332C55.6549 293.968 55.3669 294.874 55.3669 296.05C55.3669 297.238 55.6549 298.156 56.2309 298.804C56.8069 299.452 57.5629 299.776 58.4989 299.776C59.2189 299.776 59.8189 299.608 60.2989 299.272C60.7789 298.936 61.1089 298.456 61.2889 297.832H63.0529C62.7889 298.84 62.2609 299.65 61.4689 300.262C60.6769 300.862 59.6869 301.162 58.4989 301.162C57.5629 301.162 56.7289 300.952 55.9969 300.532C55.2769 300.112 54.7129 299.518 54.3049 298.75C53.8969 297.982 53.6929 297.082 53.6929 296.05ZM66.8765 292.738C67.1645 292.174 67.5725 291.736 68.1005 291.424C68.6405 291.112 69.2945 290.956 70.0625 290.956V292.648H69.6305C67.7945 292.648 66.8765 293.644 66.8765 295.636V301H65.2385V291.136H66.8765V292.738ZM80.9534 295.69C80.9534 296.002 80.9354 296.332 80.8994 296.68H73.0154C73.0754 297.652 73.4054 298.414 74.0054 298.966C74.6174 299.506 75.3554 299.776 76.2194 299.776C76.9274 299.776 77.5154 299.614 77.9834 299.29C78.4634 298.954 78.7994 298.51 78.9914 297.958H80.7554C80.4914 298.906 79.9634 299.68 79.1714 300.28C78.3794 300.868 77.3954 301.162 76.2194 301.162C75.2834 301.162 74.4434 300.952 73.6994 300.532C72.9674 300.112 72.3914 299.518 71.9714 298.75C71.5514 297.97 71.3414 297.07 71.3414 296.05C71.3414 295.03 71.5454 294.136 71.9534 293.368C72.3614 292.6 72.9314 292.012 73.6634 291.604C74.4074 291.184 75.2594 290.974 76.2194 290.974C77.1554 290.974 77.9834 291.178 78.7034 291.586C79.4234 291.994 79.9754 292.558 80.3594 293.278C80.7554 293.986 80.9534 294.79 80.9534 295.69ZM79.2614 295.348C79.2614 294.724 79.1234 294.19 78.8474 293.746C78.5714 293.29 78.1934 292.948 77.7134 292.72C77.2454 292.48 76.7234 292.36 76.1474 292.36C75.3194 292.36 74.6114 292.624 74.0234 293.152C73.4474 293.68 73.1174 294.412 73.0334 295.348H79.2614ZM82.5035 296.032C82.5035 295.024 82.7075 294.142 83.1155 293.386C83.5235 292.618 84.0815 292.024 84.7895 291.604C85.5095 291.184 86.3075 290.974 87.1835 290.974C88.0475 290.974 88.7975 291.16 89.4335 291.532C90.0695 291.904 90.5435 292.372 90.8555 292.936V291.136H92.5115V301H90.8555V299.164C90.5315 299.74 90.0455 300.22 89.3975 300.604C88.7615 300.976 88.0175 301.162 87.1655 301.162C86.2895 301.162 85.4975 300.946 84.7895 300.514C84.0815 300.082 83.5235 299.476 83.1155 298.696C82.7075 297.916 82.5035 297.028 82.5035 296.032ZM90.8555 296.05C90.8555 295.306 90.7055 294.658 90.4055 294.106C90.1055 293.554 89.6975 293.134 89.1815 292.846C88.6775 292.546 88.1195 292.396 87.5075 292.396C86.8955 292.396 86.3375 292.54 85.8335 292.828C85.3295 293.116 84.9275 293.536 84.6275 294.088C84.3275 294.64 84.1775 295.288 84.1775 296.032C84.1775 296.788 84.3275 297.448 84.6275 298.012C84.9275 298.564 85.3295 298.99 85.8335 299.29C86.3375 299.578 86.8955 299.722 87.5075 299.722C88.1195 299.722 88.6775 299.578 89.1815 299.29C89.6975 298.99 90.1055 298.564 90.4055 298.012C90.7055 297.448 90.8555 296.794 90.8555 296.05ZM97.2776 292.486V298.3C97.2776 298.78 97.3796 299.122 97.5836 299.326C97.7876 299.518 98.1416 299.614 98.6456 299.614H99.8516V301H98.3756C97.4636 301 96.7796 300.79 96.3236 300.37C95.8676 299.95 95.6396 299.26 95.6396 298.3V292.486H94.3616V291.136H95.6396V288.652H97.2776V291.136H99.8516V292.486H97.2776ZM102.682 289.534C102.37 289.534 102.106 289.426 101.89 289.21C101.674 288.994 101.566 288.73 101.566 288.418C101.566 288.106 101.674 287.842 101.89 287.626C102.106 287.41 102.37 287.302 102.682 287.302C102.982 287.302 103.234 287.41 103.438 287.626C103.654 287.842 103.762 288.106 103.762 288.418C103.762 288.73 103.654 288.994 103.438 289.21C103.234 289.426 102.982 289.534 102.682 289.534ZM103.474 291.136V301H101.836V291.136H103.474ZM111.072 290.956C112.272 290.956 113.244 291.322 113.988 292.054C114.732 292.774 115.104 293.818 115.104 295.186V301H113.484V295.42C113.484 294.436 113.238 293.686 112.746 293.17C112.254 292.642 111.582 292.378 110.73 292.378C109.866 292.378 109.176 292.648 108.66 293.188C108.156 293.728 107.904 294.514 107.904 295.546V301H106.266V291.136H107.904V292.54C108.228 292.036 108.666 291.646 109.218 291.37C109.782 291.094 110.4 290.956 111.072 290.956ZM121.848 290.974C122.7 290.974 123.444 291.16 124.08 291.532C124.728 291.904 125.208 292.372 125.52 292.936V291.136H127.176V301.216C127.176 302.116 126.984 302.914 126.6 303.61C126.216 304.318 125.664 304.87 124.944 305.266C124.236 305.662 123.408 305.86 122.46 305.86C121.164 305.86 120.084 305.554 119.22 304.942C118.356 304.33 117.846 303.496 117.69 302.44H119.31C119.49 303.04 119.862 303.52 120.426 303.88C120.99 304.252 121.668 304.438 122.46 304.438C123.36 304.438 124.092 304.156 124.656 303.592C125.232 303.028 125.52 302.236 125.52 301.216V299.146C125.196 299.722 124.716 300.202 124.08 300.586C123.444 300.97 122.7 301.162 121.848 301.162C120.972 301.162 120.174 300.946 119.454 300.514C118.746 300.082 118.188 299.476 117.78 298.696C117.372 297.916 117.168 297.028 117.168 296.032C117.168 295.024 117.372 294.142 117.78 293.386C118.188 292.618 118.746 292.024 119.454 291.604C120.174 291.184 120.972 290.974 121.848 290.974ZM125.52 296.05C125.52 295.306 125.37 294.658 125.07 294.106C124.77 293.554 124.362 293.134 123.846 292.846C123.342 292.546 122.784 292.396 122.172 292.396C121.56 292.396 121.002 292.54 120.498 292.828C119.994 293.116 119.592 293.536 119.292 294.088C118.992 294.64 118.842 295.288 118.842 296.032C118.842 296.788 118.992 297.448 119.292 298.012C119.592 298.564 119.994 298.99 120.498 299.29C121.002 299.578 121.56 299.722 122.172 299.722C122.784 299.722 123.342 299.578 123.846 299.29C124.362 298.99 124.77 298.564 125.07 298.012C125.37 297.448 125.52 296.794 125.52 296.05ZM135.588 289.534C135.276 289.534 135.012 289.426 134.796 289.21C134.58 288.994 134.472 288.73 134.472 288.418C134.472 288.106 134.58 287.842 134.796 287.626C135.012 287.41 135.276 287.302 135.588 287.302C135.888 287.302 136.14 287.41 136.344 287.626C136.56 287.842 136.668 288.106 136.668 288.418C136.668 288.73 136.56 288.994 136.344 289.21C136.14 289.426 135.888 289.534 135.588 289.534ZM136.38 291.136V301H134.742V291.136H136.38ZM143.978 290.956C145.178 290.956 146.15 291.322 146.894 292.054C147.638 292.774 148.01 293.818 148.01 295.186V301H146.39V295.42C146.39 294.436 146.144 293.686 145.652 293.17C145.16 292.642 144.488 292.378 143.636 292.378C142.772 292.378 142.082 292.648 141.566 293.188C141.062 293.728 140.81 294.514 140.81 295.546V301H139.172V291.136H140.81V292.54C141.134 292.036 141.572 291.646 142.124 291.37C142.688 291.094 143.306 290.956 143.978 290.956ZM152.684 292.486V298.3C152.684 298.78 152.786 299.122 152.99 299.326C153.194 299.518 153.548 299.614 154.052 299.614H155.258V301H153.782C152.87 301 152.186 300.79 151.73 300.37C151.274 299.95 151.046 299.26 151.046 298.3V292.486H149.768V291.136H151.046V288.652H152.684V291.136H155.258V292.486H152.684ZM165.99 291.136V301H164.352V299.542C164.04 300.046 163.602 300.442 163.038 300.73C162.486 301.006 161.874 301.144 161.202 301.144C160.434 301.144 159.744 300.988 159.132 300.676C158.52 300.352 158.034 299.872 157.674 299.236C157.326 298.6 157.152 297.826 157.152 296.914V291.136H158.772V296.698C158.772 297.67 159.018 298.42 159.51 298.948C160.002 299.464 160.674 299.722 161.526 299.722C162.402 299.722 163.092 299.452 163.596 298.912C164.1 298.372 164.352 297.586 164.352 296.554V291.136H165.99ZM169.602 289.534C169.29 289.534 169.026 289.426 168.81 289.21C168.594 288.994 168.486 288.73 168.486 288.418C168.486 288.106 168.594 287.842 168.81 287.626C169.026 287.41 169.29 287.302 169.602 287.302C169.902 287.302 170.154 287.41 170.358 287.626C170.574 287.842 170.682 288.106 170.682 288.418C170.682 288.73 170.574 288.994 170.358 289.21C170.154 289.426 169.902 289.534 169.602 289.534ZM170.394 291.136V301H168.756V291.136H170.394ZM175.184 292.486V298.3C175.184 298.78 175.286 299.122 175.49 299.326C175.694 299.518 176.048 299.614 176.552 299.614H177.758V301H176.282C175.37 301 174.686 300.79 174.23 300.37C173.774 299.95 173.546 299.26 173.546 298.3V292.486H172.268V291.136H173.546V288.652H175.184V291.136H177.758V292.486H175.184ZM180.588 289.534C180.276 289.534 180.012 289.426 179.796 289.21C179.58 288.994 179.472 288.73 179.472 288.418C179.472 288.106 179.58 287.842 179.796 287.626C180.012 287.41 180.276 287.302 180.588 287.302C180.888 287.302 181.14 287.41 181.344 287.626C181.56 287.842 181.668 288.106 181.668 288.418C181.668 288.73 181.56 288.994 181.344 289.21C181.14 289.426 180.888 289.534 180.588 289.534ZM181.38 291.136V301H179.742V291.136H181.38ZM187.844 299.488L190.904 291.136H192.65L188.78 301H186.872L183.002 291.136H184.766L187.844 299.488ZM203.262 295.69C203.262 296.002 203.244 296.332 203.208 296.68H195.324C195.384 297.652 195.714 298.414 196.314 298.966C196.926 299.506 197.664 299.776 198.528 299.776C199.236 299.776 199.824 299.614 200.292 299.29C200.772 298.954 201.108 298.51 201.3 297.958H203.064C202.8 298.906 202.272 299.68 201.48 300.28C200.688 300.868 199.704 301.162 198.528 301.162C197.592 301.162 196.752 300.952 196.008 300.532C195.276 300.112 194.7 299.518 194.28 298.75C193.86 297.97 193.65 297.07 193.65 296.05C193.65 295.03 193.854 294.136 194.262 293.368C194.67 292.6 195.24 292.012 195.972 291.604C196.716 291.184 197.568 290.974 198.528 290.974C199.464 290.974 200.292 291.178 201.012 291.586C201.732 291.994 202.284 292.558 202.668 293.278C203.064 293.986 203.262 294.79 203.262 295.69ZM201.57 295.348C201.57 294.724 201.432 294.19 201.156 293.746C200.88 293.29 200.502 292.948 200.022 292.72C199.554 292.48 199.032 292.36 198.456 292.36C197.628 292.36 196.92 292.624 196.332 293.152C195.756 293.68 195.426 294.412 195.342 295.348H201.57ZM209.611 296.032C209.611 295.024 209.815 294.142 210.223 293.386C210.631 292.618 211.189 292.024 211.897 291.604C212.617 291.184 213.415 290.974 214.291 290.974C215.155 290.974 215.905 291.16 216.541 291.532C217.177 291.904 217.651 292.372 217.963 292.936V291.136H219.619V301H217.963V299.164C217.639 299.74 217.153 300.22 216.505 300.604C215.869 300.976 215.125 301.162 214.273 301.162C213.397 301.162 212.605 300.946 211.897 300.514C211.189 300.082 210.631 299.476 210.223 298.696C209.815 297.916 209.611 297.028 209.611 296.032ZM217.963 296.05C217.963 295.306 217.813 294.658 217.513 294.106C217.213 293.554 216.805 293.134 216.289 292.846C215.785 292.546 215.227 292.396 214.615 292.396C214.003 292.396 213.445 292.54 212.941 292.828C212.437 293.116 212.035 293.536 211.735 294.088C211.435 294.64 211.285 295.288 211.285 296.032C211.285 296.788 211.435 297.448 211.735 298.012C212.035 298.564 212.437 298.99 212.941 299.29C213.445 299.578 214.003 299.722 214.615 299.722C215.227 299.722 215.785 299.578 216.289 299.29C216.805 298.99 217.213 298.564 217.513 298.012C217.813 297.448 217.963 296.794 217.963 296.05ZM227.193 290.956C228.393 290.956 229.365 291.322 230.109 292.054C230.853 292.774 231.225 293.818 231.225 295.186V301H229.605V295.42C229.605 294.436 229.359 293.686 228.867 293.17C228.375 292.642 227.703 292.378 226.851 292.378C225.987 292.378 225.297 292.648 224.781 293.188C224.277 293.728 224.025 294.514 224.025 295.546V301H222.387V291.136H224.025V292.54C224.349 292.036 224.787 291.646 225.339 291.37C225.903 291.094 226.521 290.956 227.193 290.956ZM233.289 296.032C233.289 295.024 233.493 294.142 233.901 293.386C234.309 292.618 234.867 292.024 235.575 291.604C236.295 291.184 237.099 290.974 237.987 290.974C238.755 290.974 239.469 291.154 240.129 291.514C240.789 291.862 241.293 292.324 241.641 292.9V287.68H243.297V301H241.641V299.146C241.317 299.734 240.837 300.22 240.201 300.604C239.565 300.976 238.821 301.162 237.969 301.162C237.093 301.162 236.295 300.946 235.575 300.514C234.867 300.082 234.309 299.476 233.901 298.696C233.493 297.916 233.289 297.028 233.289 296.032ZM241.641 296.05C241.641 295.306 241.491 294.658 241.191 294.106C240.891 293.554 240.483 293.134 239.967 292.846C239.463 292.546 238.905 292.396 238.293 292.396C237.681 292.396 237.123 292.54 236.619 292.828C236.115 293.116 235.713 293.536 235.413 294.088C235.113 294.64 234.963 295.288 234.963 296.032C234.963 296.788 235.113 297.448 235.413 298.012C235.713 298.564 236.115 298.99 236.619 299.29C237.123 299.578 237.681 299.722 238.293 299.722C238.905 299.722 239.463 299.578 239.967 299.29C240.483 298.99 240.891 298.564 241.191 298.012C241.491 297.448 241.641 296.794 241.641 296.05ZM254.536 299.488L257.596 291.136H259.342L255.472 301H253.564L249.694 291.136H251.458L254.536 299.488ZM261.799 289.534C261.487 289.534 261.223 289.426 261.007 289.21C260.791 288.994 260.683 288.73 260.683 288.418C260.683 288.106 260.791 287.842 261.007 287.626C261.223 287.41 261.487 287.302 261.799 287.302C262.099 287.302 262.351 287.41 262.555 287.626C262.771 287.842 262.879 288.106 262.879 288.418C262.879 288.73 262.771 288.994 262.555 289.21C262.351 289.426 262.099 289.534 261.799 289.534ZM262.591 291.136V301H260.953V291.136H262.591ZM268.875 301.162C268.119 301.162 267.441 301.036 266.841 300.784C266.241 300.52 265.767 300.16 265.419 299.704C265.071 299.236 264.879 298.702 264.843 298.102H266.535C266.583 298.594 266.811 298.996 267.219 299.308C267.639 299.62 268.185 299.776 268.857 299.776C269.481 299.776 269.973 299.638 270.333 299.362C270.693 299.086 270.873 298.738 270.873 298.318C270.873 297.886 270.681 297.568 270.297 297.364C269.913 297.148 269.319 296.938 268.515 296.734C267.783 296.542 267.183 296.35 266.715 296.158C266.259 295.954 265.863 295.66 265.527 295.276C265.203 294.88 265.041 294.364 265.041 293.728C265.041 293.224 265.191 292.762 265.491 292.342C265.791 291.922 266.217 291.592 266.769 291.352C267.321 291.1 267.951 290.974 268.659 290.974C269.751 290.974 270.633 291.25 271.305 291.802C271.977 292.354 272.337 293.11 272.385 294.07H270.747C270.711 293.554 270.501 293.14 270.117 292.828C269.745 292.516 269.241 292.36 268.605 292.36C268.017 292.36 267.549 292.486 267.201 292.738C266.853 292.99 266.679 293.32 266.679 293.728C266.679 294.052 266.781 294.322 266.985 294.538C267.201 294.742 267.465 294.91 267.777 295.042C268.101 295.162 268.545 295.3 269.109 295.456C269.817 295.648 270.393 295.84 270.837 296.032C271.281 296.212 271.659 296.488 271.971 296.86C272.295 297.232 272.463 297.718 272.475 298.318C272.475 298.858 272.325 299.344 272.025 299.776C271.725 300.208 271.299 300.55 270.747 300.802C270.207 301.042 269.583 301.162 268.875 301.162ZM283.535 291.136V301H281.897V299.542C281.585 300.046 281.147 300.442 280.583 300.73C280.031 301.006 279.419 301.144 278.747 301.144C277.979 301.144 277.289 300.988 276.677 300.676C276.065 300.352 275.579 299.872 275.219 299.236C274.871 298.6 274.697 297.826 274.697 296.914V291.136H276.317V296.698C276.317 297.67 276.563 298.42 277.055 298.948C277.547 299.464 278.219 299.722 279.071 299.722C279.947 299.722 280.637 299.452 281.141 298.912C281.645 298.372 281.897 297.586 281.897 296.554V291.136H283.535ZM285.689 296.032C285.689 295.024 285.893 294.142 286.301 293.386C286.709 292.618 287.267 292.024 287.975 291.604C288.695 291.184 289.493 290.974 290.369 290.974C291.233 290.974 291.983 291.16 292.619 291.532C293.255 291.904 293.729 292.372 294.041 292.936V291.136H295.697V301H294.041V299.164C293.717 299.74 293.231 300.22 292.583 300.604C291.947 300.976 291.203 301.162 290.351 301.162C289.475 301.162 288.683 300.946 287.975 300.514C287.267 300.082 286.709 299.476 286.301 298.696C285.893 297.916 285.689 297.028 285.689 296.032ZM294.041 296.05C294.041 295.306 293.891 294.658 293.591 294.106C293.291 293.554 292.883 293.134 292.367 292.846C291.863 292.546 291.305 292.396 290.693 292.396C290.081 292.396 289.523 292.54 289.019 292.828C288.515 293.116 288.113 293.536 287.813 294.088C287.513 294.64 287.363 295.288 287.363 296.032C287.363 296.788 287.513 297.448 287.813 298.012C288.113 298.564 288.515 298.99 289.019 299.29C289.523 299.578 290.081 299.722 290.693 299.722C291.305 299.722 291.863 299.578 292.367 299.29C292.883 298.99 293.291 298.564 293.591 298.012C293.891 297.448 294.041 296.794 294.041 296.05ZM300.103 287.68V301H298.465V287.68H300.103ZM304.533 287.68V301H302.895V287.68H304.533ZM315.82 291.136L309.88 305.644H308.188L310.132 300.892L306.154 291.136H307.972L311.068 299.128L314.128 291.136H315.82ZM39.8941 320.032C39.8941 319.024 40.0981 318.142 40.5061 317.386C40.9141 316.618 41.4721 316.024 42.1801 315.604C42.9001 315.184 43.6981 314.974 44.5741 314.974C45.4381 314.974 46.1881 315.16 46.8241 315.532C47.4601 315.904 47.9341 316.372 48.2461 316.936V315.136H49.9021V325H48.2461V323.164C47.9221 323.74 47.4361 324.22 46.7881 324.604C46.1521 324.976 45.4081 325.162 44.5561 325.162C43.6801 325.162 42.8881 324.946 42.1801 324.514C41.4721 324.082 40.9141 323.476 40.5061 322.696C40.0981 321.916 39.8941 321.028 39.8941 320.032ZM48.2461 320.05C48.2461 319.306 48.0961 318.658 47.7961 318.106C47.4961 317.554 47.0881 317.134 46.5721 316.846C46.0681 316.546 45.5101 316.396 44.8981 316.396C44.2861 316.396 43.7281 316.54 43.2241 316.828C42.7201 317.116 42.3181 317.536 42.0181 318.088C41.7181 318.64 41.5681 319.288 41.5681 320.032C41.5681 320.788 41.7181 321.448 42.0181 322.012C42.3181 322.564 42.7201 322.99 43.2241 323.29C43.7281 323.578 44.2861 323.722 44.8981 323.722C45.5101 323.722 46.0681 323.578 46.5721 323.29C47.0881 322.99 47.4961 322.564 47.7961 322.012C48.0961 321.448 48.2461 320.794 48.2461 320.05ZM54.3082 316.954C54.6322 316.39 55.1122 315.922 55.7482 315.55C56.3962 315.166 57.1462 314.974 57.9982 314.974C58.8742 314.974 59.6662 315.184 60.3742 315.604C61.0942 316.024 61.6582 316.618 62.0662 317.386C62.4742 318.142 62.6782 319.024 62.6782 320.032C62.6782 321.028 62.4742 321.916 62.0662 322.696C61.6582 323.476 61.0942 324.082 60.3742 324.514C59.6662 324.946 58.8742 325.162 57.9982 325.162C57.1582 325.162 56.4142 324.976 55.7662 324.604C55.1302 324.22 54.6442 323.746 54.3082 323.182V329.68H52.6702V315.136H54.3082V316.954ZM61.0042 320.032C61.0042 319.288 60.8542 318.64 60.5542 318.088C60.2542 317.536 59.8462 317.116 59.3302 316.828C58.8262 316.54 58.2682 316.396 57.6562 316.396C57.0562 316.396 56.4982 316.546 55.9822 316.846C55.4782 317.134 55.0702 317.56 54.7582 318.124C54.4582 318.676 54.3082 319.318 54.3082 320.05C54.3082 320.794 54.4582 321.448 54.7582 322.012C55.0702 322.564 55.4782 322.99 55.9822 323.29C56.4982 323.578 57.0562 323.722 57.6562 323.722C58.2682 323.722 58.8262 323.578 59.3302 323.29C59.8462 322.99 60.2542 322.564 60.5542 322.012C60.8542 321.448 61.0042 320.788 61.0042 320.032ZM66.4722 316.954C66.7962 316.39 67.2762 315.922 67.9122 315.55C68.5602 315.166 69.3102 314.974 70.1622 314.974C71.0382 314.974 71.8302 315.184 72.5382 315.604C73.2582 316.024 73.8222 316.618 74.2302 317.386C74.6382 318.142 74.8422 319.024 74.8422 320.032C74.8422 321.028 74.6382 321.916 74.2302 322.696C73.8222 323.476 73.2582 324.082 72.5382 324.514C71.8302 324.946 71.0382 325.162 70.1622 325.162C69.3222 325.162 68.5782 324.976 67.9302 324.604C67.2942 324.22 66.8082 323.746 66.4722 323.182V329.68H64.8342V315.136H66.4722V316.954ZM73.1682 320.032C73.1682 319.288 73.0182 318.64 72.7182 318.088C72.4182 317.536 72.0102 317.116 71.4942 316.828C70.9902 316.54 70.4322 316.396 69.8202 316.396C69.2202 316.396 68.6622 316.546 68.1462 316.846C67.6422 317.134 67.2342 317.56 66.9222 318.124C66.6222 318.676 66.4722 319.318 66.4722 320.05C66.4722 320.794 66.6222 321.448 66.9222 322.012C67.2342 322.564 67.6422 322.99 68.1462 323.29C68.6622 323.578 69.2202 323.722 69.8202 323.722C70.4322 323.722 70.9902 323.578 71.4942 323.29C72.0102 322.99 72.4182 322.564 72.7182 322.012C73.0182 321.448 73.1682 320.788 73.1682 320.032ZM85.9983 319.69C85.9983 320.002 85.9803 320.332 85.9443 320.68H78.0603C78.1203 321.652 78.4503 322.414 79.0503 322.966C79.6623 323.506 80.4003 323.776 81.2643 323.776C81.9723 323.776 82.5603 323.614 83.0283 323.29C83.5083 322.954 83.8443 322.51 84.0363 321.958H85.8003C85.5363 322.906 85.0083 323.68 84.2163 324.28C83.4243 324.868 82.4403 325.162 81.2643 325.162C80.3283 325.162 79.4883 324.952 78.7443 324.532C78.0123 324.112 77.4363 323.518 77.0163 322.75C76.5963 321.97 76.3863 321.07 76.3863 320.05C76.3863 319.03 76.5903 318.136 76.9983 317.368C77.4063 316.6 77.9763 316.012 78.7083 315.604C79.4523 315.184 80.3043 314.974 81.2643 314.974C82.2003 314.974 83.0283 315.178 83.7483 315.586C84.4683 315.994 85.0203 316.558 85.4043 317.278C85.8003 317.986 85.9983 318.79 85.9983 319.69ZM84.3063 319.348C84.3063 318.724 84.1683 318.19 83.8923 317.746C83.6163 317.29 83.2383 316.948 82.7583 316.72C82.2903 316.48 81.7683 316.36 81.1923 316.36C80.3643 316.36 79.6563 316.624 79.0683 317.152C78.4923 317.68 78.1623 318.412 78.0783 319.348H84.3063ZM87.5484 320.032C87.5484 319.024 87.7524 318.142 88.1604 317.386C88.5684 316.618 89.1264 316.024 89.8344 315.604C90.5544 315.184 91.3524 314.974 92.2284 314.974C93.0924 314.974 93.8424 315.16 94.4784 315.532C95.1144 315.904 95.5884 316.372 95.9004 316.936V315.136H97.5564V325H95.9004V323.164C95.5764 323.74 95.0904 324.22 94.4424 324.604C93.8064 324.976 93.0624 325.162 92.2104 325.162C91.3344 325.162 90.5424 324.946 89.8344 324.514C89.1264 324.082 88.5684 323.476 88.1604 322.696C87.7524 321.916 87.5484 321.028 87.5484 320.032ZM95.9004 320.05C95.9004 319.306 95.7504 318.658 95.4504 318.106C95.1504 317.554 94.7424 317.134 94.2264 316.846C93.7224 316.546 93.1644 316.396 92.5524 316.396C91.9404 316.396 91.3824 316.54 90.8784 316.828C90.3744 317.116 89.9724 317.536 89.6724 318.088C89.3724 318.64 89.2224 319.288 89.2224 320.032C89.2224 320.788 89.3724 321.448 89.6724 322.012C89.9724 322.564 90.3744 322.99 90.8784 323.29C91.3824 323.578 91.9404 323.722 92.5524 323.722C93.1644 323.722 93.7224 323.578 94.2264 323.29C94.7424 322.99 95.1504 322.564 95.4504 322.012C95.7504 321.448 95.9004 320.794 95.9004 320.05ZM101.962 311.68V325H100.324V311.68H101.962ZM105.6 313.534C105.288 313.534 105.024 313.426 104.808 313.21C104.592 312.994 104.484 312.73 104.484 312.418C104.484 312.106 104.592 311.842 104.808 311.626C105.024 311.41 105.288 311.302 105.6 311.302C105.9 311.302 106.152 311.41 106.356 311.626C106.572 311.842 106.68 312.106 106.68 312.418C106.68 312.73 106.572 312.994 106.356 313.21C106.152 313.426 105.9 313.534 105.6 313.534ZM106.392 315.136V325H104.754V315.136H106.392ZM113.99 314.956C115.19 314.956 116.162 315.322 116.906 316.054C117.65 316.774 118.022 317.818 118.022 319.186V325H116.402V319.42C116.402 318.436 116.156 317.686 115.664 317.17C115.172 316.642 114.5 316.378 113.648 316.378C112.784 316.378 112.094 316.648 111.578 317.188C111.074 317.728 110.822 318.514 110.822 319.546V325H109.184V315.136H110.822V316.54C111.146 316.036 111.584 315.646 112.136 315.37C112.7 315.094 113.318 314.956 113.99 314.956ZM124.766 314.974C125.618 314.974 126.362 315.16 126.998 315.532C127.646 315.904 128.126 316.372 128.438 316.936V315.136H130.094V325.216C130.094 326.116 129.902 326.914 129.518 327.61C129.134 328.318 128.582 328.87 127.862 329.266C127.154 329.662 126.326 329.86 125.378 329.86C124.082 329.86 123.002 329.554 122.138 328.942C121.274 328.33 120.764 327.496 120.608 326.44H122.228C122.408 327.04 122.78 327.52 123.344 327.88C123.908 328.252 124.586 328.438 125.378 328.438C126.278 328.438 127.01 328.156 127.574 327.592C128.15 327.028 128.438 326.236 128.438 325.216V323.146C128.114 323.722 127.634 324.202 126.998 324.586C126.362 324.97 125.618 325.162 124.766 325.162C123.89 325.162 123.092 324.946 122.372 324.514C121.664 324.082 121.106 323.476 120.698 322.696C120.29 321.916 120.086 321.028 120.086 320.032C120.086 319.024 120.29 318.142 120.698 317.386C121.106 316.618 121.664 316.024 122.372 315.604C123.092 315.184 123.89 314.974 124.766 314.974ZM128.438 320.05C128.438 319.306 128.288 318.658 127.988 318.106C127.688 317.554 127.28 317.134 126.764 316.846C126.26 316.546 125.702 316.396 125.09 316.396C124.478 316.396 123.92 316.54 123.416 316.828C122.912 317.116 122.51 317.536 122.21 318.088C121.91 318.64 121.76 319.288 121.76 320.032C121.76 320.788 121.91 321.448 122.21 322.012C122.51 322.564 122.912 322.99 123.416 323.29C123.92 323.578 124.478 323.722 125.09 323.722C125.702 323.722 126.26 323.578 126.764 323.29C127.28 322.99 127.688 322.564 127.988 322.012C128.288 321.448 128.438 320.794 128.438 320.05ZM146.408 315.136V325H144.77V323.542C144.458 324.046 144.02 324.442 143.456 324.73C142.904 325.006 142.292 325.144 141.62 325.144C140.852 325.144 140.162 324.988 139.55 324.676C138.938 324.352 138.452 323.872 138.092 323.236C137.744 322.6 137.57 321.826 137.57 320.914V315.136H139.19V320.698C139.19 321.67 139.436 322.42 139.928 322.948C140.42 323.464 141.092 323.722 141.944 323.722C142.82 323.722 143.51 323.452 144.014 322.912C144.518 322.372 144.77 321.586 144.77 320.554V315.136H146.408ZM152.666 325.162C151.91 325.162 151.232 325.036 150.632 324.784C150.032 324.52 149.558 324.16 149.21 323.704C148.862 323.236 148.67 322.702 148.634 322.102H150.326C150.374 322.594 150.602 322.996 151.01 323.308C151.43 323.62 151.976 323.776 152.648 323.776C153.272 323.776 153.764 323.638 154.124 323.362C154.484 323.086 154.664 322.738 154.664 322.318C154.664 321.886 154.472 321.568 154.088 321.364C153.704 321.148 153.11 320.938 152.306 320.734C151.574 320.542 150.974 320.35 150.506 320.158C150.05 319.954 149.654 319.66 149.318 319.276C148.994 318.88 148.832 318.364 148.832 317.728C148.832 317.224 148.982 316.762 149.282 316.342C149.582 315.922 150.008 315.592 150.56 315.352C151.112 315.1 151.742 314.974 152.45 314.974C153.542 314.974 154.424 315.25 155.096 315.802C155.768 316.354 156.128 317.11 156.176 318.07H154.538C154.502 317.554 154.292 317.14 153.908 316.828C153.536 316.516 153.032 316.36 152.396 316.36C151.808 316.36 151.34 316.486 150.992 316.738C150.644 316.99 150.47 317.32 150.47 317.728C150.47 318.052 150.572 318.322 150.776 318.538C150.992 318.742 151.256 318.91 151.568 319.042C151.892 319.162 152.336 319.3 152.9 319.456C153.608 319.648 154.184 319.84 154.628 320.032C155.072 320.212 155.45 320.488 155.762 320.86C156.086 321.232 156.254 321.718 156.266 322.318C156.266 322.858 156.116 323.344 155.816 323.776C155.516 324.208 155.09 324.55 154.538 324.802C153.998 325.042 153.374 325.162 152.666 325.162ZM167.578 319.69C167.578 320.002 167.56 320.332 167.524 320.68H159.64C159.7 321.652 160.03 322.414 160.63 322.966C161.242 323.506 161.98 323.776 162.844 323.776C163.552 323.776 164.14 323.614 164.608 323.29C165.088 322.954 165.424 322.51 165.616 321.958H167.38C167.116 322.906 166.588 323.68 165.796 324.28C165.004 324.868 164.02 325.162 162.844 325.162C161.908 325.162 161.068 324.952 160.324 324.532C159.592 324.112 159.016 323.518 158.596 322.75C158.176 321.97 157.966 321.07 157.966 320.05C157.966 319.03 158.17 318.136 158.578 317.368C158.986 316.6 159.556 316.012 160.288 315.604C161.032 315.184 161.884 314.974 162.844 314.974C163.78 314.974 164.608 315.178 165.328 315.586C166.048 315.994 166.6 316.558 166.984 317.278C167.38 317.986 167.578 318.79 167.578 319.69ZM165.886 319.348C165.886 318.724 165.748 318.19 165.472 317.746C165.196 317.29 164.818 316.948 164.338 316.72C163.87 316.48 163.348 316.36 162.772 316.36C161.944 316.36 161.236 316.624 160.648 317.152C160.072 317.68 159.742 318.412 159.658 319.348H165.886ZM171.378 316.738C171.666 316.174 172.074 315.736 172.602 315.424C173.142 315.112 173.796 314.956 174.564 314.956V316.648H174.132C172.296 316.648 171.378 317.644 171.378 319.636V325H169.74V315.136H171.378V316.738ZM190.254 319.69C190.254 320.002 190.236 320.332 190.2 320.68H182.316C182.376 321.652 182.706 322.414 183.306 322.966C183.918 323.506 184.656 323.776 185.52 323.776C186.228 323.776 186.816 323.614 187.284 323.29C187.764 322.954 188.1 322.51 188.292 321.958H190.056C189.792 322.906 189.264 323.68 188.472 324.28C187.68 324.868 186.696 325.162 185.52 325.162C184.584 325.162 183.744 324.952 183 324.532C182.268 324.112 181.692 323.518 181.272 322.75C180.852 321.97 180.642 321.07 180.642 320.05C180.642 319.03 180.846 318.136 181.254 317.368C181.662 316.6 182.232 316.012 182.964 315.604C183.708 315.184 184.56 314.974 185.52 314.974C186.456 314.974 187.284 315.178 188.004 315.586C188.724 315.994 189.276 316.558 189.66 317.278C190.056 317.986 190.254 318.79 190.254 319.69ZM188.562 319.348C188.562 318.724 188.424 318.19 188.148 317.746C187.872 317.29 187.494 316.948 187.014 316.72C186.546 316.48 186.024 316.36 185.448 316.36C184.62 316.36 183.912 316.624 183.324 317.152C182.748 317.68 182.418 318.412 182.334 319.348H188.562ZM197.564 325L195.224 321.328L192.974 325H191.264L194.45 320.104L191.264 315.136H193.118L195.458 318.79L197.69 315.136H199.4L196.232 320.014L199.418 325H197.564ZM202.668 316.954C202.992 316.39 203.472 315.922 204.108 315.55C204.756 315.166 205.506 314.974 206.358 314.974C207.234 314.974 208.026 315.184 208.734 315.604C209.454 316.024 210.018 316.618 210.426 317.386C210.834 318.142 211.038 319.024 211.038 320.032C211.038 321.028 210.834 321.916 210.426 322.696C210.018 323.476 209.454 324.082 208.734 324.514C208.026 324.946 207.234 325.162 206.358 325.162C205.518 325.162 204.774 324.976 204.126 324.604C203.49 324.22 203.004 323.746 202.668 323.182V329.68H201.03V315.136H202.668V316.954ZM209.364 320.032C209.364 319.288 209.214 318.64 208.914 318.088C208.614 317.536 208.206 317.116 207.69 316.828C207.186 316.54 206.628 316.396 206.016 316.396C205.416 316.396 204.858 316.546 204.342 316.846C203.838 317.134 203.43 317.56 203.118 318.124C202.818 318.676 202.668 319.318 202.668 320.05C202.668 320.794 202.818 321.448 203.118 322.012C203.43 322.564 203.838 322.99 204.342 323.29C204.858 323.578 205.416 323.722 206.016 323.722C206.628 323.722 207.186 323.578 207.69 323.29C208.206 322.99 208.614 322.564 208.914 322.012C209.214 321.448 209.364 320.788 209.364 320.032ZM222.194 319.69C222.194 320.002 222.176 320.332 222.14 320.68H214.256C214.316 321.652 214.646 322.414 215.246 322.966C215.858 323.506 216.596 323.776 217.46 323.776C218.168 323.776 218.756 323.614 219.224 323.29C219.704 322.954 220.04 322.51 220.232 321.958H221.996C221.732 322.906 221.204 323.68 220.412 324.28C219.62 324.868 218.636 325.162 217.46 325.162C216.524 325.162 215.684 324.952 214.94 324.532C214.208 324.112 213.632 323.518 213.212 322.75C212.792 321.97 212.582 321.07 212.582 320.05C212.582 319.03 212.786 318.136 213.194 317.368C213.602 316.6 214.172 316.012 214.904 315.604C215.648 315.184 216.5 314.974 217.46 314.974C218.396 314.974 219.224 315.178 219.944 315.586C220.664 315.994 221.216 316.558 221.6 317.278C221.996 317.986 222.194 318.79 222.194 319.69ZM220.502 319.348C220.502 318.724 220.364 318.19 220.088 317.746C219.812 317.29 219.434 316.948 218.954 316.72C218.486 316.48 217.964 316.36 217.388 316.36C216.56 316.36 215.852 316.624 215.264 317.152C214.688 317.68 214.358 318.412 214.274 319.348H220.502ZM225.994 316.738C226.282 316.174 226.69 315.736 227.218 315.424C227.758 315.112 228.412 314.956 229.18 314.956V316.648H228.748C226.912 316.648 225.994 317.644 225.994 319.636V325H224.356V315.136H225.994V316.738ZM231.917 313.534C231.605 313.534 231.341 313.426 231.125 313.21C230.909 312.994 230.801 312.73 230.801 312.418C230.801 312.106 230.909 311.842 231.125 311.626C231.341 311.41 231.605 311.302 231.917 311.302C232.217 311.302 232.469 311.41 232.673 311.626C232.889 311.842 232.997 312.106 232.997 312.418C232.997 312.73 232.889 312.994 232.673 313.21C232.469 313.426 232.217 313.534 231.917 313.534ZM232.709 315.136V325H231.071V315.136H232.709ZM244.5 319.69C244.5 320.002 244.482 320.332 244.446 320.68H236.562C236.622 321.652 236.952 322.414 237.552 322.966C238.164 323.506 238.902 323.776 239.766 323.776C240.474 323.776 241.062 323.614 241.53 323.29C242.01 322.954 242.346 322.51 242.538 321.958H244.302C244.038 322.906 243.51 323.68 242.718 324.28C241.926 324.868 240.942 325.162 239.766 325.162C238.83 325.162 237.99 324.952 237.246 324.532C236.514 324.112 235.938 323.518 235.518 322.75C235.098 321.97 234.888 321.07 234.888 320.05C234.888 319.03 235.092 318.136 235.5 317.368C235.908 316.6 236.478 316.012 237.21 315.604C237.954 315.184 238.806 314.974 239.766 314.974C240.702 314.974 241.53 315.178 242.25 315.586C242.97 315.994 243.522 316.558 243.906 317.278C244.302 317.986 244.5 318.79 244.5 319.69ZM242.808 319.348C242.808 318.724 242.67 318.19 242.394 317.746C242.118 317.29 241.74 316.948 241.26 316.72C240.792 316.48 240.27 316.36 239.694 316.36C238.866 316.36 238.158 316.624 237.57 317.152C236.994 317.68 236.664 318.412 236.58 319.348H242.808ZM251.468 314.956C252.668 314.956 253.64 315.322 254.384 316.054C255.128 316.774 255.5 317.818 255.5 319.186V325H253.88V319.42C253.88 318.436 253.634 317.686 253.142 317.17C252.65 316.642 251.978 316.378 251.126 316.378C250.262 316.378 249.572 316.648 249.056 317.188C248.552 317.728 248.3 318.514 248.3 319.546V325H246.662V315.136H248.3V316.54C248.624 316.036 249.062 315.646 249.614 315.37C250.178 315.094 250.796 314.956 251.468 314.956ZM257.564 320.05C257.564 319.03 257.768 318.142 258.176 317.386C258.584 316.618 259.148 316.024 259.868 315.604C260.6 315.184 261.434 314.974 262.37 314.974C263.582 314.974 264.578 315.268 265.358 315.856C266.15 316.444 266.672 317.26 266.924 318.304H265.16C264.992 317.704 264.662 317.23 264.17 316.882C263.69 316.534 263.09 316.36 262.37 316.36C261.434 316.36 260.678 316.684 260.102 317.332C259.526 317.968 259.238 318.874 259.238 320.05C259.238 321.238 259.526 322.156 260.102 322.804C260.678 323.452 261.434 323.776 262.37 323.776C263.09 323.776 263.69 323.608 264.17 323.272C264.65 322.936 264.98 322.456 265.16 321.832H266.924C266.66 322.84 266.132 323.65 265.34 324.262C264.548 324.862 263.558 325.162 262.37 325.162C261.434 325.162 260.6 324.952 259.868 324.532C259.148 324.112 258.584 323.518 258.176 322.75C257.768 321.982 257.564 321.082 257.564 320.05ZM278.11 319.69C278.11 320.002 278.092 320.332 278.056 320.68H270.172C270.232 321.652 270.562 322.414 271.162 322.966C271.774 323.506 272.512 323.776 273.376 323.776C274.084 323.776 274.672 323.614 275.14 323.29C275.62 322.954 275.956 322.51 276.148 321.958H277.912C277.648 322.906 277.12 323.68 276.328 324.28C275.536 324.868 274.552 325.162 273.376 325.162C272.44 325.162 271.6 324.952 270.856 324.532C270.124 324.112 269.548 323.518 269.128 322.75C268.708 321.97 268.498 321.07 268.498 320.05C268.498 319.03 268.702 318.136 269.11 317.368C269.518 316.6 270.088 316.012 270.82 315.604C271.564 315.184 272.416 314.974 273.376 314.974C274.312 314.974 275.14 315.178 275.86 315.586C276.58 315.994 277.132 316.558 277.516 317.278C277.912 317.986 278.11 318.79 278.11 319.69ZM276.418 319.348C276.418 318.724 276.28 318.19 276.004 317.746C275.728 317.29 275.35 316.948 274.87 316.72C274.402 316.48 273.88 316.36 273.304 316.36C272.476 316.36 271.768 316.624 271.18 317.152C270.604 317.68 270.274 318.412 270.19 319.348H276.418ZM283.764 325.162C283.008 325.162 282.33 325.036 281.73 324.784C281.13 324.52 280.656 324.16 280.308 323.704C279.96 323.236 279.768 322.702 279.732 322.102H281.424C281.472 322.594 281.7 322.996 282.108 323.308C282.528 323.62 283.074 323.776 283.746 323.776C284.37 323.776 284.862 323.638 285.222 323.362C285.582 323.086 285.762 322.738 285.762 322.318C285.762 321.886 285.57 321.568 285.186 321.364C284.802 321.148 284.208 320.938 283.404 320.734C282.672 320.542 282.072 320.35 281.604 320.158C281.148 319.954 280.752 319.66 280.416 319.276C280.092 318.88 279.93 318.364 279.93 317.728C279.93 317.224 280.08 316.762 280.38 316.342C280.68 315.922 281.106 315.592 281.658 315.352C282.21 315.1 282.84 314.974 283.548 314.974C284.64 314.974 285.522 315.25 286.194 315.802C286.866 316.354 287.226 317.11 287.274 318.07H285.636C285.6 317.554 285.39 317.14 285.006 316.828C284.634 316.516 284.13 316.36 283.494 316.36C282.906 316.36 282.438 316.486 282.09 316.738C281.742 316.99 281.568 317.32 281.568 317.728C281.568 318.052 281.67 318.322 281.874 318.538C282.09 318.742 282.354 318.91 282.666 319.042C282.99 319.162 283.434 319.3 283.998 319.456C284.706 319.648 285.282 319.84 285.726 320.032C286.17 320.212 286.548 320.488 286.86 320.86C287.184 321.232 287.352 321.718 287.364 322.318C287.364 322.858 287.214 323.344 286.914 323.776C286.614 324.208 286.188 324.55 285.636 324.802C285.096 325.042 284.472 325.162 283.764 325.162ZM296.473 316.486V322.3C296.473 322.78 296.575 323.122 296.779 323.326C296.983 323.518 297.337 323.614 297.841 323.614H299.047V325H297.571C296.659 325 295.975 324.79 295.519 324.37C295.063 323.95 294.835 323.26 294.835 322.3V316.486H293.557V315.136H294.835V312.652H296.473V315.136H299.047V316.486H296.473ZM305.928 314.956C306.672 314.956 307.344 315.118 307.944 315.442C308.544 315.754 309.012 316.228 309.348 316.864C309.696 317.5 309.87 318.274 309.87 319.186V325H308.25V319.42C308.25 318.436 308.004 317.686 307.512 317.17C307.02 316.642 306.348 316.378 305.496 316.378C304.632 316.378 303.942 316.648 303.426 317.188C302.922 317.728 302.67 318.514 302.67 319.546V325H301.032V311.68H302.67V316.54C302.994 316.036 303.438 315.646 304.002 315.37C304.578 315.094 305.22 314.956 305.928 314.956ZM311.933 320.032C311.933 319.024 312.137 318.142 312.545 317.386C312.953 316.618 313.511 316.024 314.219 315.604C314.939 315.184 315.737 314.974 316.613 314.974C317.477 314.974 318.227 315.16 318.863 315.532C319.499 315.904 319.973 316.372 320.285 316.936V315.136H321.941V325H320.285V323.164C319.961 323.74 319.475 324.22 318.827 324.604C318.191 324.976 317.447 325.162 316.595 325.162C315.719 325.162 314.927 324.946 314.219 324.514C313.511 324.082 312.953 323.476 312.545 322.696C312.137 321.916 311.933 321.028 311.933 320.032ZM320.285 320.05C320.285 319.306 320.135 318.658 319.835 318.106C319.535 317.554 319.127 317.134 318.611 316.846C318.107 316.546 317.549 316.396 316.937 316.396C316.325 316.396 315.767 316.54 315.263 316.828C314.759 317.116 314.357 317.536 314.057 318.088C313.757 318.64 313.607 319.288 313.607 320.032C313.607 320.788 313.757 321.448 314.057 322.012C314.357 322.564 314.759 322.99 315.263 323.29C315.767 323.578 316.325 323.722 316.937 323.722C317.549 323.722 318.107 323.578 318.611 323.29C319.127 322.99 319.535 322.564 319.835 322.012C320.135 321.448 320.285 320.794 320.285 320.05ZM326.707 316.486V322.3C326.707 322.78 326.809 323.122 327.013 323.326C327.217 323.518 327.571 323.614 328.075 323.614H329.281V325H327.805C326.893 325 326.209 324.79 325.753 324.37C325.297 323.95 325.069 323.26 325.069 322.3V316.486H323.791V315.136H325.069V312.652H326.707V315.136H329.281V316.486H326.707ZM94.5676 343.69C94.5676 344.002 94.5496 344.332 94.5136 344.68H86.6296C86.6896 345.652 87.0196 346.414 87.6196 346.966C88.2316 347.506 88.9696 347.776 89.8336 347.776C90.5416 347.776 91.1296 347.614 91.5976 347.29C92.0776 346.954 92.4136 346.51 92.6056 345.958H94.3696C94.1056 346.906 93.5776 347.68 92.7856 348.28C91.9936 348.868 91.0096 349.162 89.8336 349.162C88.8976 349.162 88.0576 348.952 87.3136 348.532C86.5816 348.112 86.0056 347.518 85.5856 346.75C85.1656 345.97 84.9556 345.07 84.9556 344.05C84.9556 343.03 85.1596 342.136 85.5676 341.368C85.9756 340.6 86.5456 340.012 87.2776 339.604C88.0216 339.184 88.8736 338.974 89.8336 338.974C90.7696 338.974 91.5976 339.178 92.3176 339.586C93.0376 339.994 93.5896 340.558 93.9736 341.278C94.3696 341.986 94.5676 342.79 94.5676 343.69ZM92.8756 343.348C92.8756 342.724 92.7376 342.19 92.4616 341.746C92.1856 341.29 91.8076 340.948 91.3276 340.72C90.8596 340.48 90.3376 340.36 89.7616 340.36C88.9336 340.36 88.2256 340.624 87.6376 341.152C87.0616 341.68 86.7316 342.412 86.6476 343.348H92.8756ZM101.536 338.956C102.736 338.956 103.708 339.322 104.452 340.054C105.196 340.774 105.568 341.818 105.568 343.186V349H103.948V343.42C103.948 342.436 103.702 341.686 103.21 341.17C102.718 340.642 102.046 340.378 101.194 340.378C100.33 340.378 99.6398 340.648 99.1238 341.188C98.6198 341.728 98.3678 342.514 98.3678 343.546V349H96.7298V339.136H98.3678V340.54C98.6918 340.036 99.1298 339.646 99.6818 339.37C100.246 339.094 100.864 338.956 101.536 338.956ZM113.139 338.956C113.883 338.956 114.555 339.118 115.155 339.442C115.755 339.754 116.223 340.228 116.559 340.864C116.907 341.5 117.081 342.274 117.081 343.186V349H115.461V343.42C115.461 342.436 115.215 341.686 114.723 341.17C114.231 340.642 113.559 340.378 112.707 340.378C111.843 340.378 111.153 340.648 110.637 341.188C110.133 341.728 109.881 342.514 109.881 343.546V349H108.243V335.68H109.881V340.54C110.205 340.036 110.649 339.646 111.213 339.37C111.789 339.094 112.431 338.956 113.139 338.956ZM119.145 344.032C119.145 343.024 119.349 342.142 119.757 341.386C120.165 340.618 120.723 340.024 121.431 339.604C122.151 339.184 122.949 338.974 123.825 338.974C124.689 338.974 125.439 339.16 126.075 339.532C126.711 339.904 127.185 340.372 127.497 340.936V339.136H129.153V349H127.497V347.164C127.173 347.74 126.687 348.22 126.039 348.604C125.403 348.976 124.659 349.162 123.807 349.162C122.931 349.162 122.139 348.946 121.431 348.514C120.723 348.082 120.165 347.476 119.757 346.696C119.349 345.916 119.145 345.028 119.145 344.032ZM127.497 344.05C127.497 343.306 127.347 342.658 127.047 342.106C126.747 341.554 126.339 341.134 125.823 340.846C125.319 340.546 124.761 340.396 124.149 340.396C123.537 340.396 122.979 340.54 122.475 340.828C121.971 341.116 121.569 341.536 121.269 342.088C120.969 342.64 120.819 343.288 120.819 344.032C120.819 344.788 120.969 345.448 121.269 346.012C121.569 346.564 121.971 346.99 122.475 347.29C122.979 347.578 123.537 347.722 124.149 347.722C124.761 347.722 125.319 347.578 125.823 347.29C126.339 346.99 126.747 346.564 127.047 346.012C127.347 345.448 127.497 344.794 127.497 344.05ZM136.727 338.956C137.927 338.956 138.899 339.322 139.643 340.054C140.387 340.774 140.759 341.818 140.759 343.186V349H139.139V343.42C139.139 342.436 138.893 341.686 138.401 341.17C137.909 340.642 137.237 340.378 136.385 340.378C135.521 340.378 134.831 340.648 134.315 341.188C133.811 341.728 133.559 342.514 133.559 343.546V349H131.921V339.136H133.559V340.54C133.883 340.036 134.321 339.646 134.873 339.37C135.437 339.094 136.055 338.956 136.727 338.956ZM142.823 344.05C142.823 343.03 143.027 342.142 143.435 341.386C143.843 340.618 144.407 340.024 145.127 339.604C145.859 339.184 146.693 338.974 147.629 338.974C148.841 338.974 149.837 339.268 150.617 339.856C151.409 340.444 151.931 341.26 152.183 342.304H150.419C150.251 341.704 149.921 341.23 149.429 340.882C148.949 340.534 148.349 340.36 147.629 340.36C146.693 340.36 145.937 340.684 145.361 341.332C144.785 341.968 144.497 342.874 144.497 344.05C144.497 345.238 144.785 346.156 145.361 346.804C145.937 347.452 146.693 347.776 147.629 347.776C148.349 347.776 148.949 347.608 149.429 347.272C149.909 346.936 150.239 346.456 150.419 345.832H152.183C151.919 346.84 151.391 347.65 150.599 348.262C149.807 348.862 148.817 349.162 147.629 349.162C146.693 349.162 145.859 348.952 145.127 348.532C144.407 348.112 143.843 347.518 143.435 346.75C143.027 345.982 142.823 345.082 142.823 344.05ZM163.368 343.69C163.368 344.002 163.35 344.332 163.314 344.68H155.43C155.49 345.652 155.82 346.414 156.42 346.966C157.032 347.506 157.77 347.776 158.634 347.776C159.342 347.776 159.93 347.614 160.398 347.29C160.878 346.954 161.214 346.51 161.406 345.958H163.17C162.906 346.906 162.378 347.68 161.586 348.28C160.794 348.868 159.81 349.162 158.634 349.162C157.698 349.162 156.858 348.952 156.114 348.532C155.382 348.112 154.806 347.518 154.386 346.75C153.966 345.97 153.756 345.07 153.756 344.05C153.756 343.03 153.96 342.136 154.368 341.368C154.776 340.6 155.346 340.012 156.078 339.604C156.822 339.184 157.674 338.974 158.634 338.974C159.57 338.974 160.398 339.178 161.118 339.586C161.838 339.994 162.39 340.558 162.774 341.278C163.17 341.986 163.368 342.79 163.368 343.69ZM161.676 343.348C161.676 342.724 161.538 342.19 161.262 341.746C160.986 341.29 160.608 340.948 160.128 340.72C159.66 340.48 159.138 340.36 158.562 340.36C157.734 340.36 157.026 340.624 156.438 341.152C155.862 341.68 155.532 342.412 155.448 343.348H161.676ZM179.077 339.136V349H177.439V347.542C177.127 348.046 176.689 348.442 176.125 348.73C175.573 349.006 174.961 349.144 174.289 349.144C173.521 349.144 172.831 348.988 172.219 348.676C171.607 348.352 171.121 347.872 170.761 347.236C170.413 346.6 170.239 345.826 170.239 344.914V339.136H171.859V344.698C171.859 345.67 172.105 346.42 172.597 346.948C173.089 347.464 173.761 347.722 174.613 347.722C175.489 347.722 176.179 347.452 176.683 346.912C177.187 346.372 177.439 345.586 177.439 344.554V339.136H179.077ZM185.335 349.162C184.579 349.162 183.901 349.036 183.301 348.784C182.701 348.52 182.227 348.16 181.879 347.704C181.531 347.236 181.339 346.702 181.303 346.102H182.995C183.043 346.594 183.271 346.996 183.679 347.308C184.099 347.62 184.645 347.776 185.317 347.776C185.941 347.776 186.433 347.638 186.793 347.362C187.153 347.086 187.333 346.738 187.333 346.318C187.333 345.886 187.141 345.568 186.757 345.364C186.373 345.148 185.779 344.938 184.975 344.734C184.243 344.542 183.643 344.35 183.175 344.158C182.719 343.954 182.323 343.66 181.987 343.276C181.663 342.88 181.501 342.364 181.501 341.728C181.501 341.224 181.651 340.762 181.951 340.342C182.251 339.922 182.677 339.592 183.229 339.352C183.781 339.1 184.411 338.974 185.119 338.974C186.211 338.974 187.093 339.25 187.765 339.802C188.437 340.354 188.797 341.11 188.845 342.07H187.207C187.171 341.554 186.961 341.14 186.577 340.828C186.205 340.516 185.701 340.36 185.065 340.36C184.477 340.36 184.009 340.486 183.661 340.738C183.313 340.99 183.139 341.32 183.139 341.728C183.139 342.052 183.241 342.322 183.445 342.538C183.661 342.742 183.925 342.91 184.237 343.042C184.561 343.162 185.005 343.3 185.569 343.456C186.277 343.648 186.853 343.84 187.297 344.032C187.741 344.212 188.119 344.488 188.431 344.86C188.755 345.232 188.923 345.718 188.935 346.318C188.935 346.858 188.785 347.344 188.485 347.776C188.185 348.208 187.759 348.55 187.207 348.802C186.667 349.042 186.043 349.162 185.335 349.162ZM190.635 344.032C190.635 343.024 190.839 342.142 191.247 341.386C191.655 340.618 192.213 340.024 192.921 339.604C193.641 339.184 194.439 338.974 195.315 338.974C196.179 338.974 196.929 339.16 197.565 339.532C198.201 339.904 198.675 340.372 198.987 340.936V339.136H200.643V349H198.987V347.164C198.663 347.74 198.177 348.22 197.529 348.604C196.893 348.976 196.149 349.162 195.297 349.162C194.421 349.162 193.629 348.946 192.921 348.514C192.213 348.082 191.655 347.476 191.247 346.696C190.839 345.916 190.635 345.028 190.635 344.032ZM198.987 344.05C198.987 343.306 198.837 342.658 198.537 342.106C198.237 341.554 197.829 341.134 197.313 340.846C196.809 340.546 196.251 340.396 195.639 340.396C195.027 340.396 194.469 340.54 193.965 340.828C193.461 341.116 193.059 341.536 192.759 342.088C192.459 342.64 192.309 343.288 192.309 344.032C192.309 344.788 192.459 345.448 192.759 346.012C193.059 346.564 193.461 346.99 193.965 347.29C194.469 347.578 195.027 347.722 195.639 347.722C196.251 347.722 196.809 347.578 197.313 347.29C197.829 346.99 198.237 346.564 198.537 346.012C198.837 345.448 198.987 344.794 198.987 344.05ZM205.049 340.972C205.385 340.384 205.877 339.904 206.525 339.532C207.173 339.16 207.911 338.974 208.739 338.974C209.627 338.974 210.425 339.184 211.133 339.604C211.841 340.024 212.399 340.618 212.807 341.386C213.215 342.142 213.419 343.024 213.419 344.032C213.419 345.028 213.215 345.916 212.807 346.696C212.399 347.476 211.835 348.082 211.115 348.514C210.407 348.946 209.615 349.162 208.739 349.162C207.887 349.162 207.137 348.976 206.489 348.604C205.853 348.232 205.373 347.758 205.049 347.182V349H203.411V335.68H205.049V340.972ZM211.745 344.032C211.745 343.288 211.595 342.64 211.295 342.088C210.995 341.536 210.587 341.116 210.071 340.828C209.567 340.54 209.009 340.396 208.397 340.396C207.797 340.396 207.239 340.546 206.723 340.846C206.219 341.134 205.811 341.56 205.499 342.124C205.199 342.676 205.049 343.318 205.049 344.05C205.049 344.794 205.199 345.448 205.499 346.012C205.811 346.564 206.219 346.99 206.723 347.29C207.239 347.578 207.797 347.722 208.397 347.722C209.009 347.722 209.567 347.578 210.071 347.29C210.587 346.99 210.995 346.564 211.295 346.012C211.595 345.448 211.745 344.788 211.745 344.032ZM216.421 337.534C216.109 337.534 215.845 337.426 215.629 337.21C215.413 336.994 215.305 336.73 215.305 336.418C215.305 336.106 215.413 335.842 215.629 335.626C215.845 335.41 216.109 335.302 216.421 335.302C216.721 335.302 216.973 335.41 217.177 335.626C217.393 335.842 217.501 336.106 217.501 336.418C217.501 336.73 217.393 336.994 217.177 337.21C216.973 337.426 216.721 337.534 216.421 337.534ZM217.213 339.136V349H215.575V339.136H217.213ZM221.643 335.68V349H220.005V335.68H221.643ZM225.281 337.534C224.969 337.534 224.705 337.426 224.489 337.21C224.273 336.994 224.165 336.73 224.165 336.418C224.165 336.106 224.273 335.842 224.489 335.626C224.705 335.41 224.969 335.302 225.281 335.302C225.581 335.302 225.833 335.41 226.037 335.626C226.253 335.842 226.361 336.106 226.361 336.418C226.361 336.73 226.253 336.994 226.037 337.21C225.833 337.426 225.581 337.534 225.281 337.534ZM226.073 339.136V349H224.435V339.136H226.073ZM230.863 340.486V346.3C230.863 346.78 230.965 347.122 231.169 347.326C231.373 347.518 231.727 347.614 232.231 347.614H233.437V349H231.961C231.049 349 230.365 348.79 229.909 348.37C229.453 347.95 229.225 347.26 229.225 346.3V340.486H227.947V339.136H229.225V336.652H230.863V339.136H233.437V340.486H230.863ZM243.917 339.136L237.977 353.644H236.285L238.229 348.892L234.251 339.136H236.069L239.165 347.128L242.225 339.136H243.917ZM249.751 344.032C249.751 343.024 249.955 342.142 250.363 341.386C250.771 340.618 251.329 340.024 252.037 339.604C252.757 339.184 253.555 338.974 254.431 338.974C255.295 338.974 256.045 339.16 256.681 339.532C257.317 339.904 257.791 340.372 258.103 340.936V339.136H259.759V349H258.103V347.164C257.779 347.74 257.293 348.22 256.645 348.604C256.009 348.976 255.265 349.162 254.413 349.162C253.537 349.162 252.745 348.946 252.037 348.514C251.329 348.082 250.771 347.476 250.363 346.696C249.955 345.916 249.751 345.028 249.751 344.032ZM258.103 344.05C258.103 343.306 257.953 342.658 257.653 342.106C257.353 341.554 256.945 341.134 256.429 340.846C255.925 340.546 255.367 340.396 254.755 340.396C254.143 340.396 253.585 340.54 253.081 340.828C252.577 341.116 252.175 341.536 251.875 342.088C251.575 342.64 251.425 343.288 251.425 344.032C251.425 344.788 251.575 345.448 251.875 346.012C252.175 346.564 252.577 346.99 253.081 347.29C253.585 347.578 254.143 347.722 254.755 347.722C255.367 347.722 255.925 347.578 256.429 347.29C256.945 346.99 257.353 346.564 257.653 346.012C257.953 345.448 258.103 344.794 258.103 344.05ZM267.333 338.956C268.533 338.956 269.505 339.322 270.249 340.054C270.993 340.774 271.365 341.818 271.365 343.186V349H269.745V343.42C269.745 342.436 269.499 341.686 269.007 341.17C268.515 340.642 267.843 340.378 266.991 340.378C266.127 340.378 265.437 340.648 264.921 341.188C264.417 341.728 264.165 342.514 264.165 343.546V349H262.527V339.136H264.165V340.54C264.489 340.036 264.927 339.646 265.479 339.37C266.043 339.094 266.661 338.956 267.333 338.956ZM273.428 344.032C273.428 343.024 273.632 342.142 274.04 341.386C274.448 340.618 275.006 340.024 275.714 339.604C276.434 339.184 277.238 338.974 278.126 338.974C278.894 338.974 279.608 339.154 280.268 339.514C280.928 339.862 281.432 340.324 281.78 340.9V335.68H283.436V349H281.78V347.146C281.456 347.734 280.976 348.22 280.34 348.604C279.704 348.976 278.96 349.162 278.108 349.162C277.232 349.162 276.434 348.946 275.714 348.514C275.006 348.082 274.448 347.476 274.04 346.696C273.632 345.916 273.428 345.028 273.428 344.032ZM281.78 344.05C281.78 343.306 281.63 342.658 281.33 342.106C281.03 341.554 280.622 341.134 280.106 340.846C279.602 340.546 279.044 340.396 278.432 340.396C277.82 340.396 277.262 340.54 276.758 340.828C276.254 341.116 275.852 341.536 275.552 342.088C275.252 342.64 275.102 343.288 275.102 344.032C275.102 344.788 275.252 345.448 275.552 346.012C275.852 346.564 276.254 346.99 276.758 347.29C277.262 347.578 277.82 347.722 278.432 347.722C279.044 347.722 279.602 347.578 280.106 347.29C280.622 346.99 281.03 346.564 281.33 346.012C281.63 345.448 281.78 344.794 281.78 344.05ZM133.943 367.69C133.943 368.002 133.925 368.332 133.889 368.68H126.005C126.065 369.652 126.395 370.414 126.995 370.966C127.607 371.506 128.345 371.776 129.209 371.776C129.917 371.776 130.505 371.614 130.973 371.29C131.453 370.954 131.789 370.51 131.981 369.958H133.745C133.481 370.906 132.953 371.68 132.161 372.28C131.369 372.868 130.385 373.162 129.209 373.162C128.273 373.162 127.433 372.952 126.689 372.532C125.957 372.112 125.381 371.518 124.961 370.75C124.541 369.97 124.331 369.07 124.331 368.05C124.331 367.03 124.535 366.136 124.943 365.368C125.351 364.6 125.921 364.012 126.653 363.604C127.397 363.184 128.249 362.974 129.209 362.974C130.145 362.974 130.973 363.178 131.693 363.586C132.413 363.994 132.965 364.558 133.349 365.278C133.745 365.986 133.943 366.79 133.943 367.69ZM132.251 367.348C132.251 366.724 132.113 366.19 131.837 365.746C131.561 365.29 131.183 364.948 130.703 364.72C130.235 364.48 129.713 364.36 129.137 364.36C128.309 364.36 127.601 364.624 127.013 365.152C126.437 365.68 126.107 366.412 126.023 367.348H132.251ZM140.911 362.956C142.111 362.956 143.083 363.322 143.827 364.054C144.571 364.774 144.943 365.818 144.943 367.186V373H143.323V367.42C143.323 366.436 143.077 365.686 142.585 365.17C142.093 364.642 141.421 364.378 140.569 364.378C139.705 364.378 139.015 364.648 138.499 365.188C137.995 365.728 137.743 366.514 137.743 367.546V373H136.105V363.136H137.743V364.54C138.067 364.036 138.505 363.646 139.057 363.37C139.621 363.094 140.239 362.956 140.911 362.956ZM151.686 362.974C152.538 362.974 153.282 363.16 153.918 363.532C154.566 363.904 155.046 364.372 155.358 364.936V363.136H157.014V373.216C157.014 374.116 156.822 374.914 156.438 375.61C156.054 376.318 155.502 376.87 154.782 377.266C154.074 377.662 153.246 377.86 152.298 377.86C151.002 377.86 149.922 377.554 149.058 376.942C148.194 376.33 147.684 375.496 147.528 374.44H149.148C149.328 375.04 149.7 375.52 150.264 375.88C150.828 376.252 151.506 376.438 152.298 376.438C153.198 376.438 153.93 376.156 154.494 375.592C155.07 375.028 155.358 374.236 155.358 373.216V371.146C155.034 371.722 154.554 372.202 153.918 372.586C153.282 372.97 152.538 373.162 151.686 373.162C150.81 373.162 150.012 372.946 149.292 372.514C148.584 372.082 148.026 371.476 147.618 370.696C147.21 369.916 147.006 369.028 147.006 368.032C147.006 367.024 147.21 366.142 147.618 365.386C148.026 364.618 148.584 364.024 149.292 363.604C150.012 363.184 150.81 362.974 151.686 362.974ZM155.358 368.05C155.358 367.306 155.208 366.658 154.908 366.106C154.608 365.554 154.2 365.134 153.684 364.846C153.18 364.546 152.622 364.396 152.01 364.396C151.398 364.396 150.84 364.54 150.336 364.828C149.832 365.116 149.43 365.536 149.13 366.088C148.83 366.64 148.68 367.288 148.68 368.032C148.68 368.788 148.83 369.448 149.13 370.012C149.43 370.564 149.832 370.99 150.336 371.29C150.84 371.578 151.398 371.722 152.01 371.722C152.622 371.722 153.18 371.578 153.684 371.29C154.2 370.99 154.608 370.564 154.908 370.012C155.208 369.448 155.358 368.794 155.358 368.05ZM159.17 368.032C159.17 367.024 159.374 366.142 159.782 365.386C160.19 364.618 160.748 364.024 161.456 363.604C162.176 363.184 162.974 362.974 163.85 362.974C164.714 362.974 165.464 363.16 166.1 363.532C166.736 363.904 167.21 364.372 167.522 364.936V363.136H169.178V373H167.522V371.164C167.198 371.74 166.712 372.22 166.064 372.604C165.428 372.976 164.684 373.162 163.832 373.162C162.956 373.162 162.164 372.946 161.456 372.514C160.748 372.082 160.19 371.476 159.782 370.696C159.374 369.916 159.17 369.028 159.17 368.032ZM167.522 368.05C167.522 367.306 167.372 366.658 167.072 366.106C166.772 365.554 166.364 365.134 165.848 364.846C165.344 364.546 164.786 364.396 164.174 364.396C163.562 364.396 163.004 364.54 162.5 364.828C161.996 365.116 161.594 365.536 161.294 366.088C160.994 366.64 160.844 367.288 160.844 368.032C160.844 368.788 160.994 369.448 161.294 370.012C161.594 370.564 161.996 370.99 162.5 371.29C163.004 371.578 163.562 371.722 164.174 371.722C164.786 371.722 165.344 371.578 165.848 371.29C166.364 370.99 166.772 370.564 167.072 370.012C167.372 369.448 167.522 368.794 167.522 368.05ZM176.015 362.974C176.867 362.974 177.611 363.16 178.247 363.532C178.895 363.904 179.375 364.372 179.687 364.936V363.136H181.343V373.216C181.343 374.116 181.151 374.914 180.767 375.61C180.383 376.318 179.831 376.87 179.111 377.266C178.403 377.662 177.575 377.86 176.627 377.86C175.331 377.86 174.251 377.554 173.387 376.942C172.523 376.33 172.013 375.496 171.857 374.44H173.477C173.657 375.04 174.029 375.52 174.593 375.88C175.157 376.252 175.835 376.438 176.627 376.438C177.527 376.438 178.259 376.156 178.823 375.592C179.399 375.028 179.687 374.236 179.687 373.216V371.146C179.363 371.722 178.883 372.202 178.247 372.586C177.611 372.97 176.867 373.162 176.015 373.162C175.139 373.162 174.341 372.946 173.621 372.514C172.913 372.082 172.355 371.476 171.947 370.696C171.539 369.916 171.335 369.028 171.335 368.032C171.335 367.024 171.539 366.142 171.947 365.386C172.355 364.618 172.913 364.024 173.621 363.604C174.341 363.184 175.139 362.974 176.015 362.974ZM179.687 368.05C179.687 367.306 179.537 366.658 179.237 366.106C178.937 365.554 178.529 365.134 178.013 364.846C177.509 364.546 176.951 364.396 176.339 364.396C175.727 364.396 175.169 364.54 174.665 364.828C174.161 365.116 173.759 365.536 173.459 366.088C173.159 366.64 173.009 367.288 173.009 368.032C173.009 368.788 173.159 369.448 173.459 370.012C173.759 370.564 174.161 370.99 174.665 371.29C175.169 371.578 175.727 371.722 176.339 371.722C176.951 371.722 177.509 371.578 178.013 371.29C178.529 370.99 178.937 370.564 179.237 370.012C179.537 369.448 179.687 368.794 179.687 368.05ZM193.111 367.69C193.111 368.002 193.093 368.332 193.057 368.68H185.173C185.233 369.652 185.563 370.414 186.163 370.966C186.775 371.506 187.513 371.776 188.377 371.776C189.085 371.776 189.673 371.614 190.141 371.29C190.621 370.954 190.957 370.51 191.149 369.958H192.913C192.649 370.906 192.121 371.68 191.329 372.28C190.537 372.868 189.553 373.162 188.377 373.162C187.441 373.162 186.601 372.952 185.857 372.532C185.125 372.112 184.549 371.518 184.129 370.75C183.709 369.97 183.499 369.07 183.499 368.05C183.499 367.03 183.703 366.136 184.111 365.368C184.519 364.6 185.089 364.012 185.821 363.604C186.565 363.184 187.417 362.974 188.377 362.974C189.313 362.974 190.141 363.178 190.861 363.586C191.581 363.994 192.133 364.558 192.517 365.278C192.913 365.986 193.111 366.79 193.111 367.69ZM191.419 367.348C191.419 366.724 191.281 366.19 191.005 365.746C190.729 365.29 190.351 364.948 189.871 364.72C189.403 364.48 188.881 364.36 188.305 364.36C187.477 364.36 186.769 364.624 186.181 365.152C185.605 365.68 185.275 366.412 185.191 367.348H191.419ZM207.135 362.956C207.903 362.956 208.587 363.118 209.187 363.442C209.787 363.754 210.261 364.228 210.609 364.864C210.957 365.5 211.131 366.274 211.131 367.186V373H209.511V367.42C209.511 366.436 209.265 365.686 208.773 365.17C208.293 364.642 207.639 364.378 206.811 364.378C205.959 364.378 205.281 364.654 204.777 365.206C204.273 365.746 204.021 366.532 204.021 367.564V373H202.401V367.42C202.401 366.436 202.155 365.686 201.663 365.17C201.183 364.642 200.529 364.378 199.701 364.378C198.849 364.378 198.171 364.654 197.667 365.206C197.163 365.746 196.911 366.532 196.911 367.564V373H195.273V363.136H196.911V364.558C197.235 364.042 197.667 363.646 198.207 363.37C198.759 363.094 199.365 362.956 200.025 362.956C200.853 362.956 201.585 363.142 202.221 363.514C202.857 363.886 203.331 364.432 203.643 365.152C203.919 364.456 204.375 363.916 205.011 363.532C205.647 363.148 206.355 362.956 207.135 362.956ZM222.818 367.69C222.818 368.002 222.8 368.332 222.764 368.68H214.88C214.94 369.652 215.27 370.414 215.87 370.966C216.482 371.506 217.22 371.776 218.084 371.776C218.792 371.776 219.38 371.614 219.848 371.29C220.328 370.954 220.664 370.51 220.856 369.958H222.62C222.356 370.906 221.828 371.68 221.036 372.28C220.244 372.868 219.26 373.162 218.084 373.162C217.148 373.162 216.308 372.952 215.564 372.532C214.832 372.112 214.256 371.518 213.836 370.75C213.416 369.97 213.206 369.07 213.206 368.05C213.206 367.03 213.41 366.136 213.818 365.368C214.226 364.6 214.796 364.012 215.528 363.604C216.272 363.184 217.124 362.974 218.084 362.974C219.02 362.974 219.848 363.178 220.568 363.586C221.288 363.994 221.84 364.558 222.224 365.278C222.62 365.986 222.818 366.79 222.818 367.69ZM221.126 367.348C221.126 366.724 220.988 366.19 220.712 365.746C220.436 365.29 220.058 364.948 219.578 364.72C219.11 364.48 218.588 364.36 218.012 364.36C217.184 364.36 216.476 364.624 215.888 365.152C215.312 365.68 214.982 366.412 214.898 367.348H221.126ZM229.786 362.956C230.986 362.956 231.958 363.322 232.702 364.054C233.446 364.774 233.818 365.818 233.818 367.186V373H232.198V367.42C232.198 366.436 231.952 365.686 231.46 365.17C230.968 364.642 230.296 364.378 229.444 364.378C228.58 364.378 227.89 364.648 227.374 365.188C226.87 365.728 226.618 366.514 226.618 367.546V373H224.98V363.136H226.618V364.54C226.942 364.036 227.38 363.646 227.932 363.37C228.496 363.094 229.114 362.956 229.786 362.956ZM238.491 364.486V370.3C238.491 370.78 238.593 371.122 238.797 371.326C239.001 371.518 239.355 371.614 239.859 371.614H241.065V373H239.589C238.677 373 237.993 372.79 237.537 372.37C237.081 371.95 236.853 371.26 236.853 370.3V364.486H235.575V363.136H236.853V360.652H238.491V363.136H241.065V364.486H238.491ZM243.572 373.108C243.26 373.108 242.996 373 242.78 372.784C242.564 372.568 242.456 372.304 242.456 371.992C242.456 371.68 242.564 371.416 242.78 371.2C242.996 370.984 243.26 370.876 243.572 370.876C243.872 370.876 244.124 370.984 244.328 371.2C244.544 371.416 244.652 371.68 244.652 371.992C244.652 372.304 244.544 372.568 244.328 372.784C244.124 373 243.872 373.108 243.572 373.108Z" fill="black"/>
<path opacity="0.5" d="M185 32.6667H167.224C162.509 32.6667 157.987 34.1886 154.653 36.8976C151.318 39.6066 149.445 43.2808 149.445 47.1119C149.445 50.943 151.318 54.6171 154.653 57.3261C157.987 60.0351 162.509 61.557 167.224 61.557H185V32.6667Z" stroke="black" stroke-width="5.2"/>
<path d="M185 61.5569H167.224C162.509 61.5569 157.988 63.0786 154.654 65.7872C151.321 68.4958 149.448 72.1694 149.448 75.9999C149.448 79.8305 151.321 83.5041 154.654 86.2127C157.988 88.9213 162.509 90.4429 167.224 90.4429H185V61.5569Z" stroke="black" stroke-width="5.2"/>
<path opacity="0.5" d="M220.557 76C220.557 79.8311 218.684 83.5053 215.35 86.2143C212.016 88.9233 207.494 90.4452 202.779 90.4452C198.063 90.4452 193.541 88.9233 190.207 86.2143C186.873 83.5053 185 79.8311 185 76C185 72.1689 186.873 68.4948 190.207 65.7858C193.541 63.0768 198.063 61.5549 202.779 61.5549C207.494 61.5549 212.016 63.0768 215.35 65.7858C218.684 68.4948 220.557 72.1689 220.557 76ZM167.224 90.4474H185V104.89C184.999 107.747 183.955 110.539 182.001 112.913C180.048 115.288 177.271 117.138 174.023 118.231C170.775 119.323 167.201 119.609 163.753 119.051C160.305 118.493 157.138 117.117 154.652 115.097C152.167 113.077 150.475 110.504 149.789 107.702C149.104 104.901 149.456 101.997 150.802 99.3579C152.147 96.7191 154.425 94.4636 157.349 92.8768C160.272 91.29 163.708 90.4474 167.224 90.4474Z" stroke="black" stroke-width="5.2"/>
<path d="M185 32.6667H202.776C207.491 32.6667 212.013 34.1886 215.347 36.8976C218.682 39.6066 220.555 43.2808 220.555 47.1119C220.555 50.943 218.682 54.6171 215.347 57.3261C212.013 60.0351 207.491 61.557 202.776 61.557H185V32.6667Z" stroke="black" stroke-width="5.2"/>
</svg>
